<svg width="24" height="24" viewBox="0 0 24 24" xmlns="http://www.w3.org/2000/svg"><title>中国农业银行@0.5x</title><path d="M11.095 2.042L11.558 2h.926l.421.042v6.134l-.042.043-.041.084h-.043l-.041.041-.127.042h-1.18l-.125-.042-.043-.041h-.084v-.084l-.042-.043-.042-.167V2.042zm4.252 9.916v2.983l-.042.084-.042.042-.042.084h-.084l-.084.042-.17.042h-1.768v4.706l.38-.085.378-.041.338-.126.337-.084.168-.042.168-.085.337-.125.337-.169.295-.167.337-.169.294-.168.252-.21.296-.21.547-.462.253-.252.21-.252.253-.294.21-.252.211-.295.168-.294.168-.336.17-.293.167-.337.126-.336.211-.672.127-.336.041-.378.084-.337.043-.378.043-.756-.043-.588-.043-.294v-.295l-.125-.588-.169-.588-.084-.252-.085-.253-.21-.545-.295-.505-.252-.504-.337-.42-.38-.462-.378-.42-.421-.378-.42-.336-.465-.337-.504-.294-.506-.252v6.89l-.042.085-.042.042-.042.084-.084.042h-.084l-.17.042h-2.482l-.043.042-.042.042V9.059l.042-.084.043-.084.083-.042h1.138l.168-.042.126-.043.084-.041.084-.126V2.21l.842.253.421.125.379.126.421.168.38.21.379.169.336.21.378.252.338.21.337.252.294.294.337.294.296.294.547.588.252.337.253.335.21.38.21.335.422.756.168.378.127.42.252.799.126.42.085.42.042.42.084.463v1.386l-.084 1.008-.085.504-.126.463-.126.504-.168.462-.17.42-.21.463-.21.42-.253.42-.253.42-.294.378-.295.379-.295.378-.336.336-.337.336-.758.588-.38.294-.42.252-.422.253-.42.209-.463.21-.42.169-.507.167-.462.127-.463.126-.507.084-.505.041-.505.043-.505.042-.505-.042-.505-.043-.506-.041L10 21.79l-.504-.126-.464-.127-.463-.167-.463-.169-.421-.21-.421-.21-.422-.252-.42-.252-.38-.294-.758-.588-.336-.336-.337-.336-.337-.378-.294-.38-.253-.377-.252-.42-.253-.42-.21-.42-.211-.463-.169-.42-.169-.462-.126-.504-.126-.463-.084-.504-.085-.504L2 12.504v-.966l.042-.42.042-.462.085-.42.168-.841.254-.798.167-.42.168-.379.17-.378.21-.378.211-.336.252-.379.253-.335.252-.337.253-.294.294-.294.59-.588.673-.505.675-.503.379-.21.378-.169.379-.21.379-.168.38-.126.842-.252.42-.126v6.387l.043.084.041.042.127.041.126.043.127.042h1.136l.084.042.084.084v2.983l-.084-.084H9.116l-.17-.042h-.083l-.042-.042-.084-.084-.042-.042v-.085l-.042-.125V4.689l-.505.252-.463.294-.926.673-.421.378-.38.42-.674.925-.294.461-.253.505-.126.252-.084.293-.211.547-.126.546-.126.588-.042.295v.294L3.98 12v.378l.042.378.042.336.042.379.084.378.084.336.126.336.043.167.084.169.252.673.337.63.421.546.21.294.211.294.252.252.254.252.505.463.295.21.294.21.59.336.336.167.295.169.337.125.337.127.378.084.337.126.337.041.38.085v-4.706H9.116l-.17-.042-.04-.042H8.82l-.084-.084-.042-.042v-.084l-.042-.126v-2.857l.042.042.042.042.126.084.126.042.127.042h2.4l.084.042.084.084v2.857h.632V12.42l.042-.084.043-.084.083-.042h2.4l.127-.042.126-.042.126-.084.084-.084z" fill="#238C71" fill-rule="evenodd"/></svg>