<svg width="24" height="24" viewBox="0 0 24 24" xmlns="http://www.w3.org/2000/svg"><title>中国银行@0.5x</title><path d="M11.92 2.01s4.352-.372 7.746 3.598c0 0 2.195 2.412 2.324 5.955 0 0 .185 2.672-1.033 4.953-1.217 2.282-2.545 3.488-4.722 4.582-2.176 1.095-5.68 1.243-7.987.167-2.305-1.076-3.726-2.207-5.072-4.656 0 0-1.808-3.117-.94-6.734 0 0 .22-2.152 2.175-4.49 0 0 2.86-3.524 7.508-3.376zm1.087 2.226s2.306.185 4.169 1.91c1.863 1.725 2.342 3.45 2.545 4.378.203.928.35 3.58-1.124 5.844-1.477 2.263-4.28 3.302-5.59 3.413v-3.636h1.734s1.845-.37 1.955-2.3V9.968s-.295-1.948-2.342-2.04h-1.347V4.235zm-2.029 0v3.691h-1.55s-2.102.13-2.176 2.467v3.414s.056 2.096 2.232 2.337h1.494v3.636s-3.652-.204-5.662-3.728c0 0-1.734-2.487-1.015-5.584.72-3.099 2.398-4.341 2.73-4.657.332-.315 2.48-1.6 3.947-1.577zm-1.346 5.788h4.556s.387-.075.424.352v3.172s.093.5-.277.427H9.724s-.368.093-.424-.334v-3.265s.055-.352.332-.352z" fill="#A42A2F" fill-rule="evenodd"/></svg>