<svg width="24" height="24" viewBox="0 0 24 24" xmlns="http://www.w3.org/2000/svg"><title>交通银行@0.5x</title><path d="M18.289 17.5l-3.728.125c-.807 3.478-7.481 2.539-6.738-1.875.374-2.615 3.86-3.757 6.024-1.783.476.544.709 1.05.862 2.158 1.069-.042 2.51-.083 3.58-.125.054-5.625-6.252-8.48-10.98-5.75-4.533 2.617-4.01 10.588.74 12.625V23C5.46 22.949 2.62 20.916 2 18.5l.035-12.968C4.09 4.115 6.363 2.417 8.419 1l.247.125c-.142 1.955-.053 5.179.061 7.531 1.288-1.266 2.157-2.591 4.38-3.031 1.434-.284 2.805-.113 3.67.188 6.497 2.254 6.901 10.76 1.388 13.687-.123 0-.391.246-.596.287 0-.041.129-.222.227-.412l.493-1.875" fill="#292D78" fill-rule="evenodd"/></svg>