<svg width="24" height="24" viewBox="0 0 24 24" xmlns="http://www.w3.org/2000/svg"><title>中国建设银行@0.5x</title><path d="M11.25 2.74s1.782-1.376 4.844-.375c0 0 1.031.375 2.219 1.439L22 7.683l-1.968 1.971-5.626-5.725s-.937-1.157-3.155-1.189zm8.126 7.602l-2.312 2.252s-.376.533-.688.032l-4.25-4.16s-.375-.501-.657-.063l-4.28 4.379s-.282.438.062.626l4.187 4.192s.344.563.657.125l4.343-4.38s.125-.375.813-.281h4.437s.188 4.505-3.25 7.32c0 0-4.468 4.474-10.593 1.72 0 0-5.906-2.064-5.845-9.728 0 0 .158-5.131 4.814-7.853 0 0 3.406-2.533 6.124-.656l6.438 6.475z" fill="#193E7E" fill-rule="evenodd"/></svg>