<svg width="24" height="24" viewBox="0 0 24 24" xmlns="http://www.w3.org/2000/svg"><title>中国光大银行@0.5x</title><path d="M4 1h10.973s2.07 0 2.46.602h-2.03v.642l3.123.04s.507.361.507.641l-3.63.04v.602h4.022s.469.241.353.763H7.242v.683l12.729-.04s.078.52.078.681H7.242v.682l12.846-.04s.078.401-.117.681L7.242 7.1v.641l12.536-.08s0 .522-.315.683l-12.22.08v.602l11.83-.081s-.04.642-.469.763l-11.362.04v.64l10.425-.079s-.234.802-1.836.722l-1.95-.04v.602l3.162.04s1.327 0 1.523.562l-4.685.12v.602h5.505s.508.401.508.642l-12.652.08v.722l12.924-.12s.508.36.508.723l-13.432.078v.604H20.87s.156.2.079.561l-13.706.12v.602h13.706s.117.362 0 .642l-13.706.08v.642h13.589s.117.401-.195.723H7.242v.641l13.12-.04s-.039.643-.313.682h-4.647v.682l4.023-.04s-.275.642-.546.722l-3.477.04v.682l2.344-.039s-.352.762-3.436.642L4 22.947V1" fill="#F8E514" fill-rule="evenodd"/></svg>