<svg width="24" height="24" viewBox="0 0 24 24" xmlns="http://www.w3.org/2000/svg"><title>兴业银行@0.5x</title><path d="M24 12.421c0-3.025-4.173-5.473-9.315-5.473-4.113 0-7.605 1.57-8.839 3.749l.004-.003a1.295 1.295 0 0 0-.177.653c0 .546.345 1.028.89 1.342l4.723 2.681a1.833 1.833 0 0 0 1.7 0l4.477-2.54c.301-.176.494-.443.494-.743 0-.294-.184-.551-.467-.726l-1.667-.946-3.688 2.096-2.79-1.586c1.075-.958 3.085-1.6 5.388-1.6 3.44 0 6.23 1.437 6.23 3.211-.073 2.743-4.165 4.87-9.138 4.741-4.977-.129-8.952-2.458-8.878-5.204h-.001C2.98 8.45 7.807 5.563 13.723 5.62c.529.007 1.043.034 1.549.083C14.057 5.26 12.542 5 10.894 5c-1.319 0-2.552.168-3.616.458C3 6.615 0 9.298 0 12.421 0 16.606 5.372 20 12.001 20 18.627 20 24 16.606 24 12.421" fill="#174489" fill-rule="evenodd"/></svg>