<svg width="24" height="24" viewBox="0 0 24 24" xmlns="http://www.w3.org/2000/svg"><title>中信银行@0.5x</title><g fill="#C5222A" fill-rule="evenodd"><path d="M7.55 5.747v15.03c.602.305 1.24.55 1.907.73V8.741A3.322 3.322 0 0 0 7.55 5.747m9.057 0v15.03a9.97 9.97 0 0 1-1.907.73V8.741c0-1.318.778-2.456 1.907-2.995"/><path d="M16.632 3.64a.43.43 0 0 0-.25-.389 10.011 10.011 0 0 0-4.304-.965 10.02 10.02 0 0 0-4.306.966.43.43 0 0 0-.246.387c0 .194.13.357.308.411v.001c1.77.55 3.053 2.18 3.053 4.105V21.78a10.13 10.13 0 0 0 2.383 0V8.156c0-1.926 1.284-3.556 3.055-4.105V4.05a.431.431 0 0 0 .307-.41M5.285 11.433a.642.642 0 0 0 .756-.254V4.302C3.674 6.09 2.148 8.903 2.148 12.068c0 3.166 1.526 5.979 3.893 7.767V12.96a.642.642 0 0 0-.756-.254 1.493 1.493 0 0 0-.943 1.021l-.006.016a.154.154 0 0 1-.154.118.16.16 0 0 1-.113-.047 2.664 2.664 0 0 1 .002-3.491.159.159 0 0 1 .265.075v-.001a1.496 1.496 0 0 0 .948 1.037m15.811 1.271a1.488 1.488 0 0 0-.947 1.03l-.002.004a.158.158 0 0 1-.154.12.158.158 0 0 1-.134-.071 2.663 2.663 0 0 1 0-3.438.16.16 0 0 1 .287.044s0 .005.001.004c.118.464.46.859.95 1.035a.639.639 0 0 0 .846-.5c-.316-2.698-1.746-5.06-3.826-6.631v15.533c2.08-1.57 3.51-3.933 3.826-6.63a.639.639 0 0 0-.847-.5"/></g></svg>