<svg width="24" height="24" viewBox="0 0 24 24" xmlns="http://www.w3.org/2000/svg"><title>招商银行@0.5x</title><path d="M11.172 16.046l2.713-6.85 2.828 6.85h-5.541zm-5.678 0l2.713-6.85 2.828 6.85H5.494zm14.092-1.563h2.116l-.115.39H19.77l-.185-.39zm-.414-.966h2.713l-.068.414h-2.461l-.184-.414zm-.413-.965H22l-.046.414h-3.01l-.185-.414zm-.39-.966H22V12h-3.47l-.162-.414zm-.415-.965h3.955l.045.414h-3.84l-.16-.414zm-.414-.966h4.184l.093.414h-4.093l-.184-.414zM12 2h.414l.437.046.413.023.39.07.415.068.39.092.391.115.391.115.185.07.184.068.367.16.369.162.343.184.345.183.345.208.323.23.322.23.299.229.298.253.299.276.276.276.275.275.254.3.115.16.115.162.252.321.208.322.206.322.207.345.16.367.185.345.138.368.137.39.139.369H17.31L14.666 2.92l-2.758 6.965L9.01 2.99 3.908 16.16l2.322 2.897h11.816l2.16-3.15-.205-.482h1.402l-.139.367-.16.345-.161.345-.16.322-.207.345-.185.321-.23.3-.206.298-.23.299-.254.299-.252.252-.276.276-.277.253-.275.253-.298.23-.3.23-.299.207-.321.206-.322.185-.345.183-.345.161-.345.138-.367.138-.345.138-.368.115-.39.092-.37.092-.39.07-.184.022-.207.023-.39.046-.391.023h-.919l-.506-.046-.507-.069-.506-.092-.482-.115-.46-.115-.46-.16-.46-.185-.436-.207-.437-.206-.207-.139-.207-.114-.414-.253-.39-.276-.391-.3-.184-.16-.161-.16-.183-.162-.161-.16-.345-.345-.323-.368-.137-.184-.139-.207-.298-.39-.115-.184-.138-.208-.115-.206-.115-.23-.23-.414-.206-.46-.161-.437-.161-.483-.139-.46-.069-.252-.045-.23-.092-.506-.07-.482-.023-.53-.022-.25V12l.022-.506.024-.505.069-.506.092-.506.114-.482.139-.46.322-.92.206-.436.23-.437.115-.207.115-.207.253-.414.298-.39.276-.391.162-.184.16-.161.162-.184.184-.161.344-.345.345-.322.207-.137L6.022 4l.391-.299.207-.114.207-.139.207-.114.207-.115.437-.23.437-.207.46-.184.46-.138.459-.138.252-.07.23-.045.254-.045.252-.047.507-.069.506-.023.252-.023H12z" fill="#D9222A" fill-rule="evenodd"/></svg>