<svg width="24" height="24" viewBox="0 0 24 24" xmlns="http://www.w3.org/2000/svg"><title>中国民生银行@0.5x</title><g fill="none" fill-rule="evenodd"><path d="M9.956 15.701l2.043-1.207.151.075v-1.321l-.53-.226s-7.947.303-7.266-5.206c.834-2.226 4.315-3.548 7.796-3.623V3.1C7.836 3.212 1.818 4.382.683 8.268c-.038.15-.076.264-.076.378v.528c.227 2.227 3.52 4.791 8.932 4.791l-2.914 1.736 5.185 2.641.34-.15v-1.36l-.075.04-2.12-1.17zM12.15 4.193V3.1h.076c3.937-.115 11.771 1.32 11.733 5.772h-3.634c-.53-3.358-4.389-4.793-8.175-4.679zm0 10.376l2.196 1.132-2.196 1.132v1.359l5.489-2.68-5.489-2.264v1.32z" fill="#50A951"/><path d="M11.961 20.38v1.094h-.075C7.95 21.549.116 20.154.116 15.7h3.67c.53 3.32 4.353 4.754 8.175 4.678zm0-10.337L9.766 8.91l2.195-1.17V6.42L6.474 9.06l5.487 2.302v-1.32zm2.195-1.133l-2.042 1.17-.153-.037v1.32l.493.188s7.948-.265 7.304 5.206c-.87 2.226-4.315 3.548-7.797 3.622v1.095c4.315-.151 10.333-1.283 11.469-5.17.037-.113.075-.225.075-.377v-.49c-.226-2.264-3.557-4.793-8.932-4.83l2.876-1.697-5.147-2.68-.34.19v1.32l.075-.038 2.12 1.208z" fill="#309BBF"/></g></svg>