<svg width="24" height="24" viewBox="0 0 24 24" xmlns="http://www.w3.org/2000/svg"><title>华夏银行@0.5x</title><g fill="none" fill-rule="evenodd"><path d="M21.817 6.551l-.746-.969s-2.925.485-2.865-1.18c0 0 .208-1.24-1.91-.756 0 0-.508-.484-.478-.757 0 0 .15-.726-2.148-.332 0 0-3.402.423-7.132 4.75 0 0-3.76 3.118-3.76-.09 0 0-2.06 2.119-.956 3.814 0 0 1.254 1.785 3.64.332 0 0-.745 5.872 3.074 8.929 0 0 4 3.753 8.596 2.421 0 0 3.85-.817 5.312-4.752 0 0-.687.697-.985.636 0 0 1.043-1.272 1.103-1.816 0 0-.03-.757-.626.424 0 0 .15-.727-.269-.363 0 0-2.03 2.39-2.894 2.511 0 0-6.416 3.845-9.342-3.904 0 0-1.252-3.662 1.701-6.416 2.955-2.754 5.85-2.482 8.506-.484 0 0 1.343-1.544 1.91-1.241 0 0 .507-.303.269-.757" fill="#D9222A"/><path d="M12.864 11.212l6.357-.03v4.902h-6.357v-4.872" fill="#CBCCCB"/></g></svg>