<svg width="24" height="24" viewBox="0 0 24 24" xmlns="http://www.w3.org/2000/svg"><title>中国工商银行@0.5x</title><path d="M3.98 12.034l.068.82.068.75.205.82.272.682.342.75.41.615.204.341.273.274.478.614.614.477.615.478.682.41.683.341.75.273.752.205.41.068.409.069h1.638l.751-.137.819-.205.683-.273.75-.341.615-.41.341-.205.274-.273.614-.477.478-.614.477-.615.41-.614.341-.751.273-.683.205-.819.068-.342.069-.409v-1.638l-.137-.82-.205-.75-.273-.751-.341-.682-.615-1.024-.272-.274-.478-.546-.614-.546-.615-.478-.614-.409-.75-.341-.684-.273-.819-.206-.341-.067h-.41l-.41-.069h-.41l-.818.069-.82.067-.75.206-.751.273-.683.341-.682.41-.341.205-.274.272-.614.546-.478.546-.477.615-.41.683-.342.682-.272.75-.205.752-.068.41v.41l-.069.409v.409zm-1.98 0l.068-1.024.068-.546.068-.478.41-1.434.205-.41.204-.476.205-.41.478-.82.273-.41.342-.409.614-.682.34-.341.343-.273.41-.342.409-.273.41-.273.409-.205.887-.41.887-.34.478-.137.478-.137.478-.068.546-.068L12.034 2l1.024.068.478.068.478.068.955.273.478.137.478.205.41.204.41.205.887.478.34.273.41.342.683.614.341.34.342.342.273.41.546.82.204.408.479.888.34.887.069.478.136.478.068.478.069.546.068 1.024-.068 1.024-.137.956-.205.955-.204.478-.136.478-.206.41-.273.41-.477.887-.273.34-.273.41-.683.683-.342.341-.34.342-.41.273-.341.273-.41.273-.478.205-.82.478-.955.34-.477.137-.478.068-.478.068-.478.069-1.024.068-1.024-.068-.546-.069-.478-.068-.956-.205-.477-.204-.41-.136-.477-.205-.41-.273-.82-.478-.408-.273-.41-.273-.683-.683-.342-.34-.272-.343-.342-.41-.273-.34-.273-.41-.205-.478-.41-.82-.34-.955-.137-.477-.137-.478-.136-.956L2 12.034zm15.632.683v4.437h-4.915V15.72h3.344v-1.638h-3.344V9.645h3.344V8.143h-3.344V6.71h4.915v4.437h-3.345v1.501h3.345v.069zm-11.264 0v4.437h4.915V15.72H7.939v-1.638h3.344V9.645H7.939V8.143h3.344V6.71H6.368v4.437h3.345v1.501H6.368v.069z" fill="#D9222A" fill-rule="evenodd"/></svg>