<svg width="24" height="24" viewBox="0 0 24 24" xmlns="http://www.w3.org/2000/svg"><title>平安银行@0.5x</title><g fill="none" fill-rule="evenodd"><path d="M14.478 2.544c-.19-.33-.486-.544-.854-.544H10.7c-.369 0-.665.214-.852.544L.631 20.698c-.308.586-.047.936.498.936H4.05c.426 0 .586-.109.8-.516l7.312-14.605 7.311 14.605c.213.407.373.516.8.516h2.92c.544 0 .808-.35.5-.936L14.478 2.544z" fill="#EB5404"/><path d="M14.998 16h-5.03a.466.466 0 0 0-.468.466v4.922c0 .261.208.47.468.47h5.03c.26 0 .468-.209.468-.47v-4.922a.466.466 0 0 0-.468-.466" fill="#005D3B"/></g></svg>