<svg width="24" height="24" viewBox="0 0 24 24" xmlns="http://www.w3.org/2000/svg"><title>中国邮政@0.5x</title><path d="M3.927 13.188l-.101.585h3.043l.136-.585H3.927zm7.744.585l.102-.585h-3.45l-.135.585h3.483zm1.928-2.96l-.474 2.375-.135.585-.474 2.375H7.715l-.101.55h5.613l.743-3.51.474-2.376h6.73l-.508 2.376H15.29l-1.218 5.886H7.106l-.101.551h7.811l.744-3.477.474-2.375h4.531l-.474 2.375H16.88l-.71 3.477L15.662 22H5.178l1.218-5.852H2l.507-2.375.101-.585.508-2.376h4.362L8.696 4.96h4.801L14.106 2H23l-.508 2.375h-7.574l-.102.585-.473 2.376H9.541l-.136.55h5.648l.101-.55.508-2.376h6.729l-.507 2.376h-5.377l-.609 2.926H8.932l-.135.55h4.802z" fill="#1D7842" fill-rule="evenodd"/></svg>