<svg width="24" height="24" viewBox="0 0 24 24" xmlns="http://www.w3.org/2000/svg"><title>上海浦东发展银行@0.5x</title><path d="M9.703 8.828c-2.06-3.948-7.274-3.344-8.418.015 0 0-.159 1.09-.284 2.223L1 17.949 4.348 21v-8.401s.364-4.016 5.355-3.771zm-4.912 6.408s5.497.735 5.686-4.722c-.088-5.124 6.688-5.463 8.53-1.78 0 0-4.802.062-5.308 3.925 0 0 .063 4.768-3.727 5.259 0 0-4.107.69-5.181-2.682zm9.505-.063c2.06 3.947 7.18 3.297 8.323-.062 0 0 .349-.769.38-2.176L23 6.052 19.651 3v8.402s-.364 4.016-5.355 3.77z" fill="#292D78" fill-rule="evenodd"/></svg>