<?xml version="1.0" encoding="utf-8"?>
<!-- Generator: Adobe Illustrator 19.1.0, SVG Export Plug-In . SVG Version: 6.00 Build 0)  -->
<svg version="1.1" id="图层_1" xmlns="http://www.w3.org/2000/svg" xmlns:xlink="http://www.w3.org/1999/xlink" x="0px" y="0px"
	 viewBox="15 7.1 116.2 70.9" style="enable-background:new 15 7.1 116.2 70.9;" xml:space="preserve">
<style type="text/css">
	.st0{fill:#FFFFFF;}
</style>
<g>
	<polygon class="st0" points="41.4,30 40,36.5 42.8,35.6 35.7,72.3 51,68 58.9,23.7 	"/>
	<polygon class="st0" points="39.6,19.2 22.2,25.3 20.8,31.8 23.6,31 16.5,67.7 31.7,63.4 	"/>
	<polygon class="st0" points="67.1,38 59.9,40.1 58.2,48.7 65.4,46.6 	"/>
	<polygon class="st0" points="84.1,66.6 85,62 61.4,68.8 64.9,50 57.6,52 53.3,75.4 	"/>
	<path class="st0" d="M129,14.7l-29.8,8.4c-0.1,0-0.3,0.1-0.4,0.4l-6,22.8c-0.1,0.4,0.3,0.8,0.6,0.6l9.5-2.6
		c0.5-0.8,1.2-1.6,1.9-2.2c1-0.9,2.3-1.7,3.8-2.1c2.1-0.6,3.4-0.3,4.2,1c0.6,1.3,0.8,3.4,0.3,6.1c-0.4,2.5-1.2,4.5-2.3,6.1
		c-0.3,0.4-0.5,0.6-0.8,0.9c0,0-0.1,0.1-0.3,0.3c-1.9,1.4-3.8,2.1-5.3,1.8c-0.5-0.1-1-0.3-1.6-0.5c-0.3-0.1-0.5-0.4-0.6-0.8l0,0
		c-1.2-1.8-0.4-4.8-0.3-5.4l-19.3,5.3l0.9-4.5l4-1.2l0.8-4.3l-7,2.1l1-5.3l7-2.1l0.8-3.8L82.6,38l0.9-4.8l-5.7,1.7l-0.9,4.8l-4,1.2
		l0.9-4.8l-5.1,1.4l-1.6,8.6l9.1-2.6l-1,5.3l-9.1,2.7l-0.8,4.3l3.8-1.2l-1,5.7l-3.6,1l-0.9,4.2l9.1-2.6l1.8-9.9l4.3-1.3l-1.8,9.9
		l12.2-3.2c0.4-0.1,0.6,0.1,0.6,0.5c0,2.9,1.2,4.8,3.6,6.1c3,1.6,6.7,1.7,11.2,0.5c5.8-1.7,10.4-4.4,13.5-8.2s5.2-8.2,6.1-13.2
		c0.9-5.3,0.4-9.2-1.6-11.4c-1.9-2.2-5.1-2.7-9.6-1.3c-1.7,0.5-3.2,1.2-4.7,1.9c-0.9,0.5-1.7,1-2.5,1.6c-0.4,0.3-0.9-0.1-0.8-0.5
		l1.3-4.4c0-0.1,0.1-0.3,0.4-0.4l21.3-6c0.1,0,0.4-0.3,0.4-0.4l1.3-7.8C129.6,14.9,129.3,14.7,129,14.7z"/>
</g>
<path class="st0" d="M103.9,14.3c-0.3,1.3-0.8,2.5-1.7,3.5c-0.9,1-2.1,1.7-3.4,2.1s-2.3,0.3-3-0.3s-0.9-1.4-0.6-2.7s0.8-2.5,1.7-3.5
	c0.9-1,2.1-1.7,3.4-2.1c1.3-0.4,2.3-0.3,3,0.3C103.9,12.2,104,13.1,103.9,14.3z M99.9,13.2c-0.6,0.1-1.2,0.5-1.6,1s-0.6,1.2-0.8,1.9
	c-0.3,1.6,0.3,2.2,1.6,1.8c1.3-0.4,2.1-1.4,2.3-3C101.7,13.5,101.2,12.8,99.9,13.2z M92.5,20.6c-0.8,1-1.7,1.7-2.9,1.9
	c-1,0.3-1.7,0.1-2.1-0.5l0,0l-0.3,1l-2.3,0.6l1.9-11.9l2.3-0.6l-0.8,5.1l0,0c0.8-1.2,1.7-1.8,2.9-2.2c1-0.3,1.8-0.1,2.2,0.4
	c0.5,0.5,0.6,1.4,0.4,2.7C93.8,18.4,93.3,19.6,92.5,20.6z M91.3,16.4c-0.3-0.3-0.6-0.4-1.2-0.3c-0.5,0.1-1,0.5-1.4,1s-0.6,1-0.8,1.7
	l-0.1,0.8c-0.1,0.5,0,0.9,0.3,1.2s0.6,0.4,1.2,0.1c0.6-0.1,1-0.5,1.6-1c0.4-0.5,0.6-1.3,0.8-2.1C91.7,17.1,91.6,16.6,91.3,16.4z
	 M83.2,15.3c-0.4,0.1-0.6,0.1-0.9-0.1C82,15.1,82,14.8,82,14.4c0-0.4,0.3-0.6,0.5-1c0.3-0.3,0.6-0.5,1-0.6s0.8-0.1,0.9,0
	c0.3,0.1,0.3,0.4,0.3,0.8c0,0.4-0.3,0.6-0.5,1S83.7,15.2,83.2,15.3z M82.9,24.4L80.6,25l1.3-8l2.3-0.6L82.9,24.4z M79.5,22.2
	l-5.3,1.6c-0.1,1.2,0.5,1.7,1.9,1.2c0.9-0.3,1.7-0.8,2.5-1.3l-0.3,1.7c-0.8,0.6-1.8,1.2-3,1.4c-1.3,0.4-2.2,0.3-2.9-0.3
	c-0.6-0.5-0.8-1.4-0.5-2.7c0.3-1.3,0.8-2.5,1.7-3.5c0.9-1,1.9-1.7,3.1-2.1s1.9-0.3,2.6,0.3c0.5,0.5,0.6,1.3,0.5,2.6L79.5,22.2z
	 M76.4,20c-0.4,0.1-0.8,0.4-1.2,0.8c-0.4,0.4-0.6,0.9-0.8,1.4l3.1-0.9C77.7,20.2,77.3,19.7,76.4,20z M70.2,21.4
	c-0.5,0.5-1,1-1.7,1.4l0,0c0.8-0.1,1.4,0,1.8,0.3c0.4,0.4,0.5,0.9,0.4,1.6c-0.1,1-0.6,1.9-1.6,2.7c-0.8,0.8-1.9,1.4-3.1,1.8
	l-4.3,1.3l1.8-11.3l4-1.2c1.3-0.4,2.2-0.4,2.7-0.1c0.6,0.3,0.8,0.8,0.6,1.7C71,20.2,70.6,20.9,70.2,21.4z M64.5,28.2l1.4-0.4
	c0.6-0.1,1.2-0.5,1.6-0.9s0.6-0.8,0.6-1.3c0.1-0.5,0-0.8-0.4-0.9c-0.3-0.1-0.8-0.1-1.4,0l-1.4,0.4L64.5,28.2z M66.7,20.1l-1,0.4
	l-0.5,2.7l1.2-0.4c0.5-0.1,1-0.4,1.4-0.8s0.5-0.8,0.6-1.3C68.5,20,68,19.7,66.7,20.1z"/>
</svg>
