<?xml version="1.0" encoding="utf-8"?>
<!-- Generator: Adobe Illustrator 19.1.0, SVG Export Plug-In . SVG Version: 6.00 Build 0)  -->
<svg version="1.1" id="图层_1" xmlns="http://www.w3.org/2000/svg" xmlns:xlink="http://www.w3.org/1999/xlink" x="0px" y="0px"
	 viewBox="9 7.1 104.9 70.9" style="enable-background:new 9 7.1 104.9 70.9;" xml:space="preserve">
<style type="text/css">
	.st0{fill:#FFFFFF;}
	.st1{fill:none;}
</style>
<path class="st0" d="M111.3,21.3c-0.5,0.1-1.3,1-3,2.9c-1.9,2.1-5,5.6-7,7.5c-0.6-0.6-1.1-1-1.9-1.2c3.2-2.9,7.8-7.8,9.4-11.2
	c0.6,0.5,2,1.1,2.6,1.2C112.2,20.6,112,21,111.3,21.3z M100.5,24.1c-1,0.2-2.3,0.7-8.1,3.2c-3.6,1.6-6.7,2.7-8.5,3.5
	c-0.1-1-0.2-1.8-0.5-2.3c1.7-0.5,4.1-1.4,8.2-3.1c2.6-1.1,5.8-2.7,7.9-3.9c0.2,1,0.7,1.6,1.3,2.1C101.1,23.8,101,24,100.5,24.1z
	 M75.6,23.8c-8.2-1.6-17.3,1.6-22.7,6.2L46,31.8c2.4-3.7,7.8-7.4,14.1-9.5V18l-3.6,0.8v-3.6L71.3,11l-0.7,4.2L67,16v4.4
	c1.7-0.2,3.3-0.4,4.9-0.4c4.2,0.1,8.1,0.6,11.7,1.6l-7.8,2C75.8,23.8,75.7,23.8,75.6,23.8z M48.7,51c-0.5-0.7-1.4-1.3-2.3-1.7
	c3.9-3.3,7.2-7.5,9.3-11c1.6-2.4,2.5-4.4,3.5-6.3c1,0.2,2.6,0.5,3.2,0.4c0.5,0,0.5,0.4-0.1,0.7c-1,0.6-1.4,1.1-2.1,2.5
	C57.8,39.9,52.8,46.6,48.7,51z M57.4,47.9c-2.3,0.6-3.1,0.8-4.7,1.4l0.5-3.2c1.1-0.1,3.5-0.6,7-1.6c4.3-1.1,9.7-2.6,11.2-3.1
	l-3.3,13.9c-0.7,2.9-2,3.9-6.9,5.8c0-1.2-0.4-2.4-1-3.3c3.7-0.6,4.8-1.3,5.6-4.4l2-8.2l-7.6,2c-0.7,3.2-2,6.4-3.7,8.8
	c-2.6,3.8-4.8,6-8,8.5c-0.6-0.7-1.7-1.3-2.7-1.4c4.1-2.5,6.9-5.4,8.2-7.4C55.7,53,56.6,50.9,57.4,47.9z M34.9,47
	c-1.2-1.7-2-4.8-2.4-8l3-1.3c0.4,3.2,1.1,5.6,2.3,6.9c2,2,3.9,2.9,6.4,3.2c-1.1,1.1-2.1,2.5-3.1,4.1C38.4,50.6,36.4,49.1,34.9,47z
	 M42.8,31.4c-0.6,0.7-1.4,1.2-2.5,1.6c-0.8,0.2-1.6,0.2-2-0.1c-0.6-0.4-0.8-1.1-0.6-1.9c0.1-0.8,0.6-1.7,1.2-2.4
	c0.6-0.7,1.4-1.2,2.5-1.6s1.9-0.2,2.4,0.2c0.4,0.4,0.5,1,0.4,1.8C43.8,30,43.4,30.7,42.8,31.4z M41.7,28.7c-0.1-0.2-0.4-0.2-0.7-0.1
	c-0.4,0.1-0.6,0.2-0.8,0.6c-0.2,0.4-0.4,0.7-0.5,1.2s0,0.8,0.1,1.1c0.1,0.2,0.4,0.2,0.7,0.1c0.4-0.1,0.6-0.2,0.8-0.6
	c0.2-0.2,0.4-0.7,0.5-1.2C41.9,29.3,41.9,28.9,41.7,28.7z M28.6,41.9c-1,0.6-1.4,1.1-2.1,2.5c-2.4,4.3-7.3,10.9-11.6,15.4
	c-0.5-0.7-1.4-1.3-2.3-1.7c3.9-3.3,7.2-7.5,9.3-11c1.6-2.4,2.5-4.4,3.5-6.3c1,0.2,2.6,0.5,3.2,0.4C29.2,41.2,29.2,41.6,28.6,41.9z
	 M36.3,32.9c-0.2,0.5-0.6,1-1,1.3c-0.4,0.4-0.8,0.6-1.2,0.7c-0.4,0.1-0.7,0.1-1,0c-0.2-0.1-0.5-0.2-0.6-0.5l-0.4,0.8l-1.9,0.5
	l1.2-7.8l2.1-0.6l-0.3,2.8c0.2-0.2,0.5-0.5,0.8-0.7c0.2-0.2,0.6-0.4,1-0.5c0.7-0.2,1.2-0.1,1.6,0.2c0.4,0.4,0.5,1,0.4,1.9
	C36.7,31.7,36.5,32.3,36.3,32.9z M34.6,30.8c-0.1-0.1-0.4-0.2-0.6-0.1s-0.6,0.2-0.7,0.5c-0.2,0.2-0.4,0.6-0.5,1.1
	c-0.1,0.5,0,0.8,0.1,1s0.4,0.2,0.6,0.1c0.2-0.1,0.5-0.2,0.7-0.5c0.2-0.2,0.4-0.6,0.5-1.2C34.8,31.3,34.7,31.1,34.6,30.8z M27.8,30.5
	l0.2-1.4l2.1-0.6l-0.2,1.4L27.8,30.5z M28.9,36.2l-2.1,0.6l1-5.6l2.1-0.6L28.9,36.2z M26.1,34.8L21.8,36c0,0.4,0,0.6,0.1,0.7
	c0.1,0.2,0.4,0.2,0.7,0.1c0.2-0.1,0.4-0.1,0.6-0.4c0.1-0.1,0.2-0.2,0.5-0.5l2-0.4c-0.4,0.7-0.8,1.2-1.3,1.6c-0.5,0.4-1.2,0.7-2,1
	c-0.7,0.2-1.3,0.2-1.7,0.2c-0.4-0.1-0.7-0.4-0.8-0.7c-0.2-0.4-0.2-0.8-0.1-1.6c0.1-0.8,0.5-1.7,1.2-2.4c0.6-0.7,1.4-1.2,2.4-1.4
	c0.8-0.2,1.4-0.2,1.8-0.2c0.5,0.1,0.7,0.4,0.8,0.7c0.1,0.4,0.2,1,0.1,1.7V34.8z M23.8,33.6c-0.1-0.1-0.4-0.1-0.7-0.1
	c-0.4,0.1-0.6,0.4-0.8,0.6c-0.1,0.2-0.2,0.5-0.4,0.8l2.1-0.6C24.1,34,24.1,33.7,23.8,33.6z M18.5,34.8c-0.2,0.2-0.5,0.5-1,0.7
	c0.5,0,1,0.1,1.1,0.4c0.2,0.2,0.2,0.6,0.2,1.1c-0.1,0.4-0.2,0.8-0.5,1.2s-0.5,0.7-0.8,1c-0.2,0.1-0.5,0.4-1,0.5
	c-0.6,0.2-1,0.4-1.1,0.4l-4,1l1.2-7.8L17,32c0.7-0.2,1.3-0.2,1.6,0.1c0.4,0.2,0.5,0.7,0.4,1.2C19,33.9,18.8,34.4,18.5,34.8z
	 M14.1,38.9l1.2-0.4c0.4-0.1,0.7-0.2,1-0.5c0.2-0.2,0.4-0.4,0.4-0.7c0-0.2,0-0.4-0.1-0.5s-0.5-0.1-0.8,0l-1.2,0.4L14.1,38.9z
	 M16.6,34c-0.1-0.1-0.4-0.1-0.7,0l-1.1,0.4l-0.2,1.4l1.1-0.4c0.4-0.1,0.6-0.2,0.8-0.5c0.1-0.1,0.2-0.4,0.4-0.6
	C16.7,34.3,16.7,34.2,16.6,34z M23.6,56.6c-2.3,0.6-3.1,0.8-4.7,1.4l0.5-3.2c1.1-0.1,3.5-0.6,7-1.6c4.3-1.1,9.7-2.6,11.2-3.1
	l-3.3,13.8c-0.7,2.9-2,3.9-6.9,5.8c0-1.2-0.4-2.4-1-3.3c3.7-0.6,4.8-1.3,5.6-4.4l2-8.2l-7.6,2c-0.7,3.2-2,6.4-3.7,8.8
	c-2.6,3.8-4.8,6-8,8.5c-0.6-0.7-1.7-1.3-2.7-1.4c4.1-2.5,6.9-5.4,8.2-7.4C21.9,61.8,23,59.6,23.6,56.6z M68.7,38.3
	c-1.2-1.7-2-4.8-2.4-8l3-1.3c0.4,3.2,1.1,5.6,2.3,6.9c2,2,3.9,2.9,6.4,3.2c-1.1,1.1-2.1,2.5-3.1,4.1C72.1,41.9,70.1,40.2,68.7,38.3z
	 M53.5,70.2c7.4-1.7,14.1-5.1,19.7-9.3l6.4-1.7c-6.4,6.2-15.5,12.3-25.9,14.6c-7.3,1.7-15.1,0.5-21.8-2.3l6.1-1.6
	C43.2,71.1,48.5,71.4,53.5,70.2z M86,31.5c0.4,1.4,0.6,2.9,0.6,4.7l-2.7,1.2c0.1-1.8,0-3.3-0.4-4.8L86,31.5z M91.9,29.2
	c0.2,1.4,0.5,2.9,0.5,4.5l-2.7,1.1c0.1-1.8,0-3-0.2-4.5L91.9,29.2z M94.1,33.5c1.3-2,2.5-4.4,3.6-6.7c1,0.2,2,0.2,2.5,0.2
	c0.6-0.1,0.6,0.1,0,0.6c-0.6,0.6-1.8,2.4-4.1,6.1C95.5,33.5,94.8,33.3,94.1,33.5z M87.3,41.8c-2.9,0.8-5,1.4-6.7,2l0.5-2.7
	c1.8-0.4,4.2-0.8,7.5-1.7c0.1-1.2,0.2-2.3,0.2-2.9c1-0.1,2.5-0.4,3.2-0.7c0.7-0.2,0.8-0.1,0.1,0.6c-0.2,0.2-0.7,1.2-1,2.4
	c3.2-0.8,5.5-1.6,7.3-2.1l-0.5,2.7c-1.7,0.4-4.1,0.8-7.2,1.6l-1.2,7c-0.4,1.9-0.6,4.4-0.7,6l-3.1,0.8c0.5-1.6,1-4.2,1.2-6.1l0.7-4.8
	c-2.1,3.8-4.3,6.8-7.2,10.1c-0.7-0.6-1.4-0.8-2.5-1C81.6,50.1,84.4,46.9,87.3,41.8z M97.3,44.7L95,47.3c-1.2-1.3-2.4-2.1-4.2-2.9
	l1.9-2.1C94.5,43,95.8,43.7,97.3,44.7z M109.4,39.5c0.6,0.2,0.5,0.5-0.2,0.8c-0.7,0.4-1.4,1.1-3.1,2.7c-4.4,4.5-5.6,5.5-10.6,9.3
	c-0.2-0.6-1-1.4-1.9-1.9c6.3-4.1,10.1-7.6,13.6-12.6C108,38.5,109,39.4,109.4,39.5z M98.7,41.7c-0.4-0.7-1-1.2-1.7-1.6
	c4.7-3.6,8.9-8.6,10.7-11.7c0.2,0.5,1.2,1.2,2,1.4c0.6,0.2,0.5,0.6-0.2,1c-0.4,0.2-2,1.7-3,2.9C105.7,35.2,101.1,39.8,98.7,41.7z"/>
<line class="st1" x1="133.6" y1="-8576.2" x2="133.6" y2="7806.8"/>
</svg>
