<?xml version="1.0" encoding="utf-8"?>
<!-- Generator: Adobe Illustrator 19.1.0, SVG Export Plug-In . SVG Version: 6.00 Build 0)  -->
<svg version="1.1" id="图层_1" xmlns="http://www.w3.org/2000/svg" xmlns:xlink="http://www.w3.org/1999/xlink" x="0px" y="0px"
	 viewBox="15 7.1 116.2 70.9" style="enable-background:new 15 7.1 116.2 70.9;" xml:space="preserve">
<style type="text/css">
	.st0{fill:#FFFFFF;}
</style>
<path class="st0" d="M118.8,24.8c-0.1,0-0.1,0-0.3-0.1c-1.1-0.5-2-1.1-3.1-1.3c4.2-3.6,7.7-8,10.4-13.2c0.9,0.3,2.3,0.8,4.2,1.6
	C125.9,16.9,122.3,21.2,118.8,24.8z M97.8,19.4c8.5-2.4,14.6-5,17.8-7.4c0.3-0.1,0.4-0.3,0.4-0.3c1.6,1.8,2.6,3.1,2.8,4
	c-7.6,3-14,5.4-19.7,7.6C98.9,21.8,98.5,20.6,97.8,19.4z M99.5,29.9c-0.5-2.2-1.1-3.6-1.3-4.6c1.3-0.8,2.7-1.6,3.9-2.4
	c0.8,2.3,1.3,4,1.6,5.3c-1.3,0.8-2.7,1.6-3.9,2.3C99.6,30.1,99.5,30,99.5,29.9z M109,20.4c0.1,2,0.3,3.9,0.3,5.5
	c-0.5,0.1-1.3,0.4-2.2,0.7c-0.9,0.4-1.6,0.7-2.2,0.7c0.1-2.4,0.1-4.3-0.1-5.5L109,20.4z M113.5,18.5c1.8,0.1,3.1,0.4,4,0.4
	c0,0.1-0.4,0.7-0.9,1.8c-1.3,2.3-2.7,4.3-3.9,6.5c-1.1-0.1-2.2-0.1-3.2-0.1c0.1-0.4,0.4-0.9,0.7-1.5C111.9,22.1,113,19.8,113.5,18.5
	z M104.2,28.7c1.5-0.3,2.7-0.5,3.5-0.8c0.8-0.1,1.2-0.1,1.3-0.1c0,0.3-0.1,0.4-0.3,0.7c-0.1,0.3-0.3,0.7-0.3,0.9l7.2-2l-0.7,3.9
	l-7.3,2.2l-0.4,2.7l2.7-2.3c1.2,1.3,2.7,2.8,4.3,4.7c-1.3,1.1-2.7,2.3-4,3.8c-0.9-1.3-2-2.7-3.4-4l-1.5,10.4l-4.5,1.2l1.5-9.4
	c-2,3-4.5,5.5-7,7.8c-1.1-0.8-2-1.3-2.8-1.9c4.2-3.9,7.2-7.7,9.2-11.6L95,36.8l0.7-3.9l8.4-2.3L104.2,28.7z M91.1,31.2l-4.5,1.2
	l-3,18.4c-0.1,2.7-3.1,4.9-8.8,6.6c-0.1-2-0.4-3.5-0.5-4.5c3.1-0.8,4.6-1.6,4.7-2.6l2.7-16.6l-10.3,2.8l-3,18.4L64,56.3l0.4-2.2
	l-4.6,1.3l-0.4,2.4L55.1,59l4.5-27.8l13.6-3.8l-1,4.9l10.3-2.8l1.2-8l2-0.5c1.3-0.4,2.2-0.5,2.3-0.5c0.4-0.1,0.7-0.1,0.8-0.1
	c0,0.1-0.1,0.3-0.3,0.5c-0.4,0.9-0.5,2-0.8,3L87,28.2l4.5-1.2L91.1,31.2z M60.3,51.6l4.5-1.2l1.2-7.3l-4.5,1.2L60.3,51.6z
	 M63.2,34.2l-0.9,6.2l4.6-1.3l0.9-6.2L63.2,34.2z M57.6,65.2l-1.2,7.6l4.5-1.1l-0.3,1.5l-6.3,1.6l1.5-9L57.6,65.2z M48,43.2l-3,18.4
	c-0.1,2.7-3.1,4.9-8.8,6.6c-0.1-2-0.4-3.5-0.5-4.5c3.1-0.8,4.6-1.6,4.7-2.6l2.7-16.6l-10.3,2.8l-3,18.2l-4.6,1.3l0.4-2.2L21,65.9
	l-0.4,2.4l-4.3,1.2l4.5-27.8l13.6-3.8l-0.9,4.9l10.4-2.5l1.2-8l2-0.5c1.3-0.4,2.2-0.5,2.3-0.5c0.4-0.1,0.7-0.1,0.8-0.1
	c0,0.1-0.1,0.3-0.3,0.5c-0.4,0.9-0.5,2-0.8,3L48.4,39l4.5-1.2l-0.7,4.5L48,43.2z M21.9,62.3l4.5-1.2l1.2-7.3L23.1,55L21.9,62.3z
	 M24.6,45l-0.9,6.2l4.6-1.3l0.9-6.2L24.6,45z M50.3,25c-0.5,0.7-1.1,1.5-1.6,2c-1.6-0.3-2.7-1.3-3.2-3.2c-0.7,1.9-2.3,3.6-4.7,5.4
	c-0.4-0.5-0.7-0.9-0.9-1.3c2.6-1.8,4.2-3.6,4.9-5.7L41.6,23l0.3-1.6l3.5-0.9c0.1-0.4,0.3-0.9,0.3-1.5l1.8-0.4c0,0.3-0.1,0.7-0.3,1.5
	l4-1.1l-0.3,1.6L47,21.7C47.1,23.8,48.3,24.9,50.3,25z M41.7,19.6l-0.5,3c-0.5,3.4-1.3,5.8-2.4,7.3c-0.4-0.4-0.9-0.7-1.3-0.9
	c0.9-1.5,1.6-3.5,2-6.2l0.7-4.5l5-1.3c-0.1-0.4-0.1-0.7-0.3-0.8l2.2-1.1c0.1,0.3,0.1,0.7,0.4,1.3l4.3-1.1l-0.3,1.6L41.7,19.6z
	 M37.8,21.2l-5.7,1.3v0.8l4.3-1.1l-0.8,4.6l-4.3,1.1l-0.1,0.7l4.7-1.2l-0.1,1.1l-4.7,1.2l-0.2,0.6l5.5-1.5L36.3,30l-12.8,3.4
	l0.1-1.2l5.5-1.5l0.1-0.7l-4.7,1.2l0.1-1.1l4.7-1.2l0.1-0.7l-4.2,1.2l0.8-4.6l4.2-1.1l0.1-0.7l-5.5,1.5l0.1-1.2l5.5-1.5l0.1-0.7
	l-4.2,1.4c0-0.4,0-0.7,0-1.1c3.6-0.9,7.3-2,10.8-3.1c0,0,0,0.4,0,1.2l-4.6,1.3l-0.1,0.7l5.5-1.5L37.8,21.2z M27.3,27.9l2.6-0.7
	l0.1-0.7l-2.6,0.7L27.3,27.9z M27.5,25.6l-0.1,0.7l2.6-0.7l0.1-0.7L27.5,25.6z M31.5,26.8l2.7-0.7l0.1-0.7l-2.7,0.7L31.5,26.8z
	 M31.7,25.2l2.7-0.7l0.1-0.7l-2.7,0.7L31.7,25.2z M38.6,47.7c0.8,2.3,1.5,4.6,2,7c-0.8,0.5-1.6,1.1-2.7,1.9
	c-1.8,1.2-2.4,1.6-2.3,1.3c-0.4-2.6-0.9-5-1.6-7.4L38.6,47.7z M63.3,65.9c0.3-0.5,0.7-0.9,1.1-1.5c0.4-0.4,0.8-0.8,1.3-1.1
	c0.5-0.4,1.2-0.7,2-0.8c1.3-0.3,2.3-0.1,3,0.4c0.7,0.7,0.8,1.8,0.7,3.1c-0.3,1.5-0.8,2.7-1.8,3.8c-0.9,1.1-2,1.8-3.4,2
	s-2.3,0.1-3-0.4c-0.7-0.7-0.8-1.6-0.7-3.1C62.6,67.5,62.9,66.7,63.3,65.9z M64.6,70.1c0.4,0.4,0.9,0.5,1.6,0.4s1.3-0.5,1.9-1.2
	c0.5-0.7,0.9-1.5,1.1-2.6c0.1-1.1,0.1-1.8-0.3-2.2c-0.4-0.4-0.9-0.5-1.6-0.3c-0.8,0.1-1.3,0.5-1.9,1.2c-0.5,0.7-0.9,1.5-1.1,2.6
	C64.2,68.9,64.2,69.6,64.6,70.1z M79.1,43.9c-0.8,0.5-1.6,1.1-2.7,1.9c-1.8,1.2-2.4,1.6-2.3,1.3c-0.4-2.6-0.9-5-1.6-7.4l4.7-3
	C78,39.2,78.7,41.5,79.1,43.9z M72.7,61.5l7.2-1.8l-0.3,1.5l-2.7,0.7l-1.2,7.6l-1.8,0.4l1.2-7.6L72.4,63L72.7,61.5z M80.6,59.4
	l7.2-1.8l-0.3,1.5l-2.7,0.7l-1.2,7.6l-1.8,0.4l1.2-7.6l-2.7,0.7L80.6,59.4z M95.5,55.7l-0.3,1.5l-4.9,1.2l-0.3,2.2l4.5-1.1L94.1,61
	l-4.3,1.1l-0.4,2.4l5-1.2l-0.3,1.5l-6.7,1.8l1.5-9L95.5,55.7z M101.2,54.3c0.9-0.3,1.6-0.3,2-0.3s0.7,0.3,0.9,0.7
	c0.1,0.4,0.3,0.8,0.1,1.3c-0.1,0.7-0.4,1.3-0.8,1.9s-1.1,0.9-1.9,1.2c0.4,0.1,0.7,0.3,0.8,0.5c0.3,0.3,0.5,0.7,0.8,1.2l0.8,1.5
	l-2.2,0.5l-0.9-1.8c-0.4-0.5-0.5-0.9-0.7-1.1c-0.1-0.1-0.3-0.3-0.5-0.3c-0.1,0-0.5,0-0.9,0.1l-0.4,0.1l-0.7,3.8L95.8,64l1.5-9
	L101.2,54.3z M100,58.4c0.8-0.3,1.3-0.4,1.6-0.5c0.3-0.1,0.4-0.3,0.5-0.5c0.1-0.3,0.3-0.4,0.3-0.7s0-0.5-0.1-0.7s-0.4-0.3-0.7-0.1
	c-0.1,0-0.5,0.1-1.3,0.3l-1.3,0.4l-0.4,2.3L100,58.4z M107.8,52.7l1.5,3.1l2.7-4l2-0.5l-4.2,6.1l-0.7,3.8l-1.8,0.4l0.7-3.8l-2.4-4.5
	L107.8,52.7z M111.2,47c-0.8-1.1-1.8-1.8-2.8-2.3c7.4-4.2,12.8-9.2,16.1-15c0.7,0.4,1.9,1.2,3.6,2.4c-5,5.8-10.5,10.9-16.6,15.1
	C111.3,47.4,111.2,47.3,111.2,47z M116.6,35.3c-1.2-0.9-2.4-1.6-3.6-2c3.9-2.8,8.1-7.2,12.3-12.8c2,1.3,3.2,2.2,3.4,2.6
	c-0.1,0.1-0.3,0.3-0.3,0.3c-0.3,0.3-1.3,1.3-3.1,3.4C122.8,29.3,120,32.3,116.6,35.3z"/>
</svg>
