<?xml version="1.0" encoding="utf-8"?>
<!-- Generator: Adobe Illustrator 19.1.0, SVG Export Plug-In . SVG Version: 6.00 Build 0)  -->
<svg version="1.1" id="图层_1" xmlns="http://www.w3.org/2000/svg" xmlns:xlink="http://www.w3.org/1999/xlink" x="0px" y="0px"
	 viewBox="-2 7.1 79.4 70.9" style="enable-background:new -2 7.1 79.4 70.9;" xml:space="preserve">
<style type="text/css">
	.st0{fill:#FFFFFF;}
</style>
<polygon class="st0" points="4.8,20.8 5.3,22.4 7.1,22.3 5.5,24.2 5.4,26.1 3.9,25.6 2.1,27 2.8,24.9 1.7,23.7 3.7,22.9 "/>
<polygon class="st0" points="19.1,16.3 19.6,17.9 21.4,17.8 19.8,19.6 19.7,21.6 18.2,21.1 16.4,22.4 17.1,20.3 16,19.1 17.8,18.4 
	"/>
<path class="st0" d="M12.9,21.5c-0.2,1-1.1,1.8-2,2s-1.4-0.4-1.1-1.4c0.2-1,1.1-1.8,2-2S13,20.6,12.9,21.5z"/>
<path class="st0" d="M19.6,37.5c1.8-3.9,4.2-6.7,6.9-7.9c3-0.7,3.8,0.9,2.6,4.6c-1.4,4.3-5.7,7.6-12.9,10l-3,8.1
	c6.9-2.1,9.6-0.7,8,4.2c-1.7,4.2-4.2,6.9-7.4,8.1C11,65,10.2,63,11.6,58.7L0.9,61.8c-3.6,10.1-0.2,13.8,9.9,10.9
	c10.1-3.6,17-9.5,20.7-17.9c2.6-7.3,1.2-10.7-3.9-10.5c5.8-2.6,10-7.4,12.6-14.4c2.1-7.4-1.6-10.2-10.7-8.5
	C19.6,24.6,12.7,31,8.9,40.8L19.6,37.5L19.6,37.5z"/>
<path class="st0" d="M58.9,12.8l-15.3,4.3L25.5,68.2l15.9-4.6c15.3-4.6,26-15.3,32.2-32.1C79.4,14.7,74.4,8.4,58.9,12.8L58.9,12.8z
	 M50.9,23.8l4.4-1.2c8.5-2.8,10.7,1.4,6.8,12.5c-3.7,10.7-9.7,17.3-18.3,19.4l-4.2,1.2L50.9,23.8L50.9,23.8z"/>
</svg>
