<?xml version="1.0" encoding="utf-8"?>
<!-- Generator: Adobe Illustrator 19.1.0, SVG Export Plug-In . SVG Version: 6.00 Build 0)  -->
<svg version="1.1" id="图层_1" xmlns="http://www.w3.org/2000/svg" xmlns:xlink="http://www.w3.org/1999/xlink" x="0px" y="0px"
	 viewBox="15 7.1 116.2 70.9" style="enable-background:new 15 7.1 116.2 70.9;" xml:space="preserve">
<style type="text/css">
	.st0{fill:#FFFFFF;}
</style>
<g>
	<polygon class="st0" points="41.4,29.3 40,35.8 42.9,34.9 35.7,71.5 51,67.3 58.9,23.1 	"/>
	<polygon class="st0" points="39.6,18.6 22.3,24.7 20.8,31.1 23.7,30.4 16.6,67 31.7,62.7 	"/>
	<polygon class="st0" points="67.1,37.3 59.9,39.4 58.3,48 65.4,45.9 	"/>
	<polygon class="st0" points="84,65.8 84.9,61.3 61.4,68 64.9,49.3 57.6,51.3 53.3,74.6 	"/>
	<path class="st0" d="M128.8,14l-29.8,8.4c-0.1,0-0.3,0.1-0.4,0.4l-6,22.8c-0.1,0.4,0.3,0.8,0.6,0.6l9.5-2.6
		c0.5-0.8,1.2-1.6,1.9-2.2c1-0.9,2.3-1.7,3.8-2.1c2.1-0.6,3.4-0.3,4.1,1c0.6,1.3,0.8,3.4,0.3,6.1c-0.4,2.5-1.2,4.5-2.3,6.1
		c-0.3,0.4-0.5,0.6-0.8,0.9c0,0-0.1,0.1-0.3,0.3c-1.9,1.4-3.8,2.1-5.3,1.8c-0.5-0.1-1-0.3-1.6-0.5c-0.3-0.1-0.5-0.4-0.6-0.8l0,0
		c-1.2-1.8-0.4-4.8-0.3-5.4l-19.1,5.4l0.9-4.5l4-1.2l0.8-4.3l-7,2.1l1-5.3l7-2.1l0.8-3.8l-7.4,2.3l0.9-4.8l-5.7,1.7l-0.9,4.8l-4,1.2
		l0.9-4.8l-5,1.4l-1.6,8.5l9.1-2.6l-1,5.3l-9.1,2.6l-0.8,4.4l3.8-1.2l-1,5.7l-3.6,1l-0.8,4.1l9.1-2.6l1.8-9.8L79,51l-1.8,9.8
		l12.2-3.2c0.4-0.1,0.6,0.1,0.6,0.5c0,2.8,1.2,4.8,3.6,6.1c3,1.6,6.7,1.7,11.1,0.5c5.8-1.7,10.4-4.4,13.5-8.2s5.2-8.2,6.1-13.2
		c0.9-5.3,0.4-9.2-1.6-11.4c-1.9-2.2-5-2.7-9.6-1.3c-1.7,0.5-3.2,1.2-4.7,1.9c-0.9,0.5-1.7,1-2.5,1.6c-0.4,0.3-0.9-0.1-0.8-0.5
		l1.3-4.4c0-0.1,0.1-0.3,0.4-0.4l21.2-6c0.1,0,0.4-0.3,0.4-0.4l1.3-7.8C129.6,14.3,129.2,14,128.8,14z"/>
</g>
<path class="st0" d="M95.4,10.5L95,12.6l-9.2,2.7c-0.8,1.2-1.6,2.3-2.6,3.6l3.4-1l0.4-2.2l2.3-0.6L89,17.2l5-1.6l-0.4,2.1l-5,1.6
	L88,22.9c-0.1,0.8-0.4,1.4-0.8,1.9s-0.9,0.9-1.6,1.2s-1.6,0.6-3,1c0-0.5,0-1.3-0.1-2.2c0.8-0.1,1.6-0.4,2.1-0.5
	c0.6-0.1,0.9-0.6,1-1.2l0.5-3.1L80,21.8l0.4-2.2c0.9-1.2,1.8-2.3,2.6-3.5L79.9,17l0.4-2.1l4.3-1.3c0.5-0.8,0.9-1.6,1.3-2.2l2.5-0.5
	c-0.4,0.6-0.8,1.3-1.2,1.9L95.4,10.5z M67.7,20.6l-0.5,3.1c-0.6,3.8-1.8,6.7-3.5,8.9c0,0-0.5-0.4-1.6-1c1.4-1.8,2.3-4.3,2.8-7.5
	l0.8-4.9l5.7-1.7c-0.1-0.4-0.3-0.8-0.3-1.3l2.6-1.3c0.1,0.5,0.3,1.2,0.4,1.7l5.3-1.6l-0.3,2.2L67.7,20.6z M84.2,22.2
	c-1.6,1.8-3,3.5-4.5,5c-0.4-0.4-0.9-0.8-1.4-1.2c1.4-1.4,2.8-3,4.3-4.7C83.5,21.9,84.2,22.2,84.2,22.2z M94.1,21l-1.9,2.2
	c-0.9-0.8-1.9-1.4-3.1-2.2l1.7-1.9L94.1,21z"/>
</svg>
