<?xml version="1.0" encoding="utf-8"?>
<!-- Generator: Adobe Illustrator 19.1.0, SVG Export Plug-In . SVG Version: 6.00 Build 0)  -->
<svg version="1.1" id="图层_1" xmlns="http://www.w3.org/2000/svg" xmlns:xlink="http://www.w3.org/1999/xlink" x="0px" y="0px"
	 viewBox="15 7.1 116.2 70.9" style="enable-background:new 15 7.1 116.2 70.9;" xml:space="preserve">
<style type="text/css">
	.st0{fill:#FFFFFF;}
</style>
<path class="st0" d="M118.7,24.9c-0.1,0-0.1,0-0.3-0.1c-1.1-0.5-2-1.1-3.1-1.3c4.2-3.6,7.7-8,10.4-13.2c0.9,0.3,2.3,0.8,4.2,1.6
	C125.8,17.1,122.2,21.4,118.7,24.9z M97.8,19.5c8.5-2.4,14.6-5,17.8-7.4c0.3-0.1,0.4-0.3,0.4-0.3c1.6,1.8,2.6,3.1,2.8,4
	c-7.6,3-14,5.4-19.7,7.6C98.8,22,98.4,20.7,97.8,19.5z M99.4,30c-0.5-2.2-1.1-3.6-1.3-4.6c1.3-0.8,2.7-1.6,3.9-2.4
	c0.8,2.3,1.3,4,1.6,5.3c-1.3,0.8-2.7,1.6-3.9,2.3C99.5,30.3,99.4,30.2,99.4,30z M109,20.6c0.1,2,0.3,3.9,0.3,5.5
	c-0.5,0.1-1.3,0.4-2.2,0.7c-0.9,0.4-1.6,0.7-2.2,0.7c0.1-2.4,0.1-4.3-0.1-5.5L109,20.6z M113.4,18.7c1.8,0.1,3.1,0.4,4,0.4
	c0,0.1-0.4,0.7-0.9,1.8c-1.3,2.3-2.7,4.3-3.9,6.5c-1.1-0.1-2.2-0.1-3.2-0.1c0.1-0.4,0.4-0.9,0.7-1.5
	C111.8,22.2,112.9,19.9,113.4,18.7z M104.1,28.8c1.5-0.3,2.7-0.5,3.5-0.8c0.8-0.1,1.2-0.1,1.3-0.1c0,0.3-0.1,0.4-0.3,0.7
	c-0.1,0.3-0.3,0.7-0.3,0.9l7.1-2l-0.7,3.9l-7.3,2.2l-0.4,2.7l2.7-2.3c1.2,1.3,2.7,2.8,4.3,4.7c-1.3,1.1-2.7,2.3-4,3.8
	c-0.9-1.3-2-2.7-3.4-4l-1.4,10.4l-4.4,1.2l1.5-9.4c-2,3-4.4,5.5-7,7.8c-1.1-0.8-2-1.3-2.8-1.9c4.2-3.9,7.1-7.7,9.2-11.6l-6.7,1.9
	l0.7-3.9l8.4-2.3L104.1,28.8z M91,31.4l-4.4,1.2l-3,18.3c-0.1,2.7-3.1,4.9-8.8,6.6c-0.1-2-0.4-3.5-0.5-4.4c3.1-0.8,4.6-1.6,4.7-2.6
	l2.7-16.6l-10.2,2.8l-3,18.3l-4.6,1.3l0.4-2.2l-4.6,1.3l-0.4,2.7L55,59.3l4.4-27.8L73,27.7l-0.9,4.7l10.2-2.8l1.2-8l2-0.5
	c1.3-0.4,2.2-0.5,2.3-0.5c0.4-0.1,0.7-0.1,0.8-0.1c0,0.1-0.1,0.3-0.3,0.5c-0.4,0.9-0.5,2-0.8,3l-0.7,4.3l4.4-1.2L91,31.4z
	 M60.3,51.8l4.4-1.2l1.2-7.3l-4.4,1.2L60.3,51.8z M63.1,34.4l-0.9,6.2l4.6-1.3l0.9-6.2L63.1,34.4z M57.6,65.4l-1.2,7.5l4.4-1.1
	l-0.3,1.5l-6.3,1.6l1.5-9L57.6,65.4z M48,43.4l-3,18.3c-0.1,2.7-3.1,4.9-8.8,6.6c-0.1-2-0.4-3.5-0.5-4.4c3.1-0.8,4.6-1.6,4.7-2.6
	l2.7-16.6l-10.2,2.8l-3,18.2L25.3,67l0.4-2.2l-4.6,1.3l-0.4,2.4l-4.3,1.2l4.4-27.8l13.6-3.8L33.5,43l10.2-2.8l1.2-8l2-0.5
	c1.3-0.4,2.2-0.5,2.3-0.5c0.4-0.1,0.7-0.1,0.8-0.1c0,0.1-0.1,0.3-0.3,0.5c-0.4,0.9-0.5,2-0.8,3l-0.7,4.3l4.4-1.2l-0.7,4.4L48,43.4z
	 M21.9,62.4l4.4-1.2l1.2-7.3l-4.4,1.2L21.9,62.4z M24.6,45.1l-0.9,6.2l4.6-1.3l0.9-6.2L24.6,45.1z M38.6,47.8c0.8,2.3,1.5,4.6,2,7
	c-0.8,0.5-1.6,1.1-2.7,1.9c-1.8,1.2-2.4,1.6-2.3,1.3c-0.4-2.6-0.9-5-1.6-7.4L38.6,47.8z M63.3,66c0.3-0.5,0.7-0.9,1.1-1.5
	c0.4-0.4,0.8-0.8,1.3-1.1c0.5-0.4,1.2-0.7,2-0.8c1.3-0.3,2.3-0.1,3,0.4c0.7,0.7,0.8,1.8,0.7,3.1c-0.3,1.5-0.8,2.7-1.8,3.8
	c-0.9,1.1-2,1.8-3.4,2c-1.3,0.3-2.3,0.1-3-0.4c-0.7-0.7-0.8-1.6-0.7-3.1C62.6,67.7,62.9,66.9,63.3,66z M64.6,70.2
	c0.4,0.4,0.9,0.5,1.6,0.4s1.3-0.5,1.9-1.2c0.5-0.7,0.9-1.5,1.1-2.6c0.1-1.1,0.1-1.8-0.3-2.2c-0.4-0.4-0.9-0.5-1.6-0.3
	c-0.8,0.1-1.3,0.5-1.9,1.2c-0.5,0.7-0.9,1.5-1.1,2.6C64.2,69,64.2,69.7,64.6,70.2z M79,44.1c-0.8,0.5-1.6,1.1-2.7,1.9
	c-1.8,1.2-2.4,1.6-2.3,1.3c-0.4-2.6-0.9-5-1.6-7.4l4.7-3C78,39.3,78.6,41.6,79,44.1z M72.7,61.6l7.1-1.8l-0.3,1.5L76.8,62l-1.2,7.6
	L73.8,70l1.2-7.6l-2.7,0.7L72.7,61.6z M80.5,59.6l7.1-1.8l-0.3,1.5L84.6,60l-1.2,7.6L81.6,68l1.2-7.6l-2.7,0.7L80.5,59.6z
	 M95.5,55.8l-0.3,1.5l-4.9,1.2l-0.3,2.2l4.4-1.1l-0.3,1.5l-4.3,1.1l-0.4,2.4l5-1.2L94,64.9l-6.7,1.8l1.5-9L95.5,55.8z M101.1,54.4
	c0.9-0.3,1.6-0.3,2-0.3s0.7,0.3,0.9,0.7c0.1,0.4,0.3,0.8,0.1,1.3c-0.1,0.7-0.4,1.3-0.8,1.9c-0.4,0.5-1.1,0.9-1.9,1.2
	c0.4,0.1,0.7,0.3,0.8,0.5c0.3,0.3,0.5,0.7,0.8,1.2l0.8,1.5l-2.2,0.5l-0.9-1.8c-0.4-0.5-0.5-0.9-0.7-1.1c-0.1-0.1-0.3-0.3-0.5-0.3
	c-0.1,0-0.5,0-0.9,0.1l-0.4,0.1l-0.7,3.8l-1.8,0.4l1.5-9L101.1,54.4z M99.9,58.5c0.8-0.3,1.3-0.4,1.6-0.5s0.4-0.3,0.5-0.5
	c0.1-0.3,0.3-0.4,0.3-0.7s0-0.5-0.1-0.7c-0.1-0.1-0.4-0.3-0.7-0.1c-0.1,0-0.5,0.1-1.3,0.3l-1.3,0.4L98.5,59L99.9,58.5z M107.7,52.8
	l1.5,3.1l2.7-4l2-0.5l-4.2,6.1l-0.7,3.8l-1.8,0.4l0.7-3.8l-2.4-4.4L107.7,52.8z M111.1,47.2c-0.8-1.1-1.8-1.8-2.8-2.3
	c7.4-4.2,12.8-9.2,16-15c0.7,0.4,1.9,1.2,3.6,2.4c-5,5.8-10.5,10.9-16.6,15.1C111.3,47.6,111.1,47.4,111.1,47.2z M116.5,35.4
	c-1.2-0.9-2.4-1.6-3.6-2c3.9-2.8,8.1-7.1,12.3-12.8c2,1.3,3.2,2.2,3.4,2.6c-0.1,0.1-0.3,0.3-0.3,0.3c-0.3,0.3-1.3,1.3-3.1,3.4
	C122.7,29.5,119.9,32.5,116.5,35.4z"/>
<path class="st0" d="M63.7,13.6l-3.1,0.8L59.3,22l3.5-0.9l-0.3,1.8l-9,2.4l0.3-1.8l3.5-0.9l1.2-7.6l-2.8,0.8L56,14l7.8-2L63.7,13.6z
	 M52.3,15.3l1.3-1.5c0.8,0.4,1.5,0.8,2,1.2l-1.5,1.6C53.7,16.3,53,15.8,52.3,15.3z M54.8,18.4l-1.5,1.8c-0.5-0.4-1.2-0.9-2-1.3
	l1.3-1.6C53.4,17.6,54.1,18,54.8,18.4z M50.3,18.4l-4.6,1.2l-0.5,3.1c1.3-1.2,2.4-2.4,3.4-3.6l1.2,0.7c-1.3,1.8-3,3.4-4.9,5.1
	l-0.1,0.5c-0.1,0.5,0.1,0.7,0.5,0.5l1.3-0.4c0.3-0.1,0.5-0.3,0.8-0.5c0.3-0.3,0.5-1.2,0.9-2.7c0.5,0.1,0.9,0.1,1.5,0.1
	c-0.4,1.3-0.7,2.3-0.9,2.8c-0.3,0.5-0.5,0.8-0.9,1.2c-0.4,0.3-0.9,0.5-1.5,0.7l-2,0.5c-1.1,0.3-1.6-0.1-1.5-1.2
	c-0.7,0.5-1.5,1.1-2.2,1.8c-0.3-0.4-0.5-0.8-0.7-1.1c-0.7,0.9-1.5,1.9-2.3,2.8c-0.3-0.4-0.7-0.8-0.9-1.1c2.3-2.3,3.6-4.9,4.3-7.7
	l-2.8,0.8l0.3-1.6l3-0.8c0.1-0.7,0.3-1.5,0.4-2.4l1.6-0.4c-0.1,0.8-0.3,1.6-0.4,2.4l3.9-1.1c-0.4-0.3-0.9-0.5-1.3-0.8l1.2-1.5
	l1.9,0.9l-1,1.3l2.8-0.7L50.3,18.4z M42.8,20.5c-0.5,2.6-1.3,4.7-2.6,6.3c1.1-0.8,2.2-1.6,3.1-2.3l0.7-4.3L42.8,20.5z M31.3,24.9
	l-0.1,0.7l4.7-1.2l-0.3,1.3l-4.7,1.2l-0.1,0.8l5.4-1.3l-0.3,1.3l-1.3,0.4c0.4,0.5,0.7,1.2,0.9,1.8l-1.5,1c-0.3-0.7-0.5-1.2-0.9-1.9
	l1.5-0.9l-9.4,2.4l1.3,0.3c-0.5,0.9-1.1,1.9-1.8,2.7L23.3,33c0.5-0.7,1.1-1.6,1.6-2.4l-1.1,0.3l0.3-1.3l5.4-1.5l0.1-0.8l-4.7,1.2
	l0.3-1.3l4.7-1.2l0.1-0.7l-4.6,1.2l0.8-5l10.7-2.8l-0.8,5L31.3,24.9z M28.9,22c0.4,0.3,0.7,0.7,1.1,1.1c-0.4,0.4-0.9,0.8-1.3,1.2
	c-0.3-0.5-0.7-0.9-0.9-1.2L28.9,22l-1.2,0.3l-0.4,2.4l2.8-0.8l0.4-2.4L28.9,22z M33.5,20.7l1.1,0.5c-0.5,0.7-1.1,1.2-1.6,1.9
	l-0.9-0.5C32.5,22,32.9,21.4,33.5,20.7L32,21.1l-0.4,2.4l2.8-0.8l0.4-2.4L33.5,20.7z M29.3,31.5l-1.6,0.9c-0.1-0.7-0.3-1.2-0.5-1.9
	l1.6-0.9C29,30.4,29.1,31,29.3,31.5z M32.4,30.6l-1.6,1.1c-0.1-0.7-0.4-1.2-0.7-1.8l1.6-0.9C32,29.5,32.2,30,32.4,30.6z M54.2,21
	c-0.5,1.3-1.2,3-2,5.1L50.4,26c0.8-2,1.6-3.6,2.2-5.1C53.1,21,53.7,21,54.2,21z"/>
</svg>
