<?xml version="1.0" encoding="utf-8"?>
<!-- Generator: Adobe Illustrator 19.1.0, SVG Export Plug-In . SVG Version: 6.00 Build 0)  -->
<svg version="1.1" id="图层_1" xmlns="http://www.w3.org/2000/svg" xmlns:xlink="http://www.w3.org/1999/xlink" x="0px" y="0px"
	 viewBox="15 7.1 116.2 70.9" style="enable-background:new 15 7.1 116.2 70.9;" xml:space="preserve">
<style type="text/css">
	.st0{fill:#FFFFFF;}
</style>
<path class="st0" d="M129.7,21.1c-0.4,2.5-1.5,5-3.3,7.3c-1.8,2.5-4,4.7-6.8,6.5c2.6,0.3,4.7,1.2,5.8,2.9c1.2,1.7,1.5,4.2,1.1,7.2
	c-0.8,5-3.3,9.4-7.5,13.3s-9.1,6.6-15,8.3c-5,1.4-9.1,1.2-12.5-0.4s-4.4-5-3.5-10.1l0.1-0.3l12-3.3c-0.3,1.8,0.1,3,1.1,3.9
	c1,0.8,2.5,1,4.3,0.4c2.2-0.6,4.2-1.8,5.8-3.5c1.7-1.7,2.6-3.5,2.9-5.3c0.4-2.6,0-4.4-1.1-5.1c-1.1-0.8-2.9-1-5.4-0.3l-5.8,1.7
	l1.5-9.4l5.8-1.4c2.2-0.6,4-1.7,5.4-3.2s2.2-3.5,2.6-5.5c0.3-1.7-0.1-2.9-1.1-3.7c-1-0.8-2.6-1-4.6-0.4c-1.5,0.4-2.9,1.2-4.2,2.5
	c-1.2,1.2-1.9,2.6-2.2,4.2l-11.9,3.3v-0.1c0.6-4.3,2.8-8.3,6.6-11.9c3.9-3.6,8.3-6.1,13.3-7.5c5.8-1.7,10.1-1.5,13.2,0.1
	C129.4,12.8,130.5,16.1,129.7,21.1z M90.4,46.7l-6.8,1.9c0.1,2.5,2.2,4,6.1,4.4c-1.1,1-2.1,2.2-3.2,4c-2.8-0.4-4.6-2.1-5.4-4.8
	c-1.9,3.3-4.4,6.4-7.5,9c-0.6-0.8-1.2-1.4-1.9-1.7l-0.6,1.7L68.2,62L71,44.3c-0.6,2.2-1.4,4.6-2.4,7.2l-3,0.3c1-2.6,1.9-5.5,2.6-8.4
	l2.9-0.3l1-5.8l1.5-0.4c1.1-0.3,1.7-0.4,1.5-0.1c0,0.1,0,0.1-0.1,0.4c0,0.1-0.1,0.6-0.1,1.1l-0.7,4.2c0.3-0.1,0.7-0.4,1.2-0.8
	c0.4-0.3,0.7-0.6,0.8-0.7c0.6,1.5,1,3.2,1.4,4.8l-2.9,1.8c-0.3-1.4-0.6-2.5-0.8-3.3l-2.4,14.4c3.5-2.5,5.8-5.4,7.2-8.6l-4.3,1.2
	l0.4-3l4.7-1.2c0.1-0.6,0.3-1.1,0.4-1.7l0.6-3.6l-3.2,0.8l0.4-3l3.2-0.8l0.7-4.4l2.5-0.7c0.8-0.3,1.2-0.3,1.2,0
	c0,0.1-0.1,0.3-0.1,0.4c-0.1,0.4-0.3,0.8-0.3,1.4l-0.4,2.4l5.3-1.5l-1.2,8l2.4-0.7L90.4,46.7z M83.9,40.6l-0.6,3.6
	c0,0.3-0.1,0.6-0.1,0.8c0,0.3,0,0.6,0,0.6l1.9-0.6l0.8-5.1L83.9,40.6z M66.7,44.1l-5.8,1.7l-0.4,2.5l-3.3,1l0.4-2.5l-5.4,1.5
	l-0.5,2.6l-3.2,0.8l0.4-2.6l-5.4,1.5l0.4-2.8l5.4-1.5l0.4-2.6l1.2-0.4c1.5-0.4,2.2-0.6,2.2-0.3c0,0.1-0.1,0.4-0.3,0.7
	c-0.1,0.3-0.1,0.6-0.3,0.8v0.8l5.3-1.5l0.4-2.6l1.2-0.4c1.7-0.4,2.5-0.6,2.2-0.3c0,0.1-0.1,0.4-0.3,0.7c0.1,0.4,0.1,0.7,0,0.8
	l-0.1,0.8l5.8-1.7L66.7,44.1z M36.4,52.7l-2.2,14.1l6.4-1.8L40,68.2l-16.6,4.7l0.4-3l6.8-1.9l2.2-14.1l-5.3,1.5l0.4-3l14-3.9l-0.4,3
	L36.4,52.7z M21.3,54.1l3.2-3.3c0.8,0.7,1.8,1.7,2.9,2.8c0.1,0.1,0.3,0.1,0.4,0.1L24.9,57C23.2,55.7,22.1,54.7,21.3,54.1z
	 M22.5,62.9c-1.4-0.6-2.9-1.1-4.4-1.4l2.5-3.9c1.2,0.4,2.6,1,4.4,1.7L22.5,62.9z M24.6,64.9c-1.1,2.2-2.2,4.4-3.3,6.6
	c-0.7,1.5-1.2,2.8-1.7,3.6c-0.8-0.1-1.8-0.7-3-1.4c2.4-3.6,4.2-6.9,5.3-10C22.7,64.4,23.6,64.7,24.6,64.9z M48.4,58.5
	c-1.5,2.4-3.3,4.7-5.3,6.8c-0.8-0.3-1.5-0.6-2.4-0.8c1.5-1.5,3-3.6,4.6-6.2C46.3,58.2,47.3,58.3,48.4,58.5z M44.8,57.2l0.4-2.9
	l7.2-1.9l0.6-3.2c0.6-0.1,1.2-0.3,2.1-0.6c1.1-0.3,1.7-0.3,1.7,0s-0.1,0.6-0.3,0.8c-0.3,0.7-0.4,1.4-0.7,2.1l5.5-1.5l-0.7,4.2
	l1.9-1.7c0.8,0.8,1.9,2.4,3.2,4.3c-1.1,1.1-2.1,1.9-3.3,2.9c0,0-0.1-0.1-0.1-0.3c-0.7-1.5-1.5-2.6-2.1-3.2c0,0.4-0.1,0.8-0.1,1.1
	c-0.4,3.5-1.1,5.5-1.7,6.1c-0.7,0.7-1.4,1.2-2.2,1.7c-0.7,0.4-1.9,0.8-3.7,1.4c0.1-1.5,0-2.6-0.6-3.2c2.8-0.6,4.2-1.2,4-2.2
	c0.1-0.7,0.4-1.7,0.6-2.8c0.1-1.2,0.4-2.6,0.7-4.2L55,54.2c-1.7,5.8-5,10.5-10.1,14.4c-0.8-0.6-1.8-1.1-2.6-1.4
	c4.8-3,7.9-7.1,9.4-12L44.8,57.2z"/>
<polygon class="st0" points="24.2,40.9 24.8,42.8 26.8,42.6 24.9,44.6 24.9,47 23.1,46.3 21,48 21.8,45.5 20.6,44.2 22.8,43.3 "/>
<polygon class="st0" points="40.3,35.8 40.7,37.7 42.7,37.4 40.9,39.5 40.8,41.9 39.1,41.2 37.1,42.8 37.9,40.3 36.7,39.1 
	38.9,38.1 "/>
<path class="st0" d="M33.2,41.7c-0.3,1.1-1.2,2.1-2.2,2.2c-1,0.1-1.5-0.4-1.2-1.5s1.2-2.1,2.2-2.2C32.9,39.9,33.5,40.6,33.2,41.7z"
	/>
</svg>
