<?xml version="1.0" encoding="utf-8"?>
<!-- Generator: Adobe Illustrator 19.1.0, SVG Export Plug-In . SVG Version: 6.00 Build 0)  -->
<svg version="1.1" id="图层_1" xmlns="http://www.w3.org/2000/svg" xmlns:xlink="http://www.w3.org/1999/xlink" x="0px" y="0px"
	 viewBox="7 7.1 99.2 70.9" style="enable-background:new 7 7.1 99.2 70.9;" xml:space="preserve">
<style type="text/css">
	.st0{fill:#FFFFFF;}
</style>
<path class="st0" d="M96.3,21.1l-1.5,9.1l-4.4,1.2l-0.6,3.8L79.4,38l-0.6,4.1l11.4-3.2l-0.7,4.6l-3.3,0.9c1.5,1.5,2.2,2.6,2.5,3
	c-1.5,1.6-2.8,2.8-4.1,3.8l7.8-2.1l-0.7,4.6l-36.1,10l0.7-4.6l15.1-4.2l1.1-6.7l-10.6,3l0.7-4.6l10.6-3l0.6-4.1l-10.2,2.8l0.6-3.7
	l-4.3,1.2l1.5-9.3l14.8-4.1c-0.1-0.7-0.2-2.1-0.6-4l1.5-0.4c2.7-1.1,4.6-1.9,5.6-2.2c0,1,0,2.6-0.4,4.9L96.3,21.1z M83.6,51.6
	c-0.6-0.7-1.4-1.6-2.3-2.5c-0.6-0.7-0.9-1.2-0.9-1.4c1.1-0.7,2.1-1.6,3.1-2.6l-5.6,1.6l-1.1,6.8L83.6,51.6z M65.8,34.1l-0.6,3.7
	L89.3,31l0.6-3.7L65.8,34.1z M51.1,38.1l3.6-1c-0.1,0.2-0.4,0.6-0.5,1.1c-0.5,1.5-0.9,2.6-1,3.5l-5.4,1.5c-2,0.6-2.8,0-2.3-2.1
	l1.1-6.5L44,35.3l-0.2,1.2c-0.7,4.1-2.5,7.5-5.1,10.6c-0.7-0.4-1.6-0.7-2.3-1.1L36,48.5l15.2-4.2c-1.5,5.3-3.6,10.1-6.4,14.3
	c2,1.9,4.3,2.6,7,2.6c-1.6,2-2.8,3.7-3.7,5.4c-2.3-0.5-4.7-1.6-7.3-3.1c-2.5,2.6-5.1,5.3-8,8c-0.9-1-1.9-1.7-2.8-2.1
	c-0.2,1.9-2.6,3.3-7,4.3c0-1.4-0.1-2.7-0.5-3.8c2.3-0.6,3.6-1.4,3.3-2.2l0.2-1.9l-5.5,1.4l-1.1,7l-4.6,1.2l3.1-19.5l-3,1l1.1-6.8
	l2.3-0.6L20.2,38L36,33.6l-1.9,11.5l1.9-0.5c1.6-2.2,2.7-4.8,3.3-7.7l0.6-4.2l11.7-3.2l-1.2,7.9C50.1,38.3,50.4,38.5,51.1,38.1z
	 M42.1,55.9c1-1.7,1.9-3.7,2.7-6.1l-4.1,1.1C40.9,53.2,41.3,54.8,42.1,55.9z M27.6,55.4L22,56.9l-0.4,2l5.4-1.5L27.6,55.4z
	 M26.4,62.7l0.4-2.2L21.3,62L21,64.2L26.4,62.7z M22.3,48.2l2.1-0.6l0.4-2.3l-2.1,0.6L22.3,48.2z M23.7,40.7l-0.2,1.7l5.9-1.6
	l-1,5.9l1.5-0.4l1.2-7.5L23.7,40.7z M19.7,52.5l-0.2,1.9l11.7-3.2l0.2-1.9L19.7,52.5z M32.6,52L30,68.5c2.6-1.6,5.3-4.2,8.4-7.9
	c-1.2-2.5-2-5.2-2.5-8.1l-1.1,0.4l0.2-1.4L32.6,52z M37.4,18.6l-3.1,0.9l-0.1,1.1l-1.9,0.5l0.1-1.1l-3.7,1l-0.1,1.1l-1.9,0.5
	l0.1-1.1l-3,0.9l0.1-1.7l3-0.9l0.1-1.2l1.9-0.5l-0.1,1.2l3.7-1l0.1-1.2l1.9-0.5l-0.1,1.2l3.1-0.9L37.4,18.6z M25.3,26l1.4,0.5
	C26,27.7,25.2,29,24.4,30l-1.2-0.7C23.9,28.3,24.6,27.2,25.3,26z M25,32.6c-0.4-0.5-0.9-0.9-1.2-1.2c2.5-2,4-4.2,4.4-6.5l-3.7,1
	l0.1-1.7l4-1.1c0.1-0.4,0.1-0.9,0.1-1.4l1.9-0.5c0,0.5-0.1,0.9-0.1,1.4l4.2-1.1l-0.2,2.3l1.4-0.9c0.4,1,0.7,2.1,1.1,3.3l-1.7,1.1
	c-0.2-1-0.5-2-0.9-3c-0.2,1.9-0.5,3.1-0.6,3.6s-0.5,1.1-1,1.6s-1.2,1-2.3,1.2c-0.5,0.1-1.1,0.2-1.7,0.5c0-0.7,0-1.4,0-2
	c0.7-0.1,1.4-0.2,1.9-0.4c0.4-0.1,0.7-0.2,1-0.6c0.2-0.2,0.4-0.6,0.5-1s0.2-1.6,0.6-3.8L30.5,24C29.5,27.4,27.8,30.2,25,32.6z
	 M19.5,23.5l-0.9,8.4l3.8-1.1l-0.2,1.9l-9.8,2.7l0.2-1.9l3.8-1.1l0.9-8.4l-3.1,1l0.2-1.9l8.5-2.3l-0.2,1.9L19.5,23.5z M10.4,24.6
	l1.4-1.6c0.9,0.5,1.6,0.9,2.2,1.2l-1.4,1.9C12,25.6,11.2,25.1,10.4,24.6z M13.3,28l-1.5,1.9c-0.6-0.5-1.5-1-2.3-1.5l1.4-1.7
	C11.7,27.2,12.6,27.5,13.3,28z M12.8,30.9c-0.5,1.5-1.2,3.3-2,5.7l-1.9-0.1c0.9-2.2,1.5-4.1,2.1-5.7C11.6,30.7,12.2,30.9,12.8,30.9z
	"/>
<path class="st0" d="M104.3,17.3v-5.1c0,0,0-0.1-0.2-0.1L99.9,14c0,0-0.2,0.1-0.2,0.4v5.4c0,0,0,0.2,0.2,0.1l4.2-2.2
	C104.2,17.5,104.3,17.4,104.3,17.3z M102,15.3c-0.1,0.4-0.5,0.7-0.7,0.7s-0.5-0.4-0.4-0.7c0.1-0.4,0.5-0.7,0.7-0.7
	C101.9,14.6,102,14.9,102,15.3z M103.5,16.4c-0.1,0.4-0.5,0.7-0.7,0.7s-0.5-0.4-0.4-0.7c0.1-0.4,0.5-0.7,0.7-0.7
	S103.6,16,103.5,16.4z"/>
<path class="st0" d="M99,13.9L94.8,12c-0.1,0-0.2,0.1-0.2,0.1v5.1c0,0.1,0.1,0.2,0.1,0.2l4.2,2.2c0.2,0.1,0.2-0.1,0.2-0.1v-5.3
	C99.3,14.1,99,13.9,99,13.9z M95.8,17.5c-0.4,0-0.6-0.4-0.7-0.7c-0.1-0.4,0.1-0.7,0.4-0.7c0.2,0,0.6,0.4,0.7,0.7
	C96.3,17.2,96.1,17.5,95.8,17.5z M97,16.5c-0.4,0-0.6-0.4-0.7-0.7c-0.1-0.4,0.1-0.7,0.4-0.7c0.2,0,0.6,0.4,0.7,0.7
	C97.5,16.3,97.3,16.5,97,16.5z M98.4,15.7c-0.4,0-0.6-0.4-0.7-0.7c-0.1-0.4,0.1-0.7,0.4-0.7c0.2,0,0.6,0.4,0.7,0.7
	C98.9,15.3,98.6,15.7,98.4,15.7z"/>
<path class="st0" d="M103.8,11.7c0,0,0.2-0.1,0-0.4l-4.2-1.5c0,0-0.1-0.1-0.2,0l-4.2,1.5c0,0-0.2,0.1-0.1,0.2c0,0,0,0.1,0.1,0.1
	l4.2,1.7c0,0,0.1,0.1,0.4,0L103.8,11.7z M99.4,12c-0.5,0-0.9-0.1-0.9-0.4c0-0.2,0.4-0.4,0.9-0.4s0.9,0.1,0.9,0.4
	C100.2,11.7,99.9,12,99.4,12z"/>
</svg>
