<?xml version="1.0" encoding="utf-8"?>
<!-- Generator: Adobe Illustrator 19.1.0, SVG Export Plug-In . SVG Version: 6.00 Build 0)  -->
<svg version="1.1" id="图层_1" xmlns="http://www.w3.org/2000/svg" xmlns:xlink="http://www.w3.org/1999/xlink" x="0px" y="0px"
	 viewBox="15 7.1 116.2 70.9" style="enable-background:new 15 7.1 116.2 70.9;" xml:space="preserve">
<style type="text/css">
	.st0{fill:#FFFFFF;}
</style>
<g>
	<polygon class="st0" points="41.6,30.3 40.1,36.7 43,35.8 35.9,72.3 51.1,68 58.9,24.1 	"/>
	<polygon class="st0" points="39.8,19.6 22.5,25.7 21.1,32.1 23.9,31.3 16.9,67.7 31.9,63.5 	"/>
	<polygon class="st0" points="67.1,38.3 60,40.3 58.3,48.8 65.4,46.8 	"/>
	<polygon class="st0" points="83.9,66.6 84.8,62.1 61.4,68.8 64.9,50.1 57.7,52.2 53.4,75.3 	"/>
	<path class="st0" d="M128.4,15.1l-29.6,8.4c-0.1,0-0.3,0.1-0.4,0.4l-5.9,22.7c-0.1,0.4,0.3,0.8,0.6,0.6l9.4-2.6
		c0.5-0.8,1.2-1.5,1.9-2.2c1-0.9,2.3-1.7,3.7-2.1c2.1-0.6,3.3-0.3,4.1,1c0.6,1.3,0.8,3.3,0.3,6c-0.4,2.4-1.2,4.5-2.3,6
		c-0.3,0.4-0.5,0.6-0.8,0.9c0,0-0.1,0.1-0.3,0.3c-1.9,1.4-3.7,2.1-5.3,1.8c-0.5-0.1-1-0.3-1.5-0.5c-0.3-0.1-0.5-0.4-0.6-0.8l0,0
		c-1.2-1.8-0.4-4.8-0.3-5.4l-19.2,5.3l0.9-4.5l4-1.2l0.8-4.2l-7,2.1l1-5.3l7-2.1l0.8-3.7l-7.3,2.3l0.9-4.8l-5.7,1.7L76.6,40l-4,1.2
		l0.9-4.8l-5,1.4L67,46.3l9-2.6L75,49l-9,2.6l-0.7,4.3l3.7-1.2l-1,5.7l-3.6,1l-0.8,4.1l9-2.6l1.8-9.8l4.2-1.3l-1.8,9.8l12.1-3.2
		c0.4-0.1,0.6,0.1,0.6,0.5c0,2.8,1.2,4.8,3.6,6c3,1.5,6.7,1.7,11.1,0.5c5.8-1.7,10.3-4.4,13.4-8.1c3.1-3.7,5.1-8.1,6-13.1
		c0.9-5.3,0.4-9.1-1.5-11.3s-5-2.7-9.5-1.3c-1.7,0.5-3.2,1.2-4.6,1.9c-0.9,0.5-1.7,1-2.4,1.5c-0.4,0.3-0.9-0.1-0.8-0.5l1.3-4.4
		c0-0.1,0.1-0.3,0.4-0.4l21.1-5.9c0.1,0,0.4-0.3,0.4-0.4l1.3-7.7C129.2,15.4,128.8,15.1,128.4,15.1z"/>
</g>
<path class="st0" d="M95.6,12l-4.9,1.4l-0.3,1.8l4.2-1.3l-1.8,10.6l-2.2,0.6l0.1-1l-9.7,2.8v1l-2.2,0.6l1.8-10.6l4.1-1.2l0.3-1.8
	l-4.6,1.4l0.3-1.9l15.2-4.5L95.6,12z M82.6,19.3L82,23c1.4-1.3,2.2-2.7,2.4-4.2L82.6,19.3z M87.1,14.5l-0.3,1.8l1.5-0.5l0.3-1.8
	L87.1,14.5z M87.8,20l0.4-2.3l-1.5,0.5c-0.4,2.2-1.4,4.1-3.1,5.8c-0.5-0.3-1-0.5-1.5-0.8L81.8,25l9.7-2.8l0.3-1.5l-2.3,0.6
	C88,21.7,87.5,21.3,87.8,20z M90,18.6c-0.1,0.5,0.1,0.6,0.6,0.5l1.3-0.4l0.4-2.2l-2.1,0.6L90,18.6z M75.3,18.3l-1.5,9.3l4.4-1.3
	l-0.4,2.1l-11.2,3.3l0.4-2.1l4.4-1.3l1.5-9.3l-3.5,1l0.4-2.1l9.7-2.8l-0.4,2.1L75.3,18.3z M65,19.9l1.7-1.8c0.9,0.5,1.8,0.9,2.4,1.3
	l-1.8,2.1C66.7,20.9,65.9,20.4,65,19.9z M68.1,23.6l-1.8,2.1c-0.8-0.5-1.5-1-2.4-1.5l1.5-1.9C66.4,22.6,67.3,23.1,68.1,23.6z
	 M67.4,26.7c-0.6,1.5-1.5,3.7-2.6,6.3h-2.1c1-2.4,1.9-4.5,2.7-6.3C66,26.6,66.8,26.7,67.4,26.7z"/>
</svg>
