<?xml version="1.0" encoding="utf-8"?>
<!-- Generator: Adobe Illustrator 19.1.0, SVG Export Plug-In . SVG Version: 6.00 Build 0)  -->
<svg version="1.1" id="图层_1" xmlns="http://www.w3.org/2000/svg" xmlns:xlink="http://www.w3.org/1999/xlink" x="0px" y="0px"
	 viewBox="40.7 7.1 116.2 70.9" style="enable-background:new 40.7 7.1 116.2 70.9;" xml:space="preserve">
<style type="text/css">
	.st0{fill:#FFFFFF;}
</style>
<path class="st0" d="M144.1,24.9c-0.1,0-0.1,0-0.3-0.1c-1.1-0.5-2-1.1-3.1-1.3c4.2-3.6,7.6-7.9,10.3-13.1c0.9,0.3,2.3,0.8,4.2,1.6
	C151.2,17.1,147.6,21.4,144.1,24.9z M123.3,19.5c8.4-2.4,14.5-5,17.7-7.4c0.3-0.1,0.4-0.3,0.4-0.3c1.6,1.7,2.5,3.1,2.8,4
	c-7.5,2.9-13.9,5.4-19.6,7.5C124.4,21.9,124,20.7,123.3,19.5z M125,30c-0.5-2.1-1.1-3.6-1.3-4.6c1.3-0.8,2.7-1.6,3.9-2.4
	c0.8,2.3,1.3,4,1.6,5.2c-1.3,0.8-2.7,1.6-3.9,2.3C125.1,30.3,125,30.1,125,30z M134.5,20.6c0.1,2,0.3,3.9,0.3,5.5
	c-0.5,0.1-1.3,0.4-2.1,0.7c-0.9,0.4-1.6,0.7-2.1,0.7c0.1-2.4,0.1-4.3-0.1-5.5L134.5,20.6z M138.9,18.7c1.7,0.1,3.1,0.4,4,0.4
	c0,0.1-0.4,0.7-0.9,1.7c-1.3,2.3-2.7,4.3-3.9,6.4c-1.1-0.1-2.1-0.1-3.2-0.1c0.1-0.4,0.4-0.9,0.7-1.5
	C137.3,22.2,138.4,19.9,138.9,18.7z M129.6,28.8c1.5-0.3,2.7-0.5,3.5-0.8c0.8-0.1,1.2-0.1,1.3-0.1c0,0.3-0.1,0.4-0.3,0.7
	c-0.1,0.3-0.3,0.7-0.3,0.9l7.1-2l-0.7,3.9l-7.2,2.1l-0.4,2.7l2.7-2.3c1.2,1.3,2.7,2.8,4.3,4.7c-1.3,1.1-2.7,2.3-4,3.8
	c-0.9-1.3-2-2.7-3.4-4l-1.6,10.5l-4.4,1.2l1.5-9.4c-2,2.9-4.4,5.5-7,7.8c-1.1-0.8-2-1.3-2.8-1.9c4.2-3.9,7.1-7.6,9.1-11.5l-6.7,1.9
	l0.7-3.9l8.3-2.3L129.6,28.8z M116.6,31.3l-4.4,1.2l-2.9,18.2c-0.1,2.7-3.1,4.8-8.7,6.6c-0.1-2-0.4-3.5-0.5-4.4
	c3.1-0.8,4.6-1.6,4.7-2.5l2.7-16.5l-10.2,2.8l-2.9,18.2l-4.6,1.3l0.4-2.1l-4.6,1.3l-0.4,2.4l-4.3,1.2l4.4-27.6l13.5-3.8l-0.9,4.7
	l10.2-2.8l1.2-7.9l2-0.5c1.3-0.4,2.1-0.5,2.3-0.5c0.4-0.1,0.7-0.1,0.8-0.1c0,0.1-0.1,0.3-0.3,0.5c-0.4,0.9-0.5,2-0.8,2.9l-0.7,4.3
	L117,27L116.6,31.3z M86.1,51.6l4.4-1.2l1.2-7.2l-4.4,1.2L86.1,51.6z M88.9,34.3l-0.9,6.2l4.6-1.3l0.9-6.2L88.9,34.3z M83.4,65.1
	l-1.2,7.5l4.4-1.1L86.3,73L80,74.6l1.5-9L83.4,65.1z M73.9,43.3l-2.9,18.2c-0.1,2.7-3.1,4.8-8.7,6.6c-0.1-2-0.4-3.5-0.5-4.4
	c3.1-0.8,4.6-1.6,4.7-2.5L69,44.6l-10.2,2.8l-2.9,18.1l-4.6,1.3l0.4-2.1L47.2,66l-0.4,2.4l-4.3,1.2l4.4-27.6l13.5-3.8l-0.9,4.8
	l10.2-2.8l1.2-7.9l2-0.5c1.3-0.4,2.1-0.5,2.3-0.5c0.4-0.1,0.7-0.1,0.8-0.1c0,0.1-0.1,0.3-0.3,0.5c-0.4,0.9-0.5,2-0.8,2.9L74.3,39
	l4.4-1.2L78,42.2L73.9,43.3z M47.9,62.2l4.4-1.2l1.2-7.2l-4.4,1.2L47.9,62.2z M50.5,45l-0.9,6.2l4.6-1.3l0.9-6.2L50.5,45z
	 M64.5,47.7c0.8,2.3,1.5,4.6,2,7c-0.8,0.5-1.6,1.1-2.7,1.9c-1.7,1.2-2.4,1.6-2.3,1.3c-0.4-2.5-0.9-5-1.6-7.4L64.5,47.7z M89,65.8
	c0.3-0.5,0.7-0.9,1.1-1.5c0.4-0.4,0.8-0.8,1.3-1.1c0.5-0.4,1.2-0.7,2-0.8c1.3-0.3,2.3-0.1,2.9,0.4c0.7,0.7,0.8,1.7,0.7,3.1
	c-0.3,1.5-0.8,2.7-1.7,3.8c-0.9,1.1-2,1.7-3.4,2c-1.3,0.3-2.3,0.1-2.9-0.4c-0.7-0.7-0.8-1.6-0.7-3.1C88.4,67.4,88.6,66.6,89,65.8z
	 M90.4,69.9c0.4,0.4,0.9,0.5,1.6,0.4c0.7-0.1,1.3-0.5,1.9-1.2s0.9-1.5,1.1-2.5c0.1-1.1,0.1-1.7-0.3-2.1c-0.4-0.4-0.9-0.5-1.6-0.3
	c-0.8,0.1-1.3,0.5-1.9,1.2c-0.5,0.7-0.9,1.5-1.1,2.5C90,68.7,90,69.4,90.4,69.9z M104.7,43.9c-0.8,0.5-1.6,1.1-2.7,1.9
	c-1.7,1.2-2.4,1.6-2.3,1.3c-0.4-2.5-0.9-5-1.6-7.4l4.7-2.9C103.6,39.2,104.3,41.5,104.7,43.9z M98.4,61.4l7.1-1.7l-0.3,1.5l-2.7,0.7
	l-1.2,7.5l-1.7,0.4l1.2-7.5l-2.7,0.7L98.4,61.4z M106.2,59.3l7.1-1.7l-0.3,1.5l-2.7,0.7l-1.2,7.5l-1.7,0.4l1.2-7.5l-2.7,0.7
	L106.2,59.3z M121.1,55.6l-0.3,1.5l-4.8,1.2l-0.3,2.1l4.4-1.1l-0.3,1.5l-4.3,1.1l-0.4,2.4l5-1.2l-0.3,1.5l-6.7,1.7l1.5-9L121.1,55.6
	z M126.7,54.3c0.9-0.3,1.6-0.3,2-0.3s0.7,0.3,0.9,0.7c0.1,0.4,0.3,0.8,0.1,1.3c-0.1,0.7-0.4,1.3-0.8,1.9c-0.4,0.5-1.1,0.9-1.9,1.2
	c0.4,0.1,0.7,0.3,0.8,0.5c0.3,0.3,0.5,0.7,0.8,1.2l0.8,1.5l-2.1,0.5l-0.9-1.7c-0.4-0.5-0.5-0.9-0.7-1.1c-0.1-0.1-0.3-0.3-0.5-0.3
	c-0.1,0-0.5,0-0.9,0.1l-0.4,0.1l-0.7,3.8l-1.7,0.4l1.5-9L126.7,54.3z M125.5,58.3c0.8-0.3,1.3-0.4,1.6-0.5c0.3-0.1,0.4-0.3,0.5-0.5
	c0.1-0.3,0.3-0.4,0.3-0.7c0-0.3,0-0.5-0.1-0.7s-0.4-0.3-0.7-0.1c-0.1,0-0.5,0.1-1.3,0.3l-1.3,0.4l-0.4,2.3L125.5,58.3z M133.3,52.6
	l1.5,3.1l2.7-4l2-0.5l-4.2,6l-0.7,3.8l-1.7,0.4l0.7-3.8l-2.4-4.4L133.3,52.6z M136.6,47c-0.8-1.1-1.7-1.7-2.8-2.3
	c7.4-4.2,12.7-9.1,16-14.9c0.7,0.4,1.9,1.2,3.6,2.4c-5,5.8-10.5,10.9-16.5,15C136.7,47.4,136.6,47.3,136.6,47z M142,35.3
	c-1.2-0.9-2.4-1.6-3.6-2c3.9-2.8,8-7.1,12.2-12.7c2,1.3,3.2,2.1,3.4,2.5c-0.1,0.1-0.3,0.3-0.3,0.3c-0.3,0.3-1.3,1.3-3.1,3.4
	C148.1,29.4,145.3,32.4,142,35.3z"/>
<path class="st0" d="M77,16.6l-4,1.1l-0.1,1.5l3.5-0.9L74.8,27l-1.7,0.4l0.1-0.8l-7.9,2l-0.1,0.8L63.4,30l1.5-8.8l3.4-0.9l0.3-1.5
	l-3.8,0.9l0.3-1.6l12.5-3.2L77,16.6z M66.4,22.3l-0.5,3.1c1.2-1.1,1.9-2.1,2-3.5L66.4,22.3z M70,18.3l-0.3,1.5l1.2-0.3l0.3-1.5
	L70,18.3z M70.5,23l0.3-1.9l-1.2,0.3c-0.3,1.9-1.2,3.5-2.5,4.7c-0.4-0.3-0.8-0.5-1.2-0.7L65.6,27l7.9-2l0.3-1.3l-1.9,0.5
	C70.8,24.4,70.4,24.1,70.5,23z M72.3,21.8c0,0.4,0.1,0.5,0.5,0.4l1.1-0.3l0.3-1.7l-1.7,0.4L72.3,21.8z M59.7,21.4L58.5,29l3.6-0.9
	l-0.3,1.7l-9.1,2.4l0.3-1.7l3.6-0.9l1.2-7.6L55,22.7l0.3-1.7l7.9-2.1l-0.3,1.7L59.7,21.4z M51.3,22.3l1.3-1.5c0.8,0.4,1.5,0.8,2,1.2
	l-1.5,1.6C52.7,23.3,52,22.9,51.3,22.3z M53.8,25.6l-1.5,1.7c-0.5-0.4-1.2-0.9-2-1.3l1.3-1.6C52.4,24.8,53.1,25.2,53.8,25.6z
	 M53.2,28.1c-0.5,1.3-1.3,3.1-2.1,5.1l-1.7-0.1c0.9-2,1.6-3.8,2.1-5.2C52.2,28.1,52.7,28.1,53.2,28.1z"/>
</svg>
