<?xml version="1.0" encoding="utf-8"?>
<!-- Generator: Adobe Illustrator 19.1.0, SVG Export Plug-In . SVG Version: 6.00 Build 0)  -->
<svg version="1.1" id="图层_1" xmlns="http://www.w3.org/2000/svg" xmlns:xlink="http://www.w3.org/1999/xlink" x="0px" y="0px"
	 viewBox="11 7.1 107.7 70.9" style="enable-background:new 11 7.1 107.7 70.9;" xml:space="preserve">
<style type="text/css">
	.st0{fill:#FFFFFF;}
</style>
<polygon class="st0" points="24,35.4 24.5,37.3 26.5,37 24.6,39 24.6,41.2 22.9,40.6 20.9,42.2 21.7,39.8 20.5,38.6 22.6,37.7 "/>
<polygon class="st0" points="39.3,30.5 39.7,32.4 41.7,32.1 40,34.1 39.8,36.4 38.2,35.7 36.3,37.3 37.1,34.9 35.9,33.7 38,32.8 "/>
<polygon class="st0" points="55.2,25.8 55.6,27.6 57.5,27.5 55.8,29.3 55.7,31.6 54.1,30.9 52.1,32.5 52.9,30.1 51.7,28.9 
	53.8,28.2 "/>
<path class="st0" d="M32.6,36.2c-0.3,1.1-1.2,2-2.1,2.1s-1.5-0.4-1.2-1.5s1.2-2,2.1-2.1C32.3,34.5,32.8,35.2,32.6,36.2z"/>
<path class="st0" d="M47.8,31.3c-0.3,1.1-1.2,2-2.1,2.1c-0.9,0.1-1.5-0.4-1.2-1.5c0.3-1.1,1.2-2,2.1-2.1S48,30.4,47.8,31.3z"/>
<path class="st0" d="M114.3,19l-19.8,5.7l-2.9,11.4c1.1-0.9,2.4-1.9,3.8-2.8c1.5-0.8,3.2-1.6,4.9-2.1c4.6-1.5,7.9-0.9,10,1.5
	c2,2.4,2.6,6.3,1.7,12c-0.8,5-2.8,9.7-6.1,13.9S98,65.7,92,67.5c-4.8,1.3-8.6,1.2-11.8-0.4c-3-1.6-4.2-4.6-3.4-9l0.1-0.3l11.4-4
	c-0.3,1.9,0,3.2,0.9,3.8c0.9,0.8,2.4,0.8,4.1,0.3c2.1-0.7,3.7-1.7,4.8-3.3s1.9-3.8,2.2-6.5c0.4-2.9,0.3-5-0.4-6.3s-2.1-1.7-4.2-1.2
	c-1.6,0.4-2.8,1.2-3.8,2.1c-1.1,0.9-1.9,2-2.4,3.2l-10.4,2.3l7.4-30.4l29.2-8.5L114.3,19z M75.9,32.9l-3.6,22.9
	c0.1,2.5-2,4.2-6.3,5.3c-0.1-1.6-0.3-2.8-0.7-3.7l1.7-0.5c0.8-0.1,1.2-0.5,1.2-1.1l4-25.1l1.5-0.4c2.1-0.7,3-0.7,2.9-0.4
	c0,0.1-0.1,0.4-0.3,0.5C76.2,31.2,75.9,32,75.9,32.9z M69,38.7l-2.4,15.7l-3.8,1.1l2.9-19.3l1.6-0.5c1.7-0.5,2.6-0.5,2.5-0.3
	c0,0.1-0.1,0.4-0.3,0.7C69.3,37.1,69.2,37.9,69,38.7z M58.2,39.5c-0.4,1.3-0.9,2.6-1.5,3.8l6.5-1.9c0.1,0,0.1,0,0.3,0
	c-0.7,3.3-1.3,6.1-2.1,8.6c-1.6,5.2-6.1,10.6-13.6,16.4c-0.6-0.7-1.5-1.5-2.5-2.2c3.8-2.6,6.9-5.4,9.3-8.5c-1.1-1.1-2-1.9-2.8-2.6
	c-1.6,2.4-2.4,3.4-2.5,3.3c-1.1-0.5-2-0.9-2.8-1.3c3-3.4,5.7-8.3,7.7-14.4l-5,1.5l0.5-3.7L65,34.1l-0.5,3.6L58.2,39.5z M54.4,48.9
	l2.6,2.4c0.7-1.1,1.2-2.6,1.7-4.9l-3.3,0.9C55,47.9,54.8,48.4,54.4,48.9z M44.5,46.5L39.3,48l-0.7,4l4.6-1.3l-0.5,3.4l-4.6,1.3
	l-0.7,4.4l5.6-1.6l-0.5,3.3l-5.6,1.6l-1.1,6.6L32,70.8l4.6-29.9c0.8-0.3,1.6-0.4,2.1-0.7c1.5-0.4,2.1-0.5,2-0.3
	c0,0.1-0.1,0.4-0.3,0.8c-0.1,0.5-0.3,1.1-0.4,1.5l-0.4,2.5l5.2-1.5L44.5,46.5z M34.7,42.8c-0.1,0.5-0.3,1.1-0.4,1.5l-4.2,27.1
	l-3.8,1.1l1.1-6.6l-5.2,1.5l0.5-3.4l5.2-1.5l0.7-4.4l-4.4,1.1v-0.4l-2.1,1.9l-1.6,10c-0.1,2.5-2.2,4.2-6.1,5.2
	c0-1.5-0.1-2.6-0.4-3.7c1.9-0.1,2.8-0.8,2.9-1.7l1.1-6.7c-0.7,0.5-1.2,0.9-1.5,1.3C15.4,66,15,66.4,15,66.3
	c-0.1-0.5-0.1-1.5-0.1-2.9c0-1.1,0-1.7,0.1-1.9c0.3-0.1,0.8-0.5,1.5-0.9s1.5-0.9,2.2-1.6l0.8-5.3l-3.4,1.2l0.5-3.4l3.3-0.9l0.8-5.3
	c1.9-0.5,2.9-0.8,3-0.8c0.3-0.1,0.5-0.1,0.7,0c0,0.1,0,0.3-0.1,0.5c-0.1,0.7-0.3,1.3-0.4,1.9l-0.4,2.5l1.9-0.5L25,52.2l-1.9,0.5
	l-0.5,3.8l2.8-2l-0.1,1.3l3.7-1.1l0.7-4l-3.6,1.1l0.5-3.3l3.6-1.1l0.7-4.6c0.7-0.1,1.2-0.4,1.6-0.5c1.7-0.5,2.5-0.7,2.4-0.3
	C34.8,42.2,34.8,42.4,34.7,42.8z"/>
</svg>
