<?xml version="1.0" encoding="utf-8"?>
<!-- Generator: Adobe Illustrator 19.1.0, SVG Export Plug-In . SVG Version: 6.00 Build 0)  -->
<svg version="1.1" id="图层_1" xmlns="http://www.w3.org/2000/svg" xmlns:xlink="http://www.w3.org/1999/xlink" x="0px" y="0px"
	 viewBox="15 7.1 116.2 70.9" style="enable-background:new 15 7.1 116.2 70.9;" xml:space="preserve">
<style type="text/css">
	.st0{fill:#FFFFFF;}
</style>
<g>
	<polygon class="st0" points="41.6,29.4 40.2,35.8 43,34.9 35.9,71.3 51.1,67.1 58.9,23.2 	"/>
	<polygon class="st0" points="39.8,18.7 22.6,24.8 21.2,31.2 24,30.4 16.9,66.8 32,62.6 	"/>
	<polygon class="st0" points="66.9,37.4 60,39.4 58.3,47.9 65.4,45.9 	"/>
	<polygon class="st0" points="83.9,65.7 84.8,61.2 61.4,67.8 64.9,49.2 57.7,51.3 53.4,74.4 	"/>
	<path class="st0" d="M128.3,14.2l-29.5,8.4c-0.1,0-0.3,0.1-0.4,0.4l-5.9,22.6c-0.1,0.4,0.3,0.8,0.6,0.6l9.4-2.6
		c0.5-0.8,1.2-1.5,1.9-2.2c1-0.9,2.3-1.7,3.7-2.1c2.1-0.6,3.3-0.3,4.1,1c0.6,1.3,0.8,3.3,0.3,6c-0.4,2.4-1.2,4.5-2.3,6
		c-0.3,0.4-0.5,0.6-0.8,0.9c0,0-0.1,0.1-0.3,0.3c-1.9,1.4-3.7,2.1-5.3,1.8c-0.5-0.1-1-0.3-1.5-0.5c-0.3-0.1-0.5-0.4-0.6-0.8l0,0
		c-1.2-1.8-0.4-4.8-0.3-5.4l-19.1,5.5l0.9-4.5l4-1.2l0.8-4.2l-6.9,2.1l1-5.3l6.9-2.1l0.8-3.7l-7.3,2.3l0.9-4.8l-5.7,1.7l-0.9,4.8
		l-4,1.2l0.9-4.8l-5,1.4l-1.5,8.5l9-2.6l-1,5.3l-9,2.6L65.4,55l3.7-1.2l-1,5.7l-3.6,1l-0.8,4.1l9-2.6l1.8-9.8l4.2-1.3l-1.8,9.8
		l12.1-3.2c0.4-0.1,0.6,0.1,0.6,0.5c0,2.8,1.2,4.8,3.6,6c3,1.5,6.7,1.7,11.1,0.5c5.8-1.7,10.3-4.4,13.4-8.1c3.1-3.7,5.1-8.1,6-13.1
		c0.9-5.3,0.4-9.1-1.5-11.3s-5-2.7-9.5-1.3c-1.7,0.5-3.2,1.2-4.6,1.9c-0.9,0.5-1.7,1-2.4,1.5c-0.4,0.3-0.9-0.1-0.8-0.5l1.3-4.4
		c0-0.1,0.1-0.3,0.4-0.4l21.1-5.9c0.1,0,0.4-0.3,0.4-0.4l1.3-7.7C129.1,14.5,128.6,14.2,128.3,14.2z"/>
</g>
<path class="st0" d="M95.3,10.8l-0.4,2.1l-9.1,2.7c-0.8,1.2-1.5,2.3-2.6,3.6l3.3-1l0.4-2.2l2.3-0.6l-0.4,2.1l5-1.5l-0.4,2.1l-5,1.5
	l-0.6,3.6c-0.1,0.8-0.4,1.4-0.8,1.9c-0.4,0.5-0.9,0.9-1.5,1.2c-0.6,0.3-1.5,0.6-3,1c0-0.5,0-1.3-0.1-2.2c0.8-0.1,1.5-0.4,2.1-0.5
	c0.6-0.1,0.9-0.5,1-1.2l0.5-3.1l-6,1.8l0.4-2.2c0.9-1.2,1.8-2.3,2.6-3.5l-3.1,0.9l0.4-2.1l4.2-1.3c0.5-0.8,0.9-1.5,1.3-2.2l2.4-0.5
	c-0.4,0.6-0.8,1.3-1.2,1.9L95.3,10.8z M74.2,29.5l0.3-1.2l-11.2,3.4l1.8-10.9l2.3-0.6L66,29.1l3.3-1l2-11.9l2.3-0.6l-1.9,11.8l3.3-1
	l1.4-8.9l2.3-0.6l-2.1,12.2L74.2,29.5z M83.9,22.3c-1.5,1.8-3,3.5-4.5,5c-0.4-0.4-0.9-0.8-1.3-1.2c1.4-1.4,2.8-3,4.2-4.6
	C83.4,22.1,83.9,22.3,83.9,22.3z M93.9,21.2l-1.9,2.2c-0.9-0.8-1.9-1.4-3.1-2.2l1.7-1.9L93.9,21.2z"/>
</svg>
