<?xml version="1.0" encoding="utf-8"?>
<!-- Generator: Adobe Illustrator 19.1.0, SVG Export Plug-In . SVG Version: 6.00 Build 0)  -->
<svg version="1.1" id="图层_1" xmlns="http://www.w3.org/2000/svg" xmlns:xlink="http://www.w3.org/1999/xlink" x="0px" y="0px"
	 viewBox="15 7.1 116.2 70.9" style="enable-background:new 15 7.1 116.2 70.9;" xml:space="preserve">
<style type="text/css">
	.st0{fill:#FFFFFF;}
</style>
<path class="st0" d="M118.5,24.9c-0.1,0-0.1,0-0.3-0.1c-1.1-0.5-2-1.1-3.1-1.3c4.2-3.6,7.7-7.9,10.3-13.2c0.9,0.3,2.3,0.8,4.2,1.6
	C125.6,17.1,122,21.4,118.5,24.9z M97.7,19.6c8.5-2.4,14.5-5,17.7-7.4c0.3-0.1,0.4-0.3,0.4-0.3c1.6,1.7,2.6,3.1,2.8,4
	c-7.5,3-14,5.4-19.6,7.5C98.7,22,98.3,20.8,97.7,19.6z M99.3,30c-0.5-2.1-1.1-3.6-1.3-4.6c1.3-0.8,2.7-1.6,3.9-2.4
	c0.8,2.3,1.3,4,1.6,5.2c-1.3,0.8-2.7,1.6-3.9,2.3C99.4,30.3,99.3,30.2,99.3,30z M108.8,20.6c0.1,2,0.3,3.9,0.3,5.5
	c-0.5,0.1-1.3,0.4-2.1,0.7c-0.9,0.4-1.6,0.7-2.1,0.7c0.1-2.4,0.1-4.3-0.1-5.5L108.8,20.6z M113.2,18.7c1.7,0.1,3.1,0.4,4,0.4
	c0,0.1-0.4,0.7-0.9,1.7c-1.3,2.3-2.7,4.3-3.9,6.4c-1.1-0.1-2.1-0.1-3.2-0.1c0.1-0.4,0.4-0.9,0.7-1.5C111.6,22.2,112.7,20,113.2,18.7
	z M104,28.8c1.5-0.3,2.7-0.5,3.5-0.8c0.8-0.1,1.2-0.1,1.3-0.1c0,0.3-0.1,0.4-0.3,0.7c-0.1,0.3-0.3,0.7-0.3,0.9l7.1-2l-0.7,3.9
	l-7.3,2.1l-0.4,2.7l2.7-2.3c1.2,1.3,2.7,2.8,4.3,4.7c-1.3,1.1-2.7,2.3-4,3.8c-0.9-1.3-2-2.7-3.4-4l-1.6,10.5l-4.4,1.2l1.5-9.4
	c-2,3-4.4,5.5-7,7.8c-1.1-0.8-2-1.3-2.8-1.9c4.2-3.9,7.1-7.7,9.1-11.6l-6.7,1.9l0.7-3.9l8.3-2.3L104,28.8z M90.9,31.4l-4.4,1.2
	l-3,18.3c-0.1,2.7-3.1,4.8-8.7,6.6c-0.1-2-0.4-3.5-0.5-4.4c3.1-0.8,4.6-1.6,4.7-2.6L81.7,34l-10.2,2.8l-3,18.3l-4.6,1.3l0.4-2.1
	l-4.6,1.3L59.3,58L55,59.2l4.4-27.7L73,27.7l-0.9,4.7l10.2-2.8l1.2-7.9l2-0.5c1.3-0.4,2.1-0.5,2.3-0.5c0.4-0.1,0.7-0.1,0.8-0.1
	c0,0.1-0.1,0.3-0.3,0.5c-0.4,0.9-0.5,2-0.8,3l-0.7,4.3l4.5-1.3L90.9,31.4z M60.3,51.7l4.4-1.2l1.2-7.3l-4.4,1.2L60.3,51.7z
	 M63.1,34.3l-0.9,6.2l4.6-1.3l0.9-6.2L63.1,34.3z M57.6,65.2l-1.2,7.5l4.4-1.1l-0.3,1.5l-6.2,1.7l1.5-9L57.6,65.2z M48.1,43.3
	l-3,18.3c-0.1,2.7-3.1,4.8-8.7,6.6c-0.1-2-0.4-3.5-0.5-4.4c3.1-0.8,4.6-1.6,4.7-2.6l2.7-16.5l-10.2,2.8l-3,18.1l-4.6,1.3l0.4-2.1
	l-4.6,1.4l-0.4,2.4l-4.3,1.2l4.5-27.7l13.6-3.8l-0.9,4.8L44,40.3l1.2-7.9l2-0.5c1.3-0.4,2.1-0.5,2.3-0.5c0.4-0.1,0.7-0.1,0.8-0.1
	c0,0.1-0.1,0.3-0.3,0.5c-0.4,0.9-0.5,2-0.8,3l-0.7,4.3l4.4-1.2l-0.7,4.4L48.1,43.3z M22,62.3l4.4-1.2l1.2-7.3L23.2,55L22,62.3z
	 M24.7,45.1l-0.9,6.2l4.6-1.3l0.9-6.2L24.7,45.1z M38.7,47.8c0.8,2.3,1.5,4.6,2,7c-0.8,0.5-1.6,1.1-2.7,1.9
	c-1.7,1.2-2.4,1.6-2.3,1.3c-0.4-2.6-0.9-5-1.6-7.4L38.7,47.8z M63.3,65.9c0.3-0.5,0.7-0.9,1.1-1.5c0.4-0.4,0.8-0.8,1.3-1.1
	c0.5-0.4,1.2-0.7,2-0.8c1.3-0.3,2.3-0.1,3,0.4c0.7,0.7,0.8,1.7,0.7,3.1c-0.3,1.5-0.8,2.7-1.7,3.8c-0.9,1.1-2,1.7-3.4,2
	c-1.3,0.3-2.3,0.1-3-0.4c-0.7-0.7-0.8-1.6-0.7-3.1C62.6,67.5,62.9,66.7,63.3,65.9z M64.6,70.1c0.4,0.4,0.9,0.5,1.6,0.4
	s1.3-0.5,1.9-1.2c0.5-0.7,0.9-1.5,1.1-2.6c0.1-1.1,0.1-1.7-0.3-2.1s-0.9-0.5-1.6-0.3c-0.8,0.1-1.3,0.5-1.9,1.2
	c-0.5,0.7-0.9,1.5-1.1,2.6C64.2,68.9,64.2,69.5,64.6,70.1z M79,44c-0.8,0.5-1.6,1.1-2.7,1.9c-1.7,1.2-2.4,1.6-2.3,1.3
	c-0.4-2.6-0.9-5-1.6-7.4l4.7-3C77.9,39.3,78.6,41.6,79,44z M72.7,61.5l7.1-1.7l-0.3,1.5L76.8,62l-1.2,7.5l-1.7,0.4l1.2-7.5l-2.7,0.7
	L72.7,61.5z M80.5,59.5l7.1-1.7l-0.3,1.5L84.6,60l-1.2,7.5l-1.7,0.4l1.2-7.5l-2.7,0.7L80.5,59.5z M95.4,55.7l-0.3,1.5l-4.8,1.2
	L90,60.5l4.4-1.1l-0.3,1.5L89.8,62l-0.4,2.4l5-1.2l-0.3,1.5l-6.7,1.7l1.5-9L95.4,55.7z M101,54.4c0.9-0.3,1.6-0.3,2-0.3
	s0.7,0.3,0.9,0.7c0.1,0.4,0.3,0.8,0.1,1.3c-0.1,0.7-0.4,1.3-0.8,1.9s-1.1,0.9-1.9,1.2c0.4,0.1,0.7,0.3,0.8,0.5
	c0.3,0.3,0.5,0.7,0.8,1.2l0.8,1.5l-2.1,0.5l-0.9-1.7c-0.4-0.5-0.5-0.9-0.7-1.1s-0.3-0.3-0.5-0.3c-0.1,0-0.5,0-0.9,0.1L98.2,60
	l-0.7,3.8l-1.7,0.4l1.5-9L101,54.4z M99.8,58.4c0.8-0.3,1.3-0.4,1.6-0.5c0.3-0.1,0.4-0.3,0.5-0.5c0.1-0.3,0.3-0.4,0.3-0.7
	s0-0.5-0.1-0.7c-0.1-0.1-0.4-0.3-0.7-0.1c-0.1,0-0.5,0.1-1.3,0.3l-1.3,0.4l-0.4,2.3L99.8,58.4z M107.6,52.7l1.5,3.1l2.7-4l2-0.5
	l-4.2,6l-0.7,3.8l-1.7,0.4l0.7-3.8l-2.4-4.4L107.6,52.7z M111,47.1c-0.8-1.1-1.7-1.7-2.8-2.3c7.4-4.2,12.8-9.1,16-14.9
	c0.7,0.4,1.9,1.2,3.6,2.4c-5,5.8-10.5,10.9-16.5,15C111.1,47.5,111,47.4,111,47.1z M116.3,35.4c-1.2-0.9-2.4-1.6-3.6-2
	c3.9-2.8,8.1-7.1,12.2-12.8c2,1.3,3.2,2.1,3.4,2.6c-0.1,0.1-0.3,0.3-0.3,0.3c-0.3,0.3-1.3,1.3-3.1,3.4
	C122.5,29.5,119.7,32.5,116.3,35.4z"/>
<path class="st0" d="M50.6,17.7l0.8-0.1l-0.3,1.2l-0.7,0.3l-0.3,2L46.7,22l-0.1,0.8l3.4-0.9l-0.4,1.3l-3.3,0.9l-0.1,0.8l4.2-1.1
	l-0.3,1.3l-4.2,1L45.6,28l-1.7,0.4l0.3-1.7l-3.8,0.9l0.3-1.2l3.8-0.9l0.1-0.8l-3.2,0.8l0.3-1.2l3.2-0.8l0.1-0.8l-2.8,0.8l0.1-1.2
	l2.8-0.8l0.1-0.8l-3.6,0.7l0.3-1.2l3.6-0.9l0.1-0.8l-2.8,0.8l0.1-1.5l2.8-0.8l0.1-1.1l1.7-0.4l-0.1,1.1l3.4-0.9L50.6,17.7z
	 M46.9,20.8l1.7-0.4l0.1-0.8L47,19.9L46.9,20.8z M47.4,17.7l-0.1,0.8l1.7-0.4l0.1-0.8L47.4,17.7z M39.6,18.9l1.2-1.5
	c0.7,0.4,1.3,0.7,1.9,1.1l-1.3,1.6C40.7,19.6,40.1,19.2,39.6,18.9z M41.6,22l-1.3,1.6c-0.7-0.5-1.2-0.9-1.6-1.2l1.2-1.5
	C40.4,21.2,41,21.6,41.6,22z M41.1,24.7c-0.7,1.7-1.3,3.4-1.9,5.1c-0.7,0-1.2-0.1-1.6-0.1c0.5-1.3,1.2-3.1,2-5.2L41.1,24.7z
	 M32.6,21.7c-0.1,0.8-0.3,1.6-0.5,2.4l5.4-1.5l-0.3,1.7l-4.8,1.3c0.5,1.9,2,2.8,4.3,3c-0.4,0.5-0.9,1.2-1.7,2.1
	c-2-0.4-3.5-1.6-4-3.6c-1.1,2.1-3,4.2-5.5,6.2c-0.3-0.4-0.7-0.8-1.2-1.2c3-1.9,4.7-3.8,5.5-5.6l-4.6,1.2l0.3-1.7l5-1.3
	c0.3-0.7,0.4-1.5,0.5-2.4l-4.4,1.2l0.3-1.7L37.8,19l-0.5,1.6L32.6,21.7z"/>
</svg>
