<?xml version="1.0" encoding="utf-8"?>
<!-- Generator: Adobe Illustrator 19.1.0, SVG Export Plug-In . SVG Version: 6.00 Build 0)  -->
<svg version="1.1" id="图层_1" xmlns="http://www.w3.org/2000/svg" xmlns:xlink="http://www.w3.org/1999/xlink" x="0px" y="0px"
	 viewBox="15 7.1 116.2 70.9" style="enable-background:new 15 7.1 116.2 70.9;" xml:space="preserve">
<style type="text/css">
	.st0{fill:#FFFFFF;}
</style>
<path class="st0" d="M118.5,24.9c-0.1,0-0.1,0-0.3-0.1c-1.1-0.5-2-1.1-3.1-1.3c4.2-3.6,7.7-7.9,10.4-13.2c0.9,0.3,2.3,0.8,4.2,1.6
	C125.6,17.1,122,21.5,118.5,24.9z M97.6,19.6c8.5-2.4,14.5-5,17.8-7.4c0.3-0.1,0.4-0.3,0.4-0.3c1.6,1.7,2.6,3.1,2.8,4
	c-7.5,3-14,5.4-19.6,7.5C98.7,22,98.3,20.8,97.6,19.6z M99.3,30.1c-0.5-2.2-1.1-3.6-1.3-4.6c1.3-0.8,2.7-1.6,3.9-2.4
	c0.8,2.3,1.3,4,1.6,5.2c-1.3,0.8-2.7,1.6-3.9,2.3C99.4,30.3,99.3,30.2,99.3,30.1z M108.8,20.6c0.1,2,0.3,3.9,0.3,5.5
	c-0.5,0.1-1.3,0.4-2.2,0.7c-0.9,0.4-1.6,0.7-2.2,0.7c0.1-2.4,0.1-4.3-0.1-5.5L108.8,20.6z M113.3,18.8c1.7,0.1,3.1,0.4,4,0.4
	c0,0.1-0.4,0.7-0.9,1.7c-1.3,2.3-2.7,4.3-3.9,6.5c-1.1-0.1-2.2-0.1-3.2-0.1c0.1-0.4,0.4-0.9,0.7-1.5C111.6,22.3,112.7,20,113.3,18.8
	z M104,28.9c1.5-0.3,2.7-0.5,3.5-0.8c0.8-0.1,1.2-0.1,1.3-0.1c0,0.3-0.1,0.4-0.3,0.7s-0.3,0.7-0.3,0.9l7.1-2l-0.7,3.9l-7.3,2.2
	l-0.4,2.7l2.7-2.3c1.2,1.3,2.7,2.8,4.3,4.7c-1.3,1.1-2.7,2.3-4,3.8c-0.9-1.3-2-2.7-3.4-4l-1.6,10.5l-4.4,1.2l1.5-9.4
	c-2,3-4.4,5.5-7,7.8c-1.1-0.8-2-1.3-2.8-1.9c4.2-3.9,7.1-7.7,9.1-11.6l-6.7,1.9l0.7-3.9l8.3-2.3L104,28.9z M90.9,31.4l-4.4,1.2
	l-3,18.3c-0.1,2.7-3.1,4.8-8.7,6.6c-0.1-2-0.4-3.5-0.5-4.4c3.1-0.8,4.6-1.6,4.7-2.6L81.7,34l-10.2,2.8l-3,18.3l-4.6,1.3l0.4-2.2
	l-4.6,1.3l-0.4,2.4L55,59.1l4.4-27.7L73,27.6l-0.9,4.7l10.2-2.8l1.2-7.9l2-0.5c1.3-0.4,2.2-0.5,2.3-0.5c0.4-0.1,0.7-0.1,0.8-0.1
	c0,0.1-0.1,0.3-0.3,0.5c-0.4,0.9-0.5,2-0.8,3l-0.7,4.3l4.4-1.2L90.9,31.4z M60.3,51.7l4.4-1.2l1.2-7.3l-4.4,1.2L60.3,51.7z
	 M63.1,34.4l-0.9,6.2l4.6-1.3l0.9-6.2L63.1,34.4z M57.6,65.3l-1.2,7.5l4.4-1.1l-0.3,1.5l-6.3,1.7l1.5-9L57.6,65.3z M48,43.4l-3,18.3
	c-0.1,2.7-3.1,4.8-8.7,6.6c-0.1-2-0.4-3.5-0.5-4.4c3.1-0.8,4.6-1.6,4.7-2.6l2.7-16.6L33,47.5l-3,18.2L25.4,67l0.4-2.2l-4.6,1.4
	l-0.4,2.4l-4.3,1.2L21,42.2l13.6-3.8l-1,4.8l10.2-2.8l1.2-7.9l2-0.5c1.3-0.4,2.2-0.5,2.3-0.5c0.4-0.1,0.7-0.1,0.8-0.1
	c0,0.1-0.1,0.3-0.3,0.5c-0.4,0.9-0.5,2-0.8,3l-0.7,4.3l4.4-1.2l-0.5,4.3L48,43.4z M21.9,62.3l4.4-1.2l1.2-7.3L23.1,55L21.9,62.3z
	 M24.6,45.1l-0.9,6.2l4.6-1.3l0.9-6.2L24.6,45.1z M38.6,47.8c0.8,2.3,1.5,4.6,2,7c-0.8,0.5-1.6,1.1-2.7,1.9
	c-1.7,1.2-2.4,1.6-2.3,1.3c-0.4-2.6-0.9-5-1.6-7.4L38.6,47.8z M63.2,66c0.3-0.5,0.7-0.9,1.1-1.5c0.4-0.4,0.8-0.8,1.3-1.1
	c0.5-0.4,1.2-0.7,2-0.8c1.3-0.3,2.3-0.1,3,0.4c0.7,0.7,0.8,1.7,0.7,3.1c-0.3,1.5-0.8,2.7-1.7,3.8c-0.9,1.1-2,1.7-3.4,2
	s-2.3,0.1-3-0.4c-0.7-0.7-0.8-1.6-0.7-3.1C62.5,67.6,62.8,66.8,63.2,66z M64.6,70.1c0.4,0.4,0.9,0.5,1.6,0.4s1.3-0.5,1.9-1.2
	c0.5-0.7,0.9-1.5,1.1-2.6c0.1-1.1,0.1-1.7-0.3-2.2c-0.4-0.4-0.9-0.5-1.6-0.3c-0.8,0.1-1.3,0.5-1.9,1.2c-0.5,0.7-0.9,1.5-1.1,2.6
	C64.2,68.9,64.2,69.6,64.6,70.1z M78.9,44.1c-0.8,0.5-1.6,1.1-2.7,1.9c-1.7,1.2-2.4,1.6-2.3,1.3c-0.4-2.6-0.9-5-1.6-7.4l4.7-3
	C77.9,39.3,78.5,41.6,78.9,44.1z M72.6,61.5l7.1-1.7l-0.3,1.5L76.7,62l-1.2,7.5l-1.7,0.4l1.2-7.5l-2.7,0.7L72.6,61.5z M80.4,59.5
	l7.1-1.7l-0.3,1.5L84.5,60l-1.2,7.5l-1.7,0.4l1.2-7.5l-2.7,0.7L80.4,59.5z M95.4,55.8l-0.3,1.5l-4.8,1.2L90,60.7l4.4-1.1l-0.3,1.5
	l-4.3,1.1l-0.4,2.4l5-1.2l-0.3,1.5l-6.7,1.7l1.5-9L95.4,55.8z M101,54.4c0.9-0.3,1.6-0.3,2-0.3s0.7,0.3,0.9,0.7
	c0.1,0.4,0.3,0.8,0.1,1.3c-0.1,0.7-0.4,1.3-0.8,1.9c-0.4,0.5-1.1,0.9-1.9,1.2c0.4,0.1,0.7,0.3,0.8,0.5c0.3,0.3,0.5,0.7,0.8,1.2
	l0.8,1.5l-2.2,0.5l-0.9-1.7c-0.4-0.5-0.5-0.9-0.7-1.1c-0.1-0.1-0.3-0.3-0.5-0.3c-0.1,0-0.5,0-0.9,0.1l-0.3,0.3L97.5,64l-1.7,0.4
	l1.5-9L101,54.4z M99.8,58.4c0.8-0.3,1.3-0.4,1.6-0.5c0.3-0.1,0.4-0.3,0.5-0.5c0.1-0.3,0.3-0.4,0.3-0.7s0-0.5-0.1-0.7
	c-0.1-0.1-0.4-0.3-0.7-0.1c-0.1,0-0.5,0.1-1.3,0.3l-1.3,0.4l-0.4,2.3L99.8,58.4z M107.6,52.8l1.5,3.1l2.7-4l2-0.5l-4.2,6.1l-0.7,3.8
	l-1.7,0.4l0.7-3.8l-2.4-4.4L107.6,52.8z M111,47.1c-0.8-1.1-1.7-1.7-2.8-2.3c7.4-4.2,12.8-9.1,16-14.9c0.7,0.4,1.9,1.2,3.6,2.4
	c-5,5.8-10.5,10.9-16.5,15.1C111.1,47.5,111,47.4,111,47.1z M116.3,35.4c-1.2-0.9-2.4-1.6-3.6-2c3.9-2.8,8.1-7.1,12.2-12.8
	c2,1.3,3.2,2.2,3.4,2.6c-0.1,0.1-0.3,0.3-0.3,0.3c-0.3,0.3-1.3,1.3-3.1,3.4C122.5,29.5,119.7,32.5,116.3,35.4z"/>
<path class="st0" d="M51.9,15.3l-7.8,2l0.1-1.1l7.8-2L51.9,15.3z M40.7,20.5l-0.3,0.9l2.8-0.7l-0.7,3.4L42,26.7
	c-0.1,0.5-0.3,1.1-0.5,1.3c-0.3,0.4-0.5,0.5-0.9,0.7c-0.3,0.1-1.1,0.4-2,0.7c0-0.4,0-0.9-0.1-1.5c0.5-0.1,1.1-0.3,1.3-0.3
	c0.5-0.1,0.8-0.5,0.9-1.2l0.7-4l-3,0.8l0.8-3.8l2.4-0.7l0.1-0.9l-2.6,0.7l0.3-1.3l4.2-1.1l-0.4,3.6L40.7,20.5z M39.3,23.3l1.3-0.4
	l-0.1,0.8l0.7-0.1l-0.1,1.2l-0.9,0.1l-0.1,0.8l0.7-0.3c-0.1,0.7-0.3,1.1-0.3,1.3l-2.7,1.2l0.1-1.3l0.9-0.4l0.1-0.9l-0.7,0.2l0.1-1.2
	l0.8-0.1L39.3,23.3z M33.9,22.5l3.9-1.1l-0.3,1.8l-0.9,0.3l-1.1,6.9l-1.7,0.4l1.1-6.9l-1.2,0.3L33.6,25c-0.4,2.8-1.3,5-2.8,6.9
	c-0.5-0.4-0.9-0.7-1.5-0.9c0.5-0.5,1.1-1.2,1.5-2l-1.6,0.9c-0.1-0.7-0.4-1.2-0.7-1.6l1.3-0.9c0.3,0.4,0.5,0.8,0.8,1.5
	c0.5-0.9,0.8-2,1.1-3.2l0.9-5.9c2-0.7,3.6-1.5,5-2.3L38,19c-1.2,0.7-2.6,1.2-4,1.7L33.9,22.5z M30,22c0.3,0,0.7,0.1,1.3,0.3
	c-0.1,0.3-0.4,0.7-0.8,1.2l1.3-0.4l-0.3,1.5L29,25.2L28.9,26l2.3-0.5L30.9,27l-2.3,0.5l-0.5,3.2c0,0.4-0.3,0.8-0.4,1.1
	c-0.3,0.3-0.5,0.5-0.8,0.7c-0.3,0.1-0.9,0.3-1.7,0.5c0-0.5,0-0.9,0-1.3l-0.4,0.7c-0.3-0.1-0.7-0.3-1.3-0.3c0.5-0.9,1.1-2,1.6-3.2
	h1.3c-0.4,0.8-0.8,1.7-1.2,2.6c0.3,0,0.4-0.1,0.7-0.1c0.3-0.1,0.5-0.3,0.5-0.7l0.4-2.4L24.4,29l0.3-1.5l2.4-0.7l0.1-0.8l-2.7,0.7
	l0.3-1.5l1.3-0.4c-0.1-0.3-0.3-0.5-0.4-0.8l1.5-0.9c0.3,0.5,0.4,0.9,0.7,1.3l0.5-0.1c0.5-0.8,0.9-1.5,1.2-1.9l-4.2,0.8l0.3-1.5
	L28,21c0-0.3-0.1-0.5-0.1-0.8l1.9-0.8c0.1,0.3,0.1,0.7,0.1,1.1l2.2-0.5l-0.3,1.5L30,22z M50.6,25.1l-0.2,1.1l-8.2,2.1l0.1-1.1
	L50.6,25.1z M42.9,26.7l0.5-3.6l7.4-1.9l-0.5,3.6L42.9,26.7z M44.5,25.4L46,25l0.1-0.5l-1.5,0.4L44.5,25.4z M44.9,23.6l-0.1,0.5
	l1.5-0.4l0.1-0.5L44.9,23.6z M47.2,24.7l1.5-0.4l0.1-0.5l-1.5,0.4L47.2,24.7z M47.6,22.8l-0.1,0.5l1.5-0.4l0.1-0.5L47.6,22.8z
	 M43.7,21.2l0.5-3.6l7.4-1.9l-0.5,3.6L43.7,21.2z M45.5,19.8l1.5-0.4l0.1-0.5l-1.5,0.4L45.5,19.8z M45.7,18.1l-0.1,0.5l1.5-0.4
	l0.1-0.5L45.7,18.1z M48.1,19.2l1.5-0.4l0.1-0.5l-1.5,0.4L48.1,19.2z M48.4,17.4l-0.1,0.5l1.5-0.4l0.1-0.5L48.4,17.4z M43.4,21.7
	l7.9-2.2l-0.1,1.1l-7.9,2.2L43.4,21.7z"/>
</svg>
