<?xml version="1.0" encoding="utf-8"?>
<!DOCTYPE svg PUBLIC "-//W3C//DTD SVG 1.1//EN" "http://www.w3.org/Graphics/SVG/1.1/DTD/svg11.dtd">
<svg version="1.1" id="图形" xmlns="http://www.w3.org/2000/svg" xmlns:xlink="http://www.w3.org/1999/xlink" x="0px" y="0px" width="1024px" height="1024px" viewBox="0 0 1024 1024" enable-background="new 0 0 1024 1024" xml:space="preserve">
  <path fill="#ffffff" d="M366.6944 457.346635c-75.9808 17.167059-140.589176-13.312-173.549929-84.443859-41.508141-89.581929-36.978447-178.531388 8.475106-270.739576 22.299106 39.339671 52.495059 62.680847 94.039341 68.047812 20.202918 2.608188 16.347859 16.094871 16.450259 28.557553 0.668612 83.257224 22.238871 160.635482 67.987576 230.243388C393.902682 450.022024 384.566212 453.310871 366.6944 457.346635zM353.8944 421.596988c-38.038588-65.337224-57.603012-136.179953-59.753412-211.805365-0.277082-9.788235 1.596235-20.769129-12.540988-23.515859-29.424941-5.710306-53.109459-22.130447-76.571106-44.634353-33.810071 82.034447-28.172047 157.702024 8.571482 231.201129 25.738541 51.495153 75.456753 77.131294 128.560188 70.607812C358.056659 441.504753 363.489882 438.071341 353.8944 421.596988zM318.349553 71.997365c-12.691576 7.469176-15.022682 1.011953-17.070682-9.800282-7.204141-38.080753-14.962447-76.059106-23.208659-117.591341 12.354259 6.698165 21.546165 11.679624 33.448659 18.130824 3.867106-27.581741-8.565459-51.501176-1.680565-78.588988 19.293365 15.028706 36.370071 28.334682 55.862212 43.513976 1.096282-11.342306 1.897412-19.606588 3.023812-31.310306 36.617035 28.286494 70.902965 54.771953 108.032 83.456C421.725365 11.780141 369.904941 41.668894 318.349553 71.997365zM391.433035-61.755106c-4.704376 28.202165-4.704376 28.202165-12.167529 24.871153-14.691388-11.721788-29.3888-23.443576-49.892894-39.803482 1.523953 28.286494 7.439059 70.234353 3.897224 72.2944-11.432659-2.674447-13.836047-4.246588-25.045835-6.300612 2.596141 64.993882 3.511718 65.542024 57.518682 34.093176 25.003671-14.558871 49.989271-29.141835 76.504847-44.598212C426.020141-38.401882 408.967529-50.364612 391.433035-61.755106zM789.576282 492.957741c1.975718 59.404047-7.276424 112.609882-20.678776 165.183247-2.722635 10.673694-2.927435 23.588141-22.666541 17.92-153.852988-44.200659-281.328941-121.362071-347.015529-275.7632-38.532518-90.575812-63.728941-185.356047-84.708894-281.347012-3.571953-16.329788 0.993882-25.545788 15.715388-33.737788 45.507765-25.316894 90.611953-51.428894 135.011388-78.637176 15.956329-9.776188 27.081788-9.649694 42.333365 2.222682 55.675482 43.339294 106.267106 91.660047 150.600282 146.468141C738.996706 255.190965 795.846776 364.457788 789.576282 492.957741zM637.313506 158.531388c-39.664941-48.097882-84.949835-90.473412-133.475388-129.632376-13.095153-10.565271-22.401506-11.197741-36.725459-2.337129-39.146918 24.214588-79.275671 46.869082-119.392376 69.469365-11.956706 6.740329-16.396047 13.125271-13.1072 28.334682 20.552282 95.075388 46.369129 188.524424 85.431718 277.720847 60.355765 137.818353 176.597835 207.094965 312.609129 251.476329 14.456471 4.716424 19.227106-0.927624 22.281035-14.408282 10.667671-47.049788 17.913976-94.394729 16.450259-149.353412C777.709929 363.560282 718.251671 256.678776 637.313506 158.531388zM568.518776 426.536282c-47.019671 0.084329-85.955765-38.592753-86.250918-85.672659-0.289129-46.543812 38.845741-86.383435 85.377506-86.907482 46.061929-0.518024 85.726871 39.110776 86.196706 86.124424C654.317929 386.961694 615.345694 426.451953 568.518776 426.536282zM569.452424 272.159247c-36.568847-0.771012-68.951341 31.376565-68.987482 68.475482-0.030118 36.111059 30.009224 66.812988 66.210635 67.662306 37.315765 0.879435 68.583906-30.093553 68.656188-68.005647C635.398024 303.836988 605.503247 272.918212 569.452424 272.159247zM726.750871 202.298353c-34.942494-75.607341-89.256659-134.794541-159.605459-179.332518-10.529129-6.668047-24.015812-10.517082-15.558776-29.051482 17.383906-38.104847 13.510776-76.077176-8.113694-115.790306 102.303624 10.095435 180.224 53.229929 234.375529 135.794447 42.995953 65.560094 34.749741 136.517271-19.955953 191.969882C745.020235 218.935341 737.298071 225.121506 726.750871 202.298353zM759.055059 177.716329c33.581176-41.652706 38.068706-97.406494 7.939012-146.456094-43.008-70.017506-104.285365-114.766306-191.801224-129.385412 6.716235 31.810259 8.149835 60.590682-2.541929 88.594071-5.138071 13.456565 5.180235 17.660988 13.342118 23.070118 63.0784 41.767153 112.905035 95.798212 148.293271 162.605176C743.213176 192.985976 749.001788 190.185035 759.055059 177.716329z" transform="translate(0, 812) scale(1, -1)"/>
</svg>
