<?xml version="1.0" encoding="utf-8"?>
<!DOCTYPE svg PUBLIC "-//W3C//DTD SVG 1.1//EN" "http://www.w3.org/Graphics/SVG/1.1/DTD/svg11.dtd">
<svg version="1.1" id="图形" xmlns="http://www.w3.org/2000/svg" xmlns:xlink="http://www.w3.org/1999/xlink" x="0px" y="0px" width="1024px" height="1024px" viewBox="0 0 1024 1024" enable-background="new 0 0 1024 1024" xml:space="preserve">
  <path fill="#ffffff" d="M929.9804 373.4802c-3.9004 66.1504-23.5858 127.1818-57.8683 183.7978-30.2377 49.9354-69.6709 91.22-117.8655 123.6347-52.4421 35.2727-110.3288 57.1023-173.3263 65.0854-64.13 8.1265-126.9002 1.6271-187.3766-20.2056-74.1775-26.7796-135.1793-72.79-183.21-135.3431-39.3544-51.2532-63.4204-109.5455-75.3746-172.8225-1.8012-9.5355-4.4943-19.4714-2.0296-31.4696 1.7572 3.1898 2.6655 4.7206 3.4642 6.3058 18.3634 36.4636 45.7902 44.2675 75.5016 42.1939 45.527-3.1775 70.0119-26.1448 85.2634-68.6653 3.4693-9.6727 5.3197-16.7844 16.9165-8.7767 2.7443 1.8954 6.6038 2.7535 9.4669 0.0389 3.3812-3.2061 1.8627-7.0912-0.1536-10.3148-3.1785-5.0811-6.3324-10.3188-10.3619-14.6924-5.1732-5.6156-5.1323-9.2058 0.8581-14.6739 30.9443-28.2429 66.3921-49.3394 105.4874-63.2822 64.6185-23.0461 130.5262-25.8038 197.0668-7.4588 47.5597 13.1123 89.3235 36.607 126.7282 68.4554 7.1107 6.0549 8.7316 11.1616 1.7531 18.5201-3.7755 3.9803-6.0723 9.4208-8.7654 14.3503-1.6077 2.942-3.3782 6.3959-0.0901 9.2385 2.6573 2.2968 5.6566 0.727 8.4613-0.4321 19.8728-8.2145 33.6271-23.6534 45.8639-40.3261 4.1912-5.7098 13.2874-13.5311 6.1665-20.4616-6.5096-6.3345-13.7667 2.9512-19.3188 6.828-7.6308 5.3268-11.7586 3.2922-18.1094-2.0869-71.0646-60.1948-152.3569-90.7766-246.4461-86.1891-66.8692 3.2604-126.7067 25.0706-181.6422 62.4026-6.1921 4.2076-11.7125 15.1101-18.8631 11.095-6.2556-3.5123-1.4797-14.6156-2.3542-22.2966-1.0394-9.1279 2.8396-13.0621 12.0873-12.9597 17.877 0.1987 35.028-4.0448 51.6792-10.1376 43.7064-15.9918 69.078-51.4693 63.0241-102.9581-1.7009-14.466-3.1304-27.7535 10.6097-39.4516 27.4135-23.34 32.3523-70.3959 17.6138-100.8445-6.1215-12.6474-14.2981-23.8234-24.3558-33.5616-5.8767-5.6893-4.7299-8.0763 3.0208-9.8079 58.4673-13.0611 117.2838-13.9448 175.234 0.4065 94.3933 23.3769 173.482 71.4127 232.0077 150.8844C909.1277 186.7784 935.7763 275.1875 929.9804 373.4802zM442.0977 400.524c-39.169-20.8824-87.467-6.5802-113.9395 29.1215-39.2684 52.9592-36.3612 128.6646-0.8776 175.8904 28.8881 38.4471 68.3479 48.3277 105.2662 34.7064 34.8477-12.8584 54.4911-41.0419 65.706-75.3603 4.6684-14.2879 7.5633-29.0488 7.5305-44.6505C502.3631 470.9967 489.8662 425.9919 442.0977 400.524zM734.1527 435.1967c-22.4225-32.6021-53.2613-51.2963-95.4491-42.368-25.3737 5.3699-43.7207 20.6643-58.6076 40.6159-39.4455 52.863-32.126 142.5224 15.574 187.2497 16.5683 15.5361 36.6561 24.4255 59.817 24.8084 37.5757 1.0629 64.6267-18.1944 82.263-48.2949C769.3384 543.2922 770.2548 487.69 734.1527 435.1967zM263.1363 210.5659c35.2881 0 70.615-0.9779 105.8478 0.4188 17.1991 0.682 27.1985-7.9155 34.6194-20.311 12.244-20.4503 10.6957-43.1524 6.9837-65.662-1.2534-7.5971-7.5438-7.1772-13.2506-7.1834-40.5432-0.044-81.0865-0.0911-121.6297-0.1055-23.6513-0.0082-47.3047-0.1669-70.9519 0.171-8.7409 0.1249-11.9409-3.3116-11.9439-12.0013-0.0041-9.0173 4.6684-10.411 12.1211-10.3946 66.0695 0.1464 132.1411-0.0932 198.2085 0.3338 10.3229 0.0666 18.3521-3.2829 25.1197-10.1868 28.9198-29.4973 26.0301-71.7292-1.964-99.755-4.2015-4.2066-9.643-3.4181-14.8818-3.414-67.9485 0.0492-135.8971 0.126-203.8446 0.0225-5.205-0.0082-11.7658 2.0972-14.1558-5.6381-2.944-9.5293 0.9032-14.2387 12.0545-14.2408 62.3165-0.0123 124.6331-0.0123 186.9496 0.1178 16.3994 0.0348 17.7777-0.9953 18.9-17.5063 0.7363-10.8431 1.4643-21.6883 2.0603-32.5407 1.2503-22.7512-7.7179-36.3817-28.4078-46.2838-28.671-13.7216-59.2783-18.5149-90.4182-21.1231-55.0779-4.6131-110.0257-1.492-165.1333 1.1264-41.2508 1.9599-62.1783 25.1341-73.4013 59.8333-20.1718 62.3616-25.94 126.6883-12.9679 191.0108 8.0036 39.6882 34.1729 69.2705 66.6122 93.268 19.0577 14.0984 38.7226 22.1481 63.4102 20.4401 29.8895-2.0675 60.03-0.4905 90.0628-0.4905C263.1363 210.5034 263.1363 210.5341 263.1363 210.5659zM225.4889 230.5236c-14.6207-0.0041-29.2444 0.1546-43.862-0.0758-6.6406-0.1044-9.856 2.5375-11.9982 9.0296-10.7438 32.5581-17.7121 65.8237-19.3833 100.0622-0.6441 13.1881 2.4269 26.028 6.9407 38.4573 10.8104 29.7738 42.1202 35.4918 62.6084 31.2719 26.6762-5.4948 43.5128-22.1297 52.734-47.0651 14.6668-39.6646 15.0088-80.5786 10.2052-121.9092-0.7864-6.7697-4.2629-9.8785-11.134-9.812C256.2304 230.6312 240.8591 230.5277 225.4889 230.5236zM347.9747 505.0058c-9.3338 33.0588 8.7398 72.6262 38.9366 82.0132 27.1708 8.446 50.3675-1.5667 64.5243-31.1316 15.3713-32.1024 12.1887-63.4368-11.136-91.5098-15.4102-18.5467-43.7862-23.0492-63.1204-10.2031-1.5227 1.0117-3.2399 1.9364-3.1334 4.2578 1.3455 2.5528 3.8758 1.6865 5.9689 1.8657 20.1175 1.7203 32.6277 16.1085 30.9494 36.3356-0.427 5.1415 0.1751 9.1914 3.2184 13.5926 4.4042 6.3693 2.7525 13.4564-2.2497 18.5446-5.3934 5.4866-12.2522 5.0514-18.4064 0.3942-3.0085-2.2764-5.634-4.521-9.8898-4.5005C368.7516 524.7363 355.286 521.4953 347.9747 505.0058zM712.6456 503.647c-8.6671 17.2155-21.8542 22.3662-38.1256 21.205-3.3905-0.2427-5.5491 1.9087-7.8244 3.8543-6.2433 5.3371-12.63 4.3919-18.4115-0.3471-5.719-4.6879-6.3887-11.5128-3.0065-17.364 3.0433-5.2654 3.4673-10.0915 3.2696-15.8925-0.6492-19.1007 10.8298-32.0758 29.6428-34.6368 2.4586-0.3348 5.3371 0.6625 8.3743-3.457-12.2266-8.489-24.8586-12.457-39.6861-9.1249-18.8539 4.2373-30.6831 16.8694-38.8291 33.1704-17.194 34.4064-7.895 81.3732 23.1946 100.5179 23.1813 14.2746 50.6716 8.8627 67.0792-12.9946C712.3446 549.899 718.7661 523.6631 712.6456 503.647z" transform="translate(0, 812) scale(1, -1)"/>
</svg>
