<svg id="图形" xmlns="http://www.w3.org/2000/svg" viewBox="214 -92.1 1024 1024"><style>.st0{fill:#fff}</style><path class="st0" d="M726-85.9c-282.8 0-512 229.2-512 512s229.2 512 512 512 512-229.2 512-512-229.2-512-512-512zm-256 256h512c9.1 0 18 2 26.1 5.7L726 504.9 443.9 175.7c8.1-3.6 17-5.6 26.1-5.6zm-64 448v-384c0-1.3.1-2.7.1-4L593.8 449 408.2 634.6c-1.4-5.3-2.2-10.9-2.2-16.5zm576 64H470c-5.7 0-11.2-.8-16.5-2.2l182.1-182.1L726 603.3l90.4-105.5 182.1 182.1c-5.3 1.4-10.8 2.2-16.5 2.2zm64-64c0 5.7-.8 11.2-2.2 16.5L858.2 449l187.7-218.9c.1 1.3.1 2.7.1 4v384z"/></svg>