<svg id="图层_1" xmlns="http://www.w3.org/2000/svg" viewBox="0 0 85 85"><style>.st0{fill:#ec6066}</style><path class="st0" d="M68.9 38.3h-4.2v4.2h-1.5v-4.2H59v-1.5h4.2v-4.2h1.5v4.2h4.2v1.5zM50.1 26c-3.1 0-5.5 2.7-5.5 6.3 0 3.7 2.5 7.3 5.5 7.3 3.1 0 5.5-3.6 5.5-7.3 0-3.7-2.4-6.3-5.5-6.3zm3.6 14.7l-3.5 11.1-3.6-11.1c-1.9 0-3.5.6-4.8 1.7 2.8 2.4 4.5 6.5 5 11.4h15.9c-.1-7.3-3.3-13.1-9-13.1z"/><path class="st0" d="M48.2 42.7l1.9 6.2 1.9-6.2-1.9-2.1-1.9 2.1zM29.7 23.2c-3.7 0-6.8 3.2-6.8 7.7s3 8.9 6.8 8.9 6.8-4.4 6.8-8.9-3-7.7-6.8-7.7zm4.4 17.9l-4.4 13.5-4.3-13.5c-2.3 0-4.2.8-5.8 2.1-2.8 2.3-4.5 6.5-5 11.4-.1.8-.1 1.7-.1 2.5H45c0-8.9-3.9-16-10.9-16z"/><path class="st0" d="M27.4 43.5l2.3 7.6 2.3-7.6-2.3-2.5-2.3 2.5z"/></svg>