<svg id="图层_1" xmlns="http://www.w3.org/2000/svg" xmlns:xlink="http://www.w3.org/1999/xlink" viewBox="0 0 85 85"><style>.st0{enable-background:new}</style><g class="st0"><defs><path id="SVGID_1_" d="M45.7 27.1c-2.9.6-5.5 2-7.6 3.8H21s-2-1.2-2-2.4c0-1.3 2-2.5 2-2.5h24.7v1.1zM33.3 38H21s-2-1.2-2-2.4 2-2.5 2-2.5h15c-1.1 1.4-2.1 3.1-2.7 4.9zm-1 5.6c0 .5 0 .9.1 1.4H21s-2-1.1-2-2.3c0-1.3 2-2.7 2-2.7h11.7c-.2 1.2-.4 2.4-.4 3.6zm2.3 8.5H21s-2-1.3-2-2.5 2-2.4 2-2.4h11.7c.4 1.7 1 3.3 1.9 4.9zm7.8 7H21s-2-1.3-2-2.5 2-2.4 2-2.4h15c1.7 2.1 3.9 3.8 6.4 4.9zm-7.3-15.5c0-8.5 6.9-15.5 15.4-15.5S65.9 35 65.9 43.6c0 8.5-6.9 15.5-15.4 15.5s-15.4-6.9-15.4-15.5zm15.4 11.5C56.9 55.1 62 50 62 43.6s-5.1-11.5-11.5-11.5S39 37.2 39 43.6c0 6.3 5.2 11.5 11.5 11.5zm.1-21.3c5.4 0 9.8 4.4 9.8 9.8s-4.4 9.8-9.8 9.8-9.8-4.4-9.8-9.8c-.1-5.4 4.3-9.8 9.8-9.8zm-4.9 8.4v1.4h3.5v2.1h-3.5v1.4h3.5v3.5H52v-3.5h4.2v-1.4H52v-2.1h4.2v-1.4H52l3.5-3.5-2.8-.7-2.1 3.5-2.1-3.5-2.8.7 3.5 3.5h-3.5z"/></defs><use xlink:href="#SVGID_1_" overflow="visible" fill="#f29333"/><clipPath id="SVGID_2_"><use xlink:href="#SVGID_1_" overflow="visible"/></clipPath></g></svg>