<svg id="图层_1" xmlns="http://www.w3.org/2000/svg" xmlns:xlink="http://www.w3.org/1999/xlink" viewBox="0 0 85 85"><style>.st0{enable-background:new}</style><g class="st0"><defs><path id="SVGID_1_" d="M60.3 66H23.7c-.9 0-1.7-.7-1.7-1.6v-25c0-.9.7-1.6 1.7-1.6h5V32c0-6.7 5.8-12.1 12.9-12.1h.8c7.1 0 12.9 5.4 12.9 12.1v5.8h5c.9 0 1.7.7 1.7 1.6v25c0 .9-.7 1.6-1.7 1.6zM36 51v2h4v2h-4v2h4v4h4v-4h4v-2h-4v-2h4v-2h-4l4-6h-4l-2 4-2-4h-4l4 6h-4zm12.7-19.2c0-3.5-2.2-6.2-5.8-6.2H42c-3.7 0-6.7 2.8-6.7 6.2V38h13.3v-6.2h.1z"/></defs><use xlink:href="#SVGID_1_" overflow="visible" fill="#ec5f64"/><clipPath id="SVGID_2_"><use xlink:href="#SVGID_1_" overflow="visible"/></clipPath></g></svg>