<svg xmlns="http://www.w3.org/2000/svg" width="1024" height="1024" viewBox="0 0 1024 1024"><path fill="#fff" d="M945.145 135.162c0-9.39-1.574-18.296-3.8-26.908l-3.09-10.872c-13.595-36.032-45.967-61.406-83.813-61.406h-675.34c-17.277 0-33.26 5.564-47.002 14.732l-1.185-.727-1.957 2.587C104.52 70.34 88.382 100.67 88.382 135.163v738.412c0 54.77 40.614 99.177 90.72 99.177h675.34c50.094 0 90.702-44.407 90.702-99.177V821.66h.006V135.162h-.005zm-97.172-40.55c5.007 0 9.74 1.014 14.266 2.49L514.04 282.233 198.934 94.612h649.04zm41.905 73.43v617.244l-.008-.006v75.554c0 28.23-20.96 51.12-46.806 51.12H190.46c-25.857 0-46.802-22.89-46.802-51.12V148.04c0-7.824 1.733-15.152 4.613-21.768l368.49 219.795 372.43-205.38c.325 2.424.68 4.835.68 7.352l.346 20.004h-.338zM486.686 562.807L417.75 443.538c-5.355-9.265-17.448-12.58-26.864-7.148-9.483 5.468-12.657 17.435-7.236 26.813l57.57 99.603h-47.563c-10.964 0-19.822 8.805-19.822 19.666 0 10.937 8.875 19.666 19.822 19.666h98.305v58.997h-98.305c-10.964 0-19.822 8.805-19.822 19.666 0 10.938 8.875 19.667 19.822 19.667h98.305v78.614c0 10.752 8.814 19.716 19.687 19.716 10.948 0 19.687-8.826 19.687-19.715V700.47h98.304c10.965 0 19.823-8.805 19.823-19.666 0-10.936-8.874-19.665-19.822-19.665h-98.303v-58.997h98.304c10.965 0 19.823-8.805 19.823-19.666 0-10.937-8.874-19.666-19.822-19.666h-52.836l57.57-99.603c5.42-9.377 2.246-21.344-7.236-26.813-9.417-5.43-21.51-2.117-26.865 7.148L531.34 562.81h-44.65z"/></svg>