<svg id="图层_1" xmlns="http://www.w3.org/2000/svg" viewBox="214 -92.1 1024 1024"><style>.st0{fill:#fff}</style><path class="st0" d="M1144.7 518.1c-53.7-93.1-21.4-212.3 72.2-266.5L1116.3 77.4c-28.8 16.9-62.2 26.5-97.8 26.5-107.5 0-194.7-87.7-194.7-196H622.4c.3 33.4-8.1 67.3-26 98.3C542.7 99.3 423.2 130.9 329.5 77L229 251.2c29 16.5 54.1 40.6 71.9 71.5 53.6 92.9 21.5 211.9-71.7 266.2l100.6 174.3c28.7-16.7 61.9-26.3 97.4-26.3 107.2 0 194.1 87.2 194.7 195h201.3c-.1-33.1 8.3-66.6 26-97.2 53.6-92.9 172.8-124.6 266.4-71l100.6-174.3c-28.8-16.5-53.7-40.5-71.5-71.3zM722.9 627.2c-114.5 0-207.3-92.8-207.3-207.3 0-114.5 92.8-207.3 207.3-207.3s207.3 92.8 207.3 207.3c.1 114.5-92.8 207.3-207.3 207.3z"/></svg>