<svg xmlns="http://www.w3.org/2000/svg" xmlns:xlink="http://www.w3.org/1999/xlink" viewBox="0 0 85 85"><defs><path id="a" d="M55.6 62l-2.5-2.5c3.9-4.4 6.3-10.2 6.3-16.5S57 30.9 53.1 26.5l2.5-2.5c4.6 5.1 7.4 11.7 7.4 19s-2.8 14-7.4 19zm-3.9-6.7l-2.5-2.5c2.2-2.7 3.5-6.1 3.5-9.8s-1.3-7.1-3.5-9.8l2.5-2.5c2.8 3.3 4.5 7.6 4.5 12.2 0 4.8-1.7 9.1-4.5 12.4zm-7.5 1.6c-.6 0-1.1-.2-1.6-.5L33.5 50h-8.9c-1.5 0-2.7-1.2-2.7-2.6v-8.7c0-1.4 1.2-2.6 2.7-2.6h8.8l9-7.2c.5-.4 1-.6 1.7-.6 1.5 0 2.7 1.2 2.7 2.6v23.4c0 1.5-1.2 2.6-2.6 2.6z"/></defs><use xlink:href="#a" overflow="visible" fill="#18a95c"/></svg>