<svg xmlns="http://www.w3.org/2000/svg" xmlns:xlink="http://www.w3.org/1999/xlink" viewBox="0 0 85 85"><defs><path id="a" d="M60.3 66H23.7c-.9 0-1.7-.7-1.7-1.6v-25c0-.9.7-1.6 1.7-1.6h5V32c0-6.7 5.8-12.1 12.9-12.1h.8c7.1 0 12.9 5.4 12.9 12.1v5.8h5c.9 0 1.7.7 1.7 1.6v25c0 .9-.7 1.6-1.7 1.6zM47 60l-3-7.5c1.2-.7 2-2 2-3.5 0-2.2-1.8-4-4-4s-4 1.8-4 4c0 1.5.8 2.8 2 3.5L37 60h10zm1.7-28.2c0-3.5-2.2-6.2-5.8-6.2H42c-3.7 0-6.7 2.8-6.7 6.2V38h13.3v-6.2h.1z"/></defs><use xlink:href="#a" overflow="visible" fill="#00b25e"/></svg>