<svg id="图层_1" xmlns="http://www.w3.org/2000/svg" viewBox="0 0 85 85"><style>.st0{fill:#ec6066}</style><path class="st0" d="M46.6 31.3c-.7-.5-1.7-.4-2.2.3l-4.3 5.7-4.3-5.7c-.5-.7-1.5-.8-2.2-.3-.7.5-.8 1.5-.3 2.2l3.8 5h-1.9c-.9 0-1.6.7-1.6 1.6 0 .9.7 1.6 1.6 1.6h3.4v.9h-3.4c-.9 0-1.6.7-1.6 1.6s.7 1.6 1.6 1.6h3.4v2.5c0 .9.7 1.6 1.6 1.6.9 0 1.6-.7 1.6-1.6v-2.5H45c.9 0 1.6-.7 1.6-1.6s-.7-1.6-1.6-1.6h-3.4v-.9H45c.9 0 1.6-.7 1.6-1.6 0-.9-.7-1.6-1.6-1.6h-1.9l3.8-5c.5-.7.4-1.7-.3-2.2z"/><path class="st0" d="M40.2 55.6c-5 0-9.5-2.4-12.4-6.1l3.1-3.1h-9.6v9.8l3.6-3.6c3.6 4.5 9.1 7.3 15.3 7.3 9.9 0 18-7.2 19.5-16.6h-4.3c-1.4 6.9-7.7 12.3-15.2 12.3zm18.7-31.3l-3.3 3.4c-3.6-4.5-9.2-7.4-15.4-7.4-9.9 0-18.1 7.3-19.5 16.9h4.2c1.3-7.2 7.7-12.7 15.3-12.7 5.1 0 9.6 2.4 12.5 6.2l-3.4 3.4H59l-.1-9.8z"/></svg>