<svg xmlns="http://www.w3.org/2000/svg" viewBox="214 -92.1 1024 1024"><path d="M1159.7-56.9c-18.7-18.7-49.1-18.7-67.9 0L889.7 145.2C837.8 129.5 782.8 121 725.9 121 502.6 121 309.1 251 214 440.9c41.1 82.1 100.6 153 173 207l-158.9 159c-18.7 18.7-18.7 49.1 0 67.9 9.4 9.4 21.6 14.1 33.9 14.1 12.3 0 24.6-4.7 33.9-14.1L1159.7 11c18.7-18.8 18.7-49.1 0-67.9zM629.9 249c42.2 0 78.1 27.3 90.9 65.2L599.1 435.8c-37.9-12.8-65.2-48.7-65.2-90.9 0-53 43-95.9 96-95.9zM324.1 440.9c38.3-60.5 89.2-111.9 149.4-150.3 3.9-2.5 7.9-4.9 11.9-7.3-10 27.3-15.4 56.8-15.4 87.6 0 54.9 17.3 105.7 46.7 147.4l-60.9 60.9c-52.5-36.8-97.3-83.8-131.7-138.3zm657.7-70c0-27.2-4.3-53.3-12.1-77.9L648 614.8c24.6 7.8 50.7 12.1 77.9 12.1 141.3 0 255.9-114.6 255.9-256z"/><path d="M1043.8 219l-69.3 69.3c1.3.8 2.5 1.6 3.8 2.4 60.1 38.4 111.1 89.7 149.4 150.3-38.3 60.5-89.2 111.9-149.4 150.3-75.6 48.2-162.8 73.7-252.4 73.7-38.7 0-76.9-4.8-113.9-14l-77 76.7c59.7 21.5 123.9 33.1 190.8 33.1 223.2 0 416.8-130 511.9-319.9-45-89.9-112.1-166.3-193.9-221.9z"/></svg>