<svg style="width:308px;height:308px" xmlns="http://www.w3.org/2000/svg" width="1024" height="1024" viewBox="0 0 1024 1024"><path class="svgpath" data-index="path_0" fill="#fff" d="M753.168 194.2c28.206 20.059 53.283 42.782 75.221 68.169 21.938 25.386 40.741 52.806 56.412 82.267 15.67 29.462 27.583 60.65 35.73 93.555 8.146 32.908 12.221 66.285 12.221 100.137 0 58.294-11.123 112.98-33.375 164.072-22.252 51.084-52.34 95.59-90.263 133.506-37.926 37.927-82.431 68.012-133.517 90.265-51.08 22.255-105.776 33.38-164.062 33.38-57.672 0-112.05-11.125-163.135-33.38-51.09-22.253-95.746-52.338-133.983-90.265-38.24-37.923-68.325-82.426-90.263-133.506-21.942-51.091-32.908-105.778-32.908-164.079 0-33.217 3.913-65.812 11.75-97.78 7.837-31.969 18.961-62.367 33.375-91.205 14.425-28.83 32.287-55.784 53.598-80.852 21.31-25.077 45.131-47.642 71.459-67.702 13.792-10.03 28.676-13.791 44.66-11.285 15.984 2.511 28.992 10.343 39.022 23.508 10.029 13.167 13.79 27.897 11.285 44.195-2.513 16.298-10.344 29.457-23.51 39.491-39.49 28.83-69.735 64.245-90.732 106.242s-31.493 87.13-31.493 135.39c0 41.37 7.832 80.395 23.504 117.062 15.67 36.67 37.136 68.635 64.401 95.903 27.27 27.269 59.237 48.894 95.91 64.877 36.666 15.984 75.681 23.975 117.06 23.975 41.367 0 80.387-7.991 117.054-23.975 36.671-15.983 68.638-37.608 95.908-64.877 27.265-27.267 48.889-59.232 64.874-95.903 15.983-36.667 23.974-75.693 23.974-117.062 0-48.888-11.281-95.119-33.847-138.681-22.566-43.561-54.219-79.45-94.962-107.655-13.788-9.401-22.095-22.25-24.915-38.549s.465-31.34 9.868-45.132c9.407-13.163 22.256-21.158 38.554-23.973 16.29-2.821 31.328.466 45.125 9.867zM511.535 541.148c-16.302 0-30.252-5.796-41.845-17.392-11.596-11.6-17.395-25.55-17.395-41.846V124.624c0-16.298 5.799-30.404 17.395-42.312 11.593-11.91 25.543-17.862 41.845-17.862 16.921 0 31.179 5.952 42.778 17.862 11.594 11.908 17.391 26.014 17.391 42.312V481.91c0 16.297-5.797 30.247-17.39 41.846-11.6 11.595-25.858 17.392-42.78 17.392zm0 0"/></svg>