<?xml version="1.0" standalone="no"?><!DOCTYPE svg PUBLIC "-//W3C//DTD SVG 1.1//EN" "http://www.w3.org/Graphics/SVG/1.1/DTD/svg11.dtd"><svg t="1487490720607" class="icon" style="" viewBox="0 0 1024 1024" version="1.1" xmlns="http://www.w3.org/2000/svg" p-id="2196" xmlns:xlink="http://www.w3.org/1999/xlink" width="150" height="150"><defs><style type="text/css"></style></defs><path d="M832.631508 337.449545c-46.623877-46.623877-108.61372-72.300676-174.549431-72.300676L365.917924 265.148869c-65.936735 0-127.925554 25.676799-174.550455 72.300676-46.623877 46.623877-72.300676 108.61372-72.300676 174.549431 0 65.935712 25.676799 127.925554 72.300676 174.550455 46.623877 46.623877 108.61372 72.300676 174.550455 72.300676l292.164153 0c65.936735 0 127.926578-25.676799 174.549431-72.300676 46.623877-46.623877 72.300676-108.614743 72.300676-174.550455C904.932184 446.063265 879.255385 384.073422 832.631508 337.449545zM658.082076 717.918883 365.917924 717.918883c-113.544009 0-205.918883-92.374874-205.918883-205.918883 0-113.544009 92.374874-205.918883 205.918883-205.918883l292.164153 0c113.544009 0 205.918883 92.374874 205.918883 205.918883C863.999936 625.544009 771.626086 717.918883 658.082076 717.918883z" p-id="2197"></path><path d="M343.852372 423.995667 302.920124 423.995667 302.920124 491.533876 235.381915 491.533876 235.381915 532.465101 302.920124 532.465101 302.920124 600.004333 343.852372 600.004333 343.852372 532.465101 411.390581 532.465101 411.390581 491.533876 343.852372 491.533876Z" p-id="2198"></path><path d="M665.836691 370.612852c-36.112476 0-65.491597 29.379121-65.491597 65.491597s29.379121 65.491597 65.491597 65.491597 65.491597-29.379121 65.491597-65.491597S701.949166 370.612852 665.836691 370.612852zM665.836691 470.89686c-19.184945 0-34.792411-15.607466-34.792411-34.792411s15.607466-34.792411 34.792411-34.792411 34.792411 15.607466 34.792411 34.792411S685.021635 470.89686 665.836691 470.89686z" p-id="2199"></path><path d="M665.836691 529.736966c-36.112476 0-65.491597 29.379121-65.491597 65.491597s29.379121 65.491597 65.491597 65.491597 65.491597-29.379121 65.491597-65.491597S701.949166 529.736966 665.836691 529.736966zM665.836691 630.020974c-19.184945 0-34.792411-15.607466-34.792411-34.792411s15.607466-34.792411 34.792411-34.792411 34.792411 15.607466 34.792411 34.792411S685.021635 630.020974 665.836691 630.020974z" p-id="2200"></path></svg>