<?xml version="1.0" standalone="no"?><!DOCTYPE svg PUBLIC "-//W3C//DTD SVG 1.1//EN" "http://www.w3.org/Graphics/SVG/1.1/DTD/svg11.dtd"><svg t="1487491016693" class="icon" style="" viewBox="0 0 1024 1024" version="1.1" xmlns="http://www.w3.org/2000/svg" p-id="9273" xmlns:xlink="http://www.w3.org/1999/xlink" width="150" height="150"><defs><style type="text/css"></style></defs><path d="M748.208 848.978c-1.85-131.64-109.23-257.99-240.934-257.99-131.93 0-239.432 126.76-240.947 258.62-0.008 0.58-0.013 12.9-0.013 22.45-21.355-14.13-29.995-21.25-44.832-33.91 0.028-1.26 0.057-2.26 0.09-2.9 1.813-37.17 9.212-84.32 22.055-114.69 14.415-34.08 35.042-64.68 61.315-90.95 26.27-26.27 56.87-46.9 90.947-61.31 35.29-14.93 72.765-22.5 111.385-22.5 38.62 0 76.095 7.57 111.39 22.5 34.075 14.41 64.675 35.04 90.945 61.31 26.27 26.27 46.9 56.87 61.315 90.95 13.435 31.77 20.91 81.91 22.27 119.77 0.035 0.99 0.065 3.38 0.095 6.52-19.61 16.12-29.695 22.05-44.985 31.99C748.258 878.568 748.228 850.128 748.208 848.978zM507.434 591.148c-44.25 0-85.852-17.23-117.14-48.52-31.287-31.302-48.517-72.897-48.517-117.15 0-44.245 17.23-85.845 48.517-117.135 31.29-31.29 72.89-48.525 117.14-48.525 44.255 0 85.855 17.235 117.145 48.525 31.29 31.29 48.52 72.887 48.52 117.135 0 44.252-17.23 85.847-48.52 117.15C593.289 573.918 551.689 591.148 507.434 591.148zM507.434 305.002c-66.43 0-120.48 54.05-120.48 120.482 0 66.43 54.05 120.485 120.48 120.485 66.435 0 120.485-54.052 120.485-120.485C627.918 359.049 573.868 305.002 507.434 305.002z" p-id="9274"></path></svg>