<svg id="图层_1" xmlns="http://www.w3.org/2000/svg" viewBox="15 7.1 116.2 70.9"><style>.st0{fill:#fff}</style><path class="st0" d="M41.4 30L40 36.5l2.8-.9-7.1 36.7L51 68l7.9-44.3zm-1.8-10.8l-17.4 6.1-1.4 6.5 2.8-.8-7.1 36.7 15.2-4.3zM67.1 38l-7.2 2.1-1.7 8.6 7.2-2.1zm17 28.6L85 62l-23.6 6.8L64.9 50l-7.3 2-4.3 23.4z"/><path class="st0" d="M129 14.7l-29.8 8.4c-.1 0-.3.1-.4.4l-6 22.8c-.1.4.3.8.6.6l9.5-2.6c.5-.8 1.2-1.6 1.9-2.2 1-.9 2.3-1.7 3.8-2.1 2.1-.6 3.4-.3 4.2 1 .6 1.3.8 3.4.3 6.1-.4 2.5-1.2 4.5-2.3 6.1-.3.4-.5.6-.8.9l-.3.3c-1.9 1.4-3.8 2.1-5.3 1.8-.5-.1-1-.3-1.6-.5-.3-.1-.5-.4-.6-.8-1.2-1.8-.4-4.8-.3-5.4l-19.3 5.3.9-4.5 4-1.2.8-4.3-7 2.1 1-5.3 7-2.1.8-3.8-7.5 2.3.9-4.8-5.7 1.7-.9 4.8-4 1.2.9-4.8-5.1 1.4-1.6 8.6 9.1-2.6-1 5.3-9.1 2.7-.8 4.3 3.8-1.2-1 5.7-3.6 1-.9 4.2 9.1-2.6 1.8-9.9 4.3-1.3-1.8 9.9 12.2-3.2c.4-.1.6.1.6.5 0 2.9 1.2 4.8 3.6 6.1 3 1.6 6.7 1.7 11.2.5 5.8-1.7 10.4-4.4 13.5-8.2s5.2-8.2 6.1-13.2c.9-5.3.4-9.2-1.6-11.4-1.9-2.2-5.1-2.7-9.6-1.3-1.7.5-3.2 1.2-4.7 1.9-.9.5-1.7 1-2.5 1.6-.4.3-.9-.1-.8-.5l1.3-4.4c0-.1.1-.3.4-.4l21.3-6c.1 0 .4-.3.4-.4l1.3-7.8c-.1-.5-.4-.7-.7-.7zm-25.1-.4c-.3 1.3-.8 2.5-1.7 3.5-.9 1-2.1 1.7-3.4 2.1s-2.3.3-3-.3-.9-1.4-.6-2.7.8-2.5 1.7-3.5c.9-1 2.1-1.7 3.4-2.1 1.3-.4 2.3-.3 3 .3.6.6.7 1.5.6 2.7zm-4-1.1c-.6.1-1.2.5-1.6 1s-.6 1.2-.8 1.9c-.3 1.6.3 2.2 1.6 1.8 1.3-.4 2.1-1.4 2.3-3 .3-1.4-.2-2.1-1.5-1.7zm-7.4 7.4c-.8 1-1.7 1.7-2.9 1.9-1 .3-1.7.1-2.1-.5l-.3 1-2.3.6 1.9-11.9 2.3-.6-.8 5.1c.8-1.2 1.7-1.8 2.9-2.2 1-.3 1.8-.1 2.2.4.5.5.6 1.4.4 2.7 0 1.3-.5 2.5-1.3 3.5zm-1.2-4.2c-.3-.3-.6-.4-1.2-.3-.5.1-1 .5-1.4 1s-.6 1-.8 1.7l-.1.8c-.1.5 0 .9.3 1.2s.6.4 1.2.1c.6-.1 1-.5 1.6-1 .4-.5.6-1.3.8-2.1 0-.7-.1-1.2-.4-1.4zm-8.1-1.1c-.4.1-.6.1-.9-.1-.3-.1-.3-.4-.3-.8s.3-.6.5-1c.3-.3.6-.5 1-.6s.8-.1.9 0c.3.1.3.4.3.8s-.3.6-.5 1-.5.6-1 .7zm-.3 9.1l-2.3.6 1.3-8 2.3-.6-1.3 8zm-3.4-2.2l-5.3 1.6c-.1 1.2.5 1.7 1.9 1.2.9-.3 1.7-.8 2.5-1.3l-.3 1.7c-.8.6-1.8 1.2-3 1.4-1.3.4-2.2.3-2.9-.3-.6-.5-.8-1.4-.5-2.7.3-1.3.8-2.5 1.7-3.5.9-1 1.9-1.7 3.1-2.1s1.9-.3 2.6.3c.5.5.6 1.3.5 2.6l-.3 1.1zM76.4 20c-.4.1-.8.4-1.2.8-.4.4-.6.9-.8 1.4l3.1-.9c.2-1.1-.2-1.6-1.1-1.3zm-6.2 1.4c-.5.5-1 1-1.7 1.4.8-.1 1.4 0 1.8.3.4.4.5.9.4 1.6-.1 1-.6 1.9-1.6 2.7-.8.8-1.9 1.4-3.1 1.8l-4.3 1.3 1.8-11.3 4-1.2c1.3-.4 2.2-.4 2.7-.1.6.3.8.8.6 1.7.2.6-.2 1.3-.6 1.8zm-5.7 6.8l1.4-.4c.6-.1 1.2-.5 1.6-.9s.6-.8.6-1.3c.1-.5 0-.8-.4-.9-.3-.1-.8-.1-1.4 0l-1.4.4-.4 3.1zm2.2-8.1l-1 .4-.5 2.7 1.2-.4c.5-.1 1-.4 1.4-.8s.5-.8.6-1.3c.1-.7-.4-1-1.7-.6z"/></svg>