<svg id="图层_1" xmlns="http://www.w3.org/2000/svg" viewBox="9 7.1 104.9 70.9"><style>.st0{fill:#fff}.st1{fill:none}</style><path class="st0" d="M111.3 21.3c-.5.1-1.3 1-3 2.9-1.9 2.1-5 5.6-7 7.5-.6-.6-1.1-1-1.9-1.2 3.2-2.9 7.8-7.8 9.4-11.2.6.5 2 1.1 2.6 1.2.8.1.6.5-.1.8zm-10.8 2.8c-1 .2-2.3.7-8.1 3.2-3.6 1.6-6.7 2.7-8.5 3.5-.1-1-.2-1.8-.5-2.3 1.7-.5 4.1-1.4 8.2-3.1 2.6-1.1 5.8-2.7 7.9-3.9.2 1 .7 1.6 1.3 2.1.3.2.2.4-.3.5zm-24.9-.3c-8.2-1.6-17.3 1.6-22.7 6.2L46 31.8c2.4-3.7 7.8-7.4 14.1-9.5V18l-3.6.8v-3.6L71.3 11l-.7 4.2-3.6.8v4.4c1.7-.2 3.3-.4 4.9-.4 4.2.1 8.1.6 11.7 1.6l-7.8 2c0 .2-.1.2-.2.2zM48.7 51c-.5-.7-1.4-1.3-2.3-1.7 3.9-3.3 7.2-7.5 9.3-11 1.6-2.4 2.5-4.4 3.5-6.3 1 .2 2.6.5 3.2.4.5 0 .5.4-.1.7-1 .6-1.4 1.1-2.1 2.5-2.4 4.3-7.4 11-11.5 15.4zm8.7-3.1c-2.3.6-3.1.8-4.7 1.4l.5-3.2c1.1-.1 3.5-.6 7-1.6 4.3-1.1 9.7-2.6 11.2-3.1l-3.3 13.9c-.7 2.9-2 3.9-6.9 5.8 0-1.2-.4-2.4-1-3.3 3.7-.6 4.8-1.3 5.6-4.4l2-8.2-7.6 2c-.7 3.2-2 6.4-3.7 8.8-2.6 3.8-4.8 6-8 8.5-.6-.7-1.7-1.3-2.7-1.4 4.1-2.5 6.9-5.4 8.2-7.4 1.7-2.7 2.6-4.8 3.4-7.8zM34.9 47c-1.2-1.7-2-4.8-2.4-8l3-1.3c.4 3.2 1.1 5.6 2.3 6.9 2 2 3.9 2.9 6.4 3.2-1.1 1.1-2.1 2.5-3.1 4.1-2.7-1.3-4.7-2.8-6.2-4.9zm7.9-15.6c-.6.7-1.4 1.2-2.5 1.6-.8.2-1.6.2-2-.1-.6-.4-.8-1.1-.6-1.9.1-.8.6-1.7 1.2-2.4s1.4-1.2 2.5-1.6 1.9-.2 2.4.2c.4.4.5 1 .4 1.8-.4 1-.8 1.7-1.4 2.4zm-1.1-2.7c-.1-.2-.4-.2-.7-.1-.4.1-.6.2-.8.6-.2.4-.4.7-.5 1.2s0 .8.1 1.1c.1.2.4.2.7.1.4-.1.6-.2.8-.6.2-.2.4-.7.5-1.2.1-.5.1-.9-.1-1.1zM28.6 41.9c-1 .6-1.4 1.1-2.1 2.5-2.4 4.3-7.3 10.9-11.6 15.4-.5-.7-1.4-1.3-2.3-1.7 3.9-3.3 7.2-7.5 9.3-11 1.6-2.4 2.5-4.4 3.5-6.3 1 .2 2.6.5 3.2.4.6 0 .6.4 0 .7zm7.7-9c-.2.5-.6 1-1 1.3-.4.4-.8.6-1.2.7-.4.1-.7.1-1 0-.2-.1-.5-.2-.6-.5l-.4.8-1.9.5 1.2-7.8 2.1-.6-.3 2.8c.2-.2.5-.5.8-.7.2-.2.6-.4 1-.5.7-.2 1.2-.1 1.6.2.4.4.5 1 .4 1.9-.3.7-.5 1.3-.7 1.9zm-1.7-2.1c-.1-.1-.4-.2-.6-.1s-.6.2-.7.5c-.2.2-.4.6-.5 1.1-.1.5 0 .8.1 1s.4.2.6.1c.2-.1.5-.2.7-.5.2-.2.4-.6.5-1.2.1-.4 0-.6-.1-.9zm-6.8-.3l.2-1.4 2.1-.6-.2 1.4-2.1.6zm1.1 5.7l-2.1.6 1-5.6 2.1-.6-1 5.6zm-2.8-1.4L21.8 36c0 .4 0 .6.1.7.1.2.4.2.7.1.2-.1.4-.1.6-.4l.5-.5 2-.4c-.4.7-.8 1.2-1.3 1.6-.5.4-1.2.7-2 1-.7.2-1.3.2-1.7.2-.4-.1-.7-.4-.8-.7-.2-.4-.2-.8-.1-1.6s.5-1.7 1.2-2.4c.6-.7 1.4-1.2 2.4-1.4.8-.2 1.4-.2 1.8-.2.5.1.7.4.8.7.1.4.2 1 .1 1.7v.4zm-2.3-1.2c-.1-.1-.4-.1-.7-.1-.4.1-.6.4-.8.6-.1.2-.2.5-.4.8l2.1-.6c.1-.3.1-.6-.2-.7zm-5.3 1.2c-.2.2-.5.5-1 .7.5 0 1 .1 1.1.4.2.2.2.6.2 1.1-.1.4-.2.8-.5 1.2s-.5.7-.8 1c-.2.1-.5.4-1 .5-.6.2-1 .4-1.1.4l-4 1 1.2-7.8L17 32c.7-.2 1.3-.2 1.6.1.4.2.5.7.4 1.2 0 .6-.2 1.1-.5 1.5zm-4.4 4.1l1.2-.4c.4-.1.7-.2 1-.5.2-.2.4-.4.4-.7 0-.2 0-.4-.1-.5s-.5-.1-.8 0l-1.2.4-.5 1.7zm2.5-4.9c-.1-.1-.4-.1-.7 0l-1.1.4-.2 1.4 1.1-.4c.4-.1.6-.2.8-.5.1-.1.2-.4.4-.6-.2 0-.2-.1-.3-.3zm7 22.6c-2.3.6-3.1.8-4.7 1.4l.5-3.2c1.1-.1 3.5-.6 7-1.6 4.3-1.1 9.7-2.6 11.2-3.1l-3.3 13.8c-.7 2.9-2 3.9-6.9 5.8 0-1.2-.4-2.4-1-3.3 3.7-.6 4.8-1.3 5.6-4.4l2-8.2-7.6 2c-.7 3.2-2 6.4-3.7 8.8-2.6 3.8-4.8 6-8 8.5-.6-.7-1.7-1.3-2.7-1.4 4.1-2.5 6.9-5.4 8.2-7.4 1.7-2.5 2.8-4.7 3.4-7.7zm45.1-18.3c-1.2-1.7-2-4.8-2.4-8l3-1.3c.4 3.2 1.1 5.6 2.3 6.9 2 2 3.9 2.9 6.4 3.2-1.1 1.1-2.1 2.5-3.1 4.1-2.8-1.3-4.8-3-6.2-4.9zM53.5 70.2c7.4-1.7 14.1-5.1 19.7-9.3l6.4-1.7c-6.4 6.2-15.5 12.3-25.9 14.6-7.3 1.7-15.1.5-21.8-2.3l6.1-1.6c5.2 1.2 10.5 1.5 15.5.3zM86 31.5c.4 1.4.6 2.9.6 4.7l-2.7 1.2c.1-1.8 0-3.3-.4-4.8l2.5-1.1zm5.9-2.3c.2 1.4.5 2.9.5 4.5l-2.7 1.1c.1-1.8 0-3-.2-4.5l2.4-1.1zm2.2 4.3c1.3-2 2.5-4.4 3.6-6.7 1 .2 2 .2 2.5.2.6-.1.6.1 0 .6-.6.6-1.8 2.4-4.1 6.1-.6-.2-1.3-.4-2-.2zm-6.8 8.3c-2.9.8-5 1.4-6.7 2l.5-2.7c1.8-.4 4.2-.8 7.5-1.7.1-1.2.2-2.3.2-2.9 1-.1 2.5-.4 3.2-.7.7-.2.8-.1.1.6-.2.2-.7 1.2-1 2.4 3.2-.8 5.5-1.6 7.3-2.1l-.5 2.7c-1.7.4-4.1.8-7.2 1.6l-1.2 7c-.4 1.9-.6 4.4-.7 6l-3.1.8c.5-1.6 1-4.2 1.2-6.1l.7-4.8c-2.1 3.8-4.3 6.8-7.2 10.1-.7-.6-1.4-.8-2.5-1 3.7-2.9 6.5-6.1 9.4-11.2zm10 2.9L95 47.3c-1.2-1.3-2.4-2.1-4.2-2.9l1.9-2.1c1.8.7 3.1 1.4 4.6 2.4zm12.1-5.2c.6.2.5.5-.2.8-.7.4-1.4 1.1-3.1 2.7-4.4 4.5-5.6 5.5-10.6 9.3-.2-.6-1-1.4-1.9-1.9 6.3-4.1 10.1-7.6 13.6-12.6.8.7 1.8 1.6 2.2 1.7zm-10.7 2.2c-.4-.7-1-1.2-1.7-1.6 4.7-3.6 8.9-8.6 10.7-11.7.2.5 1.2 1.2 2 1.4.6.2.5.6-.2 1-.4.2-2 1.7-3 2.9-.8 1.5-5.4 6.1-7.8 8z"/><path class="st1" d="M133.6-8576.2v16383"/></svg>