<svg id="图层_1" xmlns="http://www.w3.org/2000/svg" viewBox="15 7.1 116.2 70.9"><style>.st0{fill:#fff}</style><path class="st0" d="M118.8 24.8c-.1 0-.1 0-.3-.1-1.1-.5-2-1.1-3.1-1.3 4.2-3.6 7.7-8 10.4-13.2.9.3 2.3.8 4.2 1.6-4.1 5.1-7.7 9.4-11.2 13zm-21-5.4c8.5-2.4 14.6-5 17.8-7.4.3-.1.4-.3.4-.3 1.6 1.8 2.6 3.1 2.8 4-7.6 3-14 5.4-19.7 7.6-.2-1.5-.6-2.7-1.3-3.9zm1.7 10.5c-.5-2.2-1.1-3.6-1.3-4.6 1.3-.8 2.7-1.6 3.9-2.4.8 2.3 1.3 4 1.6 5.3-1.3.8-2.7 1.6-3.9 2.3-.2-.4-.3-.5-.3-.6zm9.5-9.5c.1 2 .3 3.9.3 5.5-.5.1-1.3.4-2.2.7-.9.4-1.6.7-2.2.7.1-2.4.1-4.3-.1-5.5l4.2-1.4zm4.5-1.9c1.8.1 3.1.4 4 .4 0 .1-.4.7-.9 1.8-1.3 2.3-2.7 4.3-3.9 6.5-1.1-.1-2.2-.1-3.2-.1.1-.4.4-.9.7-1.5 1.7-3.5 2.8-5.8 3.3-7.1zm-9.3 10.2c1.5-.3 2.7-.5 3.5-.8.8-.1 1.2-.1 1.3-.1 0 .3-.1.4-.3.7-.1.3-.3.7-.3.9l7.2-2-.7 3.9-7.3 2.2-.4 2.7 2.7-2.3c1.2 1.3 2.7 2.8 4.3 4.7-1.3 1.1-2.7 2.3-4 3.8-.9-1.3-2-2.7-3.4-4l-1.5 10.4-4.5 1.2 1.5-9.4c-2 3-4.5 5.5-7 7.8-1.1-.8-2-1.3-2.8-1.9 4.2-3.9 7.2-7.7 9.2-11.6L95 36.8l.7-3.9 8.4-2.3.1-1.9zm-13.1 2.5l-4.5 1.2-3 18.4c-.1 2.7-3.1 4.9-8.8 6.6-.1-2-.4-3.5-.5-4.5 3.1-.8 4.6-1.6 4.7-2.6l2.7-16.6-10.3 2.8-3 18.4-4.4 1.4.4-2.2-4.6 1.3-.4 2.4-4.3 1.2 4.5-27.8 13.6-3.8-1 4.9 10.3-2.8 1.2-8 2-.5c1.3-.4 2.2-.5 2.3-.5.4-.1.7-.1.8-.1 0 .1-.1.3-.3.5-.4.9-.5 2-.8 3l-.7 4.3 4.5-1.2-.4 4.2zM60.3 51.6l4.5-1.2 1.2-7.3-4.5 1.2-1.2 7.3zm2.9-17.4l-.9 6.2 4.6-1.3.9-6.2-4.6 1.3zm-5.6 31l-1.2 7.6 4.5-1.1-.3 1.5-6.3 1.6 1.5-9 1.8-.6zm-9.6-22l-3 18.4c-.1 2.7-3.1 4.9-8.8 6.6-.1-2-.4-3.5-.5-4.5 3.1-.8 4.6-1.6 4.7-2.6l2.7-16.6-10.3 2.8-3 18.2-4.6 1.3.4-2.2-4.6 1.3-.4 2.4-4.3 1.2 4.5-27.8 13.6-3.8-.9 4.9 10.4-2.5 1.2-8 2-.5c1.3-.4 2.2-.5 2.3-.5.4-.1.7-.1.8-.1 0 .1-.1.3-.3.5-.4.9-.5 2-.8 3l-.7 4.3 4.5-1.2-.7 4.5-4.2.9zM21.9 62.3l4.5-1.2 1.2-7.3-4.5 1.2-1.2 7.3zM24.6 45l-.9 6.2 4.6-1.3.9-6.2-4.6 1.3zm25.7-20c-.5.7-1.1 1.5-1.6 2-1.6-.3-2.7-1.3-3.2-3.2-.7 1.9-2.3 3.6-4.7 5.4-.4-.5-.7-.9-.9-1.3 2.6-1.8 4.2-3.6 4.9-5.7l-3.2.8.3-1.6 3.5-.9c.1-.4.3-.9.3-1.5l1.8-.4c0 .3-.1.7-.3 1.5l4-1.1-.3 1.6-3.9 1.1c.1 2.1 1.3 3.2 3.3 3.3zm-8.6-5.4l-.5 3c-.5 3.4-1.3 5.8-2.4 7.3-.4-.4-.9-.7-1.3-.9.9-1.5 1.6-3.5 2-6.2l.7-4.5 5-1.3c-.1-.4-.1-.7-.3-.8l2.2-1.1c.1.3.1.7.4 1.3l4.3-1.1-.3 1.6-9.8 2.7zm-3.9 1.6l-5.7 1.3v.8l4.3-1.1-.8 4.6-4.3 1.1-.1.7 4.7-1.2-.1 1.1-4.7 1.2-.2.6 5.5-1.5-.1 1.2-12.8 3.4.1-1.2 5.5-1.5.1-.7-4.7 1.2.1-1.1 4.7-1.2.1-.7-4.2 1.2.8-4.6 4.2-1.1.1-.7-5.5 1.5.1-1.2 5.5-1.5.1-.7-4.2 1.4v-1.1c3.6-.9 7.3-2 10.8-3.1v1.2l-4.6 1.3-.1.7 5.5-1.5-.1 1.2zm-10.5 6.7l2.6-.7.1-.7-2.6.7-.1.7zm.2-2.3l-.1.7 2.6-.7.1-.7-2.6.7zm4 1.2l2.7-.7.1-.7-2.7.7-.1.7zm.2-1.6l2.7-.7.1-.7-2.7.7-.1.7zm6.9 22.5c.8 2.3 1.5 4.6 2 7-.8.5-1.6 1.1-2.7 1.9-1.8 1.2-2.4 1.6-2.3 1.3-.4-2.6-.9-5-1.6-7.4l4.6-2.8zm24.7 18.2c.3-.5.7-.9 1.1-1.5.4-.4.8-.8 1.3-1.1.5-.4 1.2-.7 2-.8 1.3-.3 2.3-.1 3 .4.7.7.8 1.8.7 3.1-.3 1.5-.8 2.7-1.8 3.8-.9 1.1-2 1.8-3.4 2s-2.3.1-3-.4c-.7-.7-.8-1.6-.7-3.1.1-.8.4-1.6.8-2.4zm1.3 4.2c.4.4.9.5 1.6.4s1.3-.5 1.9-1.2c.5-.7.9-1.5 1.1-2.6.1-1.1.1-1.8-.3-2.2-.4-.4-.9-.5-1.6-.3-.8.1-1.3.5-1.9 1.2-.5.7-.9 1.5-1.1 2.6-.1.9-.1 1.6.3 2.1zm14.5-26.2c-.8.5-1.6 1.1-2.7 1.9-1.8 1.2-2.4 1.6-2.3 1.3-.4-2.6-.9-5-1.6-7.4l4.7-3c.8 2.5 1.5 4.8 1.9 7.2zm-6.4 17.6l7.2-1.8-.3 1.5-2.7.7-1.2 7.6-1.8.4 1.2-7.6-2.7.7.3-1.5zm7.9-2.1l7.2-1.8-.3 1.5-2.7.7-1.2 7.6-1.8.4 1.2-7.6-2.7.7.3-1.5zm14.9-3.7l-.3 1.5-4.9 1.2-.3 2.2 4.5-1.1-.4 1.5-4.3 1.1-.4 2.4 5-1.2-.3 1.5-6.7 1.8 1.5-9 6.6-1.9zm5.7-1.4c.9-.3 1.6-.3 2-.3s.7.3.9.7c.1.4.3.8.1 1.3-.1.7-.4 1.3-.8 1.9s-1.1.9-1.9 1.2c.4.1.7.3.8.5.3.3.5.7.8 1.2l.8 1.5-2.2.5-.9-1.8c-.4-.5-.5-.9-.7-1.1-.1-.1-.3-.3-.5-.3-.1 0-.5 0-.9.1l-.4.1-.7 3.8-1.8.4 1.5-9 3.9-.7zm-1.2 4.1c.8-.3 1.3-.4 1.6-.5.3-.1.4-.3.5-.5.1-.3.3-.4.3-.7s0-.5-.1-.7-.4-.3-.7-.1c-.1 0-.5.1-1.3.3l-1.3.4-.4 2.3 1.4-.5zm7.8-5.7l1.5 3.1 2.7-4 2-.5-4.2 6.1-.7 3.8-1.8.4.7-3.8-2.4-4.5 2.2-.6zm3.4-5.7c-.8-1.1-1.8-1.8-2.8-2.3 7.4-4.2 12.8-9.2 16.1-15 .7.4 1.9 1.2 3.6 2.4-5 5.8-10.5 10.9-16.6 15.1-.2.2-.3.1-.3-.2zm5.4-11.7c-1.2-.9-2.4-1.6-3.6-2 3.9-2.8 8.1-7.2 12.3-12.8 2 1.3 3.2 2.2 3.4 2.6l-.3.3c-.3.3-1.3 1.3-3.1 3.4-2.5 2.5-5.3 5.5-8.7 8.5z"/></svg>