<svg id="图层_1" xmlns="http://www.w3.org/2000/svg" viewBox="-2 7.1 79.4 70.9"><style>.st0{fill:#fff}</style><path class="st0" d="M4.8 20.8l.5 1.6 1.8-.1-1.6 1.9-.1 1.9-1.5-.5L2.1 27l.7-2.1-1.1-1.2 2-.8zm14.3-4.5l.5 1.6 1.8-.1-1.6 1.8-.1 2-1.5-.5-1.8 1.3.7-2.1-1.1-1.2 1.8-.7zm-6.2 5.2c-.2 1-1.1 1.8-2 2s-1.4-.4-1.1-1.4c.2-1 1.1-1.8 2-2s1.2.5 1.1 1.4zm6.7 16c1.8-3.9 4.2-6.7 6.9-7.9 3-.7 3.8.9 2.6 4.6-1.4 4.3-5.7 7.6-12.9 10l-3 8.1c6.9-2.1 9.6-.7 8 4.2-1.7 4.2-4.2 6.9-7.4 8.1-2.8.4-3.6-1.6-2.2-5.9L.9 61.8c-3.6 10.1-.2 13.8 9.9 10.9 10.1-3.6 17-9.5 20.7-17.9 2.6-7.3 1.2-10.7-3.9-10.5 5.8-2.6 10-7.4 12.6-14.4 2.1-7.4-1.6-10.2-10.7-8.5-9.9 3.2-16.8 9.6-20.6 19.4l10.7-3.3z"/><path class="st0" d="M58.9 12.8l-15.3 4.3-18.1 51.1 15.9-4.6c15.3-4.6 26-15.3 32.2-32.1 5.8-16.8.8-23.1-14.7-18.7zm-8 11l4.4-1.2c8.5-2.8 10.7 1.4 6.8 12.5-3.7 10.7-9.7 17.3-18.3 19.4l-4.2 1.2 11.3-31.9z"/></svg>