<svg id="图层_1" xmlns="http://www.w3.org/2000/svg" viewBox="15 7.1 116.2 70.9"><style>.st0{fill:#fff}</style><path class="st0" d="M41.4 29.3L40 35.8l2.9-.9-7.2 36.6L51 67.3l7.9-44.2zm-1.8-10.7l-17.3 6.1-1.5 6.4 2.9-.7L16.6 67l15.1-4.3zm27.5 18.7l-7.2 2.1-1.6 8.6 7.1-2.1zM84 65.8l.9-4.5L61.4 68l3.5-18.7-7.3 2-4.3 23.3z"/><path class="st0" d="M128.8 14L99 22.4c-.1 0-.3.1-.4.4l-6 22.8c-.1.4.3.8.6.6l9.5-2.6c.5-.8 1.2-1.6 1.9-2.2 1-.9 2.3-1.7 3.8-2.1 2.1-.6 3.4-.3 4.1 1 .6 1.3.8 3.4.3 6.1-.4 2.5-1.2 4.5-2.3 6.1-.3.4-.5.6-.8.9l-.3.3c-1.9 1.4-3.8 2.1-5.3 1.8-.5-.1-1-.3-1.6-.5-.3-.1-.5-.4-.6-.8-1.2-1.8-.4-4.8-.3-5.4l-19.1 5.4.9-4.5 4-1.2.8-4.3-7 2.1 1-5.3 7-2.1.8-3.8-7.4 2.3.9-4.8-5.7 1.7-.9 4.8-4 1.2.9-4.8-5 1.4-1.6 8.5 9.1-2.6-1 5.3-9.1 2.6-.8 4.4 3.8-1.2-1 5.7-3.6 1-.8 4.1 9.1-2.6 1.8-9.8L79 51l-1.8 9.8 12.2-3.2c.4-.1.6.1.6.5 0 2.8 1.2 4.8 3.6 6.1 3 1.6 6.7 1.7 11.1.5 5.8-1.7 10.4-4.4 13.5-8.2s5.2-8.2 6.1-13.2c.9-5.3.4-9.2-1.6-11.4-1.9-2.2-5-2.7-9.6-1.3-1.7.5-3.2 1.2-4.7 1.9-.9.5-1.7 1-2.5 1.6-.4.3-.9-.1-.8-.5l1.3-4.4c0-.1.1-.3.4-.4l21.2-6c.1 0 .4-.3.4-.4l1.3-7.8c-.1-.3-.5-.6-.9-.6zm-33.4-3.5l-.4 2.1-9.2 2.7c-.8 1.2-1.6 2.3-2.6 3.6l3.4-1 .4-2.2 2.3-.6-.3 2.1 5-1.6-.4 2.1-5 1.6-.6 3.6c-.1.8-.4 1.4-.8 1.9s-.9.9-1.6 1.2-1.6.6-3 1c0-.5 0-1.3-.1-2.2.8-.1 1.6-.4 2.1-.5.6-.1.9-.6 1-1.2l.5-3.1-6.1 1.8.4-2.2c.9-1.2 1.8-2.3 2.6-3.5l-3.1.9.4-2.1 4.3-1.3c.5-.8.9-1.6 1.3-2.2l2.5-.5c-.4.6-.8 1.3-1.2 1.9l8.2-2.3zM67.7 20.6l-.5 3.1c-.6 3.8-1.8 6.7-3.5 8.9 0 0-.5-.4-1.6-1 1.4-1.8 2.3-4.3 2.8-7.5l.8-4.9 5.7-1.7c-.1-.4-.3-.8-.3-1.3l2.6-1.3c.1.5.3 1.2.4 1.7l5.3-1.6-.3 2.2-11.4 3.4zm16.5 1.6c-1.6 1.8-3 3.5-4.5 5-.4-.4-.9-.8-1.4-1.2 1.4-1.4 2.8-3 4.3-4.7.9.6 1.6.9 1.6.9zm9.9-1.2l-1.9 2.2c-.9-.8-1.9-1.4-3.1-2.2l1.7-1.9 3.3 1.9z"/></svg>