<svg id="图层_1" xmlns="http://www.w3.org/2000/svg" viewBox="7 7.1 99.2 70.9"><style>.st0{fill:#fff}</style><path class="st0" d="M96.3 21.1l-1.5 9.1-4.4 1.2-.6 3.8L79.4 38l-.6 4.1 11.4-3.2-.7 4.6-3.3.9c1.5 1.5 2.2 2.6 2.5 3-1.5 1.6-2.8 2.8-4.1 3.8l7.8-2.1-.7 4.6-36.1 10 .7-4.6 15.1-4.2 1.1-6.7-10.6 3 .7-4.6 10.6-3 .6-4.1-10.2 2.8.6-3.7-4.3 1.2 1.5-9.3 14.8-4.1c-.1-.7-.2-2.1-.6-4l1.5-.4c2.7-1.1 4.6-1.9 5.6-2.2 0 1 0 2.6-.4 4.9l14-3.6zM83.6 51.6c-.6-.7-1.4-1.6-2.3-2.5-.6-.7-.9-1.2-.9-1.4 1.1-.7 2.1-1.6 3.1-2.6l-5.6 1.6-1.1 6.8 6.8-1.9zM65.8 34.1l-.6 3.7L89.3 31l.6-3.7-24.1 6.8zm-14.7 4l3.6-1c-.1.2-.4.6-.5 1.1-.5 1.5-.9 2.6-1 3.5l-5.4 1.5c-2 .6-2.8 0-2.3-2.1l1.1-6.5-2.6.7-.2 1.2c-.7 4.1-2.5 7.5-5.1 10.6-.7-.4-1.6-.7-2.3-1.1l-.4 2.5 15.2-4.2c-1.5 5.3-3.6 10.1-6.4 14.3 2 1.9 4.3 2.6 7 2.6-1.6 2-2.8 3.7-3.7 5.4-2.3-.5-4.7-1.6-7.3-3.1-2.5 2.6-5.1 5.3-8 8-.9-1-1.9-1.7-2.8-2.1-.2 1.9-2.6 3.3-7 4.3 0-1.4-.1-2.7-.5-3.8 2.3-.6 3.6-1.4 3.3-2.2l.2-1.9-5.5 1.4-1.1 7-4.6 1.2 3.1-19.5-3 1 1.1-6.8 2.3-.6L20.2 38 36 33.6l-1.9 11.5 1.9-.5c1.6-2.2 2.7-4.8 3.3-7.7l.6-4.2 11.7-3.2-1.2 7.9c-.3.9 0 1.1.7.7zm-9 17.8c1-1.7 1.9-3.7 2.7-6.1l-4.1 1.1c.2 2.3.6 3.9 1.4 5zm-14.5-.5L22 56.9l-.4 2 5.4-1.5.6-2zm-1.2 7.3l.4-2.2-5.5 1.5-.3 2.2 5.4-1.5zm-4.1-14.5l2.1-.6.4-2.3-2.1.6-.4 2.3zm1.4-7.5l-.2 1.7 5.9-1.6-1 5.9 1.5-.4 1.2-7.5-7.4 1.9zm-4 11.8l-.2 1.9 11.7-3.2.2-1.9-11.7 3.2zm12.9-.5L30 68.5c2.6-1.6 5.3-4.2 8.4-7.9-1.2-2.5-2-5.2-2.5-8.1l-1.1.4.2-1.4-2.4.5zm4.8-33.4l-3.1.9-.1 1.1-1.9.5.1-1.1-3.7 1-.1 1.1-1.9.5.1-1.1-3 .9.1-1.7 3-.9.1-1.2 1.9-.5-.1 1.2 3.7-1 .1-1.2 1.9-.5-.1 1.2 3.1-.9-.1 1.7zM25.3 26l1.4.5c-.7 1.2-1.5 2.5-2.3 3.5l-1.2-.7c.7-1 1.4-2.1 2.1-3.3zm-.3 6.6c-.4-.5-.9-.9-1.2-1.2 2.5-2 4-4.2 4.4-6.5l-3.7 1 .1-1.7 4-1.1c.1-.4.1-.9.1-1.4l1.9-.5c0 .5-.1.9-.1 1.4l4.2-1.1-.2 2.3 1.4-.9c.4 1 .7 2.1 1.1 3.3l-1.7 1.1c-.2-1-.5-2-.9-3-.2 1.9-.5 3.1-.6 3.6s-.5 1.1-1 1.6-1.2 1-2.3 1.2c-.5.1-1.1.2-1.7.5v-2c.7-.1 1.4-.2 1.9-.4.4-.1.7-.2 1-.6.2-.2.4-.6.5-1s.2-1.6.6-3.8l-2.3.6c-1 3.4-2.7 6.2-5.5 8.6zm-5.5-9.1l-.9 8.4 3.8-1.1-.2 1.9-9.8 2.7.2-1.9 3.8-1.1.9-8.4-3.1 1 .2-1.9 8.5-2.3-.2 1.9-3.2.8zm-9.1 1.1l1.4-1.6c.9.5 1.6.9 2.2 1.2l-1.4 1.9c-.6-.5-1.4-1-2.2-1.5zm2.9 3.4l-1.5 1.9c-.6-.5-1.5-1-2.3-1.5l1.4-1.7c.8.5 1.7.8 2.4 1.3zm-.5 2.9c-.5 1.5-1.2 3.3-2 5.7l-1.9-.1c.9-2.2 1.5-4.1 2.1-5.7.6-.1 1.2.1 1.8.1zm91.5-13.6v-5.1s0-.1-.2-.1L99.9 14s-.2.1-.2.4v5.4s0 .2.2.1l4.2-2.2c.1-.2.2-.3.2-.4zm-2.3-2c-.1.4-.5.7-.7.7s-.5-.4-.4-.7c.1-.4.5-.7.7-.7.3 0 .4.3.4.7zm1.5 1.1c-.1.4-.5.7-.7.7s-.5-.4-.4-.7c.1-.4.5-.7.7-.7s.5.3.4.7zM99 13.9L94.8 12c-.1 0-.2.1-.2.1v5.1c0 .1.1.2.1.2l4.2 2.2c.2.1.2-.1.2-.1v-5.3c.2-.1-.1-.3-.1-.3zm-3.2 3.6c-.4 0-.6-.4-.7-.7-.1-.4.1-.7.4-.7.2 0 .6.4.7.7.1.4-.1.7-.4.7zm1.2-1c-.4 0-.6-.4-.7-.7-.1-.4.1-.7.4-.7.2 0 .6.4.7.7.1.5-.1.7-.4.7zm1.4-.8c-.4 0-.6-.4-.7-.7-.1-.4.1-.7.4-.7.2 0 .6.4.7.7.1.3-.2.7-.4.7zm5.4-4s.2-.1 0-.4l-4.2-1.5s-.1-.1-.2 0l-4.2 1.5s-.2.1-.1.2c0 0 0 .1.1.1l4.2 1.7s.1.1.4 0l4-1.6zm-4.4.3c-.5 0-.9-.1-.9-.4 0-.2.4-.4.9-.4s.9.1.9.4c-.1.1-.4.4-.9.4z"/></svg>