<svg id="图层_1" xmlns="http://www.w3.org/2000/svg" viewBox="15 7.1 116.2 70.9"><style>.st0{fill:#fff}</style><path class="st0" d="M129.7 21.1c-.4 2.5-1.5 5-3.3 7.3-1.8 2.5-4 4.7-6.8 6.5 2.6.3 4.7 1.2 5.8 2.9 1.2 1.7 1.5 4.2 1.1 7.2-.8 5-3.3 9.4-7.5 13.3s-9.1 6.6-15 8.3c-5 1.4-9.1 1.2-12.5-.4s-4.4-5-3.5-10.1l.1-.3 12-3.3c-.3 1.8.1 3 1.1 3.9 1 .8 2.5 1 4.3.4 2.2-.6 4.2-1.8 5.8-3.5 1.7-1.7 2.6-3.5 2.9-5.3.4-2.6 0-4.4-1.1-5.1-1.1-.8-2.9-1-5.4-.3l-5.8 1.7 1.5-9.4 5.8-1.4c2.2-.6 4-1.7 5.4-3.2s2.2-3.5 2.6-5.5c.3-1.7-.1-2.9-1.1-3.7-1-.8-2.6-1-4.6-.4-1.5.4-2.9 1.2-4.2 2.5-1.2 1.2-1.9 2.6-2.2 4.2l-11.9 3.3v-.1c.6-4.3 2.8-8.3 6.6-11.9 3.9-3.6 8.3-6.1 13.3-7.5 5.8-1.7 10.1-1.5 13.2.1 3.1 1.5 4.2 4.8 3.4 9.8zM90.4 46.7l-6.8 1.9c.1 2.5 2.2 4 6.1 4.4-1.1 1-2.1 2.2-3.2 4-2.8-.4-4.6-2.1-5.4-4.8-1.9 3.3-4.4 6.4-7.5 9-.6-.8-1.2-1.4-1.9-1.7l-.6 1.7-2.9.8L71 44.3c-.6 2.2-1.4 4.6-2.4 7.2l-3 .3c1-2.6 1.9-5.5 2.6-8.4l2.9-.3 1-5.8 1.5-.4c1.1-.3 1.7-.4 1.5-.1 0 .1 0 .1-.1.4 0 .1-.1.6-.1 1.1l-.7 4.2c.3-.1.7-.4 1.2-.8.4-.3.7-.6.8-.7.6 1.5 1 3.2 1.4 4.8l-2.9 1.8c-.3-1.4-.6-2.5-.8-3.3l-2.4 14.4c3.5-2.5 5.8-5.4 7.2-8.6l-4.3 1.2.4-3 4.7-1.2c.1-.6.3-1.1.4-1.7l.6-3.6-3.2.8.4-3 3.2-.8.7-4.4 2.5-.7c.8-.3 1.2-.3 1.2 0 0 .1-.1.3-.1.4-.1.4-.3.8-.3 1.4l-.4 2.4 5.3-1.5-1.2 8 2.4-.7-.6 3zm-6.5-6.1l-.6 3.6c0 .3-.1.6-.1.8v.6l1.9-.6.8-5.1-2 .7zm-17.2 3.5l-5.8 1.7-.4 2.5-3.3 1 .4-2.5-5.4 1.5-.5 2.6-3.2.8.4-2.6-5.4 1.5.4-2.8 5.4-1.5.4-2.6 1.2-.4c1.5-.4 2.2-.6 2.2-.3 0 .1-.1.4-.3.7-.1.3-.1.6-.3.8v.8l5.3-1.5.4-2.6 1.2-.4c1.7-.4 2.5-.6 2.2-.3 0 .1-.1.4-.3.7.1.4.1.7 0 .8l-.1.8 5.8-1.7-.3 3zm-30.3 8.6l-2.2 14.1 6.4-1.8-.6 3.2-16.6 4.7.4-3 6.8-1.9 2.2-14.1-5.3 1.5.4-3 14-3.9-.4 3-5.1 1.2zm-15.1 1.4l3.2-3.3c.8.7 1.8 1.7 2.9 2.8.1.1.3.1.4.1L24.9 57c-1.7-1.3-2.8-2.3-3.6-2.9zm1.2 8.8c-1.4-.6-2.9-1.1-4.4-1.4l2.5-3.9c1.2.4 2.6 1 4.4 1.7l-2.5 3.6zm2.1 2l-3.3 6.6c-.7 1.5-1.2 2.8-1.7 3.6-.8-.1-1.8-.7-3-1.4 2.4-3.6 4.2-6.9 5.3-10 .8.7 1.7 1 2.7 1.2zm23.8-6.4c-1.5 2.4-3.3 4.7-5.3 6.8-.8-.3-1.5-.6-2.4-.8 1.5-1.5 3-3.6 4.6-6.2 1-.1 2 0 3.1.2zm-3.6-1.3l.4-2.9 7.2-1.9.6-3.2c.6-.1 1.2-.3 2.1-.6 1.1-.3 1.7-.3 1.7 0s-.1.6-.3.8c-.3.7-.4 1.4-.7 2.1l5.5-1.5-.7 4.2 1.9-1.7c.8.8 1.9 2.4 3.2 4.3-1.1 1.1-2.1 1.9-3.3 2.9 0 0-.1-.1-.1-.3-.7-1.5-1.5-2.6-2.1-3.2 0 .4-.1.8-.1 1.1-.4 3.5-1.1 5.5-1.7 6.1-.7.7-1.4 1.2-2.2 1.7-.7.4-1.9.8-3.7 1.4.1-1.5 0-2.6-.6-3.2 2.8-.6 4.2-1.2 4-2.2.1-.7.4-1.7.6-2.8.1-1.2.4-2.6.7-4.2l-2.2.1c-1.7 5.8-5 10.5-10.1 14.4-.8-.6-1.8-1.1-2.6-1.4 4.8-3 7.9-7.1 9.4-12l-6.9 2zM24.2 40.9l.6 1.9 2-.2-1.9 2V47l-1.8-.7L21 48l.8-2.5-1.2-1.3 2.2-.9zm16.1-5.1l.4 1.9 2-.3-1.8 2.1-.1 2.4-1.7-.7-2 1.6.8-2.5-1.2-1.2 2.2-1zm-7.1 5.9c-.3 1.1-1.2 2.1-2.2 2.2-1 .1-1.5-.4-1.2-1.5s1.2-2.1 2.2-2.2c.9-.3 1.5.4 1.2 1.5z"/></svg>