<svg id="图层_1" xmlns="http://www.w3.org/2000/svg" viewBox="15 7.1 116.2 70.9"><style>.st0{fill:#fff}</style><path class="st0" d="M41.6 30.3l-1.5 6.4 2.9-.9-7.1 36.5L51.1 68l7.8-43.9zm-1.8-10.7l-17.3 6.1-1.4 6.4 2.8-.8-7 36.4 15-4.2zm27.3 18.7l-7.1 2-1.7 8.5 7.1-2zm16.8 28.3l.9-4.5-23.4 6.7 3.5-18.7-7.2 2.1-4.3 23.1z"/><path class="st0" d="M128.4 15.1l-29.6 8.4c-.1 0-.3.1-.4.4l-5.9 22.7c-.1.4.3.8.6.6l9.4-2.6c.5-.8 1.2-1.5 1.9-2.2 1-.9 2.3-1.7 3.7-2.1 2.1-.6 3.3-.3 4.1 1 .6 1.3.8 3.3.3 6-.4 2.4-1.2 4.5-2.3 6-.3.4-.5.6-.8.9l-.3.3c-1.9 1.4-3.7 2.1-5.3 1.8-.5-.1-1-.3-1.5-.5-.3-.1-.5-.4-.6-.8-1.2-1.8-.4-4.8-.3-5.4l-19.2 5.3.9-4.5 4-1.2.8-4.2-7 2.1 1-5.3 7-2.1.8-3.7-7.3 2.3.9-4.8-5.7 1.7-1 4.8-4 1.2.9-4.8-5 1.4-1.5 8.5 9-2.6-1 5.3-9 2.6-.7 4.3 3.7-1.2-1 5.7-3.6 1-.8 4.1 9-2.6 1.8-9.8 4.2-1.3-1.8 9.8 12.1-3.2c.4-.1.6.1.6.5 0 2.8 1.2 4.8 3.6 6 3 1.5 6.7 1.7 11.1.5 5.8-1.7 10.3-4.4 13.4-8.1 3.1-3.7 5.1-8.1 6-13.1.9-5.3.4-9.1-1.5-11.3s-5-2.7-9.5-1.3c-1.7.5-3.2 1.2-4.6 1.9-.9.5-1.7 1-2.4 1.5-.4.3-.9-.1-.8-.5l1.3-4.4c0-.1.1-.3.4-.4l21.1-5.9c.1 0 .4-.3.4-.4l1.3-7.7c-.1-.3-.5-.6-.9-.6zM95.6 12l-4.9 1.4-.3 1.8 4.2-1.3-1.8 10.6-2.2.6.1-1-9.7 2.8v1l-2.2.6 1.8-10.6 4.1-1.2.3-1.8-4.6 1.4.3-1.9 15.2-4.5-.3 2.1zm-13 7.3L82 23c1.4-1.3 2.2-2.7 2.4-4.2l-1.8.5zm4.5-4.8l-.3 1.8 1.5-.5.3-1.8-1.5.5zm.7 5.5l.4-2.3-1.5.5c-.4 2.2-1.4 4.1-3.1 5.8-.5-.3-1-.5-1.5-.8l-.3 1.8 9.7-2.8.3-1.5-2.3.6c-1.5.4-2 0-1.7-1.3zm2.2-1.4c-.1.5.1.6.6.5l1.3-.4.4-2.2-2.1.6-.2 1.5zm-14.7-.3l-1.5 9.3 4.4-1.3-.4 2.1-11.2 3.3.4-2.1 4.4-1.3 1.5-9.3-3.5 1 .4-2.1 9.7-2.8-.4 2.1-3.8 1.1zM65 19.9l1.7-1.8c.9.5 1.8.9 2.4 1.3l-1.8 2.1c-.6-.6-1.4-1.1-2.3-1.6zm3.1 3.7l-1.8 2.1c-.8-.5-1.5-1-2.4-1.5l1.5-1.9c1 .3 1.9.8 2.7 1.3zm-.7 3.1c-.6 1.5-1.5 3.7-2.6 6.3h-2.1c1-2.4 1.9-4.5 2.7-6.3.6-.1 1.4 0 2 0z"/></svg>