<svg id="图层_1" xmlns="http://www.w3.org/2000/svg" viewBox="40.7 7.1 116.2 70.9"><style>.st0{fill:#fff}</style><path class="st0" d="M144.1 24.9c-.1 0-.1 0-.3-.1-1.1-.5-2-1.1-3.1-1.3 4.2-3.6 7.6-7.9 10.3-13.1.9.3 2.3.8 4.2 1.6-4 5.1-7.6 9.4-11.1 12.9zm-20.8-5.4c8.4-2.4 14.5-5 17.7-7.4.3-.1.4-.3.4-.3 1.6 1.7 2.5 3.1 2.8 4-7.5 2.9-13.9 5.4-19.6 7.5-.2-1.4-.6-2.6-1.3-3.8zM125 30c-.5-2.1-1.1-3.6-1.3-4.6 1.3-.8 2.7-1.6 3.9-2.4.8 2.3 1.3 4 1.6 5.2-1.3.8-2.7 1.6-3.9 2.3-.2-.2-.3-.4-.3-.5zm9.5-9.4c.1 2 .3 3.9.3 5.5-.5.1-1.3.4-2.1.7-.9.4-1.6.7-2.1.7.1-2.4.1-4.3-.1-5.5l4-1.4zm4.4-1.9c1.7.1 3.1.4 4 .4 0 .1-.4.7-.9 1.7-1.3 2.3-2.7 4.3-3.9 6.4-1.1-.1-2.1-.1-3.2-.1.1-.4.4-.9.7-1.5 1.7-3.4 2.8-5.7 3.3-6.9zm-9.3 10.1c1.5-.3 2.7-.5 3.5-.8.8-.1 1.2-.1 1.3-.1 0 .3-.1.4-.3.7-.1.3-.3.7-.3.9l7.1-2-.7 3.9-7.2 2.1-.4 2.7 2.7-2.3c1.2 1.3 2.7 2.8 4.3 4.7-1.3 1.1-2.7 2.3-4 3.8-.9-1.3-2-2.7-3.4-4l-1.6 10.5-4.4 1.2 1.5-9.4c-2 2.9-4.4 5.5-7 7.8-1.1-.8-2-1.3-2.8-1.9 4.2-3.9 7.1-7.6 9.1-11.5l-6.7 1.9.7-3.9 8.3-2.3.3-2zm-13 2.5l-4.4 1.2-2.9 18.2c-.1 2.7-3.1 4.8-8.7 6.6-.1-2-.4-3.5-.5-4.4 3.1-.8 4.6-1.6 4.7-2.5l2.7-16.5-10.2 2.8-2.9 18.2-4.6 1.3.4-2.1-4.6 1.3-.4 2.4-4.3 1.2 4.4-27.6 13.5-3.8-.9 4.7 10.2-2.8 1.2-7.9 2-.5c1.3-.4 2.1-.5 2.3-.5.4-.1.7-.1.8-.1 0 .1-.1.3-.3.5-.4.9-.5 2-.8 2.9l-.7 4.3L117 27l-.4 4.3zM86.1 51.6l4.4-1.2 1.2-7.2-4.4 1.2-1.2 7.2zm2.8-17.3l-.9 6.2 4.6-1.3.9-6.2-4.6 1.3zm-5.5 30.8l-1.2 7.5 4.4-1.1-.3 1.5-6.3 1.6 1.5-9 1.9-.5zm-9.5-21.8L71 61.5c-.1 2.7-3.1 4.8-8.7 6.6-.1-2-.4-3.5-.5-4.4 3.1-.8 4.6-1.6 4.7-2.5L69 44.6l-10.2 2.8-2.9 18.1-4.6 1.3.4-2.1-4.5 1.3-.4 2.4-4.3 1.2L46.9 42l13.5-3.8-.9 4.8 10.2-2.8 1.2-7.9 2-.5c1.3-.4 2.1-.5 2.3-.5.4-.1.7-.1.8-.1 0 .1-.1.3-.3.5-.4.9-.5 2-.8 2.9l-.6 4.4 4.4-1.2-.7 4.4-4.1 1.1zm-26 18.9l4.4-1.2 1.2-7.2-4.4 1.2-1.2 7.2zM50.5 45l-.9 6.2 4.6-1.3.9-6.2-4.6 1.3zm14 2.7c.8 2.3 1.5 4.6 2 7-.8.5-1.6 1.1-2.7 1.9-1.7 1.2-2.4 1.6-2.3 1.3-.4-2.5-.9-5-1.6-7.4l4.6-2.8zM89 65.8c.3-.5.7-.9 1.1-1.5.4-.4.8-.8 1.3-1.1.5-.4 1.2-.7 2-.8 1.3-.3 2.3-.1 2.9.4.7.7.8 1.7.7 3.1-.3 1.5-.8 2.7-1.7 3.8-.9 1.1-2 1.7-3.4 2-1.3.3-2.3.1-2.9-.4-.7-.7-.8-1.6-.7-3.1.1-.8.3-1.6.7-2.4zm1.4 4.1c.4.4.9.5 1.6.4.7-.1 1.3-.5 1.9-1.2s.9-1.5 1.1-2.5c.1-1.1.1-1.7-.3-2.1-.4-.4-.9-.5-1.6-.3-.8.1-1.3.5-1.9 1.2-.5.7-.9 1.5-1.1 2.5-.1.8-.1 1.5.3 2zm14.3-26c-.8.5-1.6 1.1-2.7 1.9-1.7 1.2-2.4 1.6-2.3 1.3-.4-2.5-.9-5-1.6-7.4l4.7-2.9c.8 2.4 1.5 4.7 1.9 7.1zm-6.3 17.5l7.1-1.7-.3 1.5-2.7.7-1.2 7.5-1.7.4 1.2-7.5-2.7.7.3-1.6zm7.8-2.1l7.1-1.7-.3 1.5-2.7.7-1.2 7.5-1.7.4 1.2-7.5-2.7.7.3-1.6zm14.9-3.7l-.3 1.5-4.8 1.2-.3 2.1 4.4-1.1-.3 1.5-4.3 1.1-.4 2.4 5-1.2-.3 1.5-6.7 1.7 1.5-9 6.5-1.7zm5.6-1.3c.9-.3 1.6-.3 2-.3s.7.3.9.7c.1.4.3.8.1 1.3-.1.7-.4 1.3-.8 1.9-.4.5-1.1.9-1.9 1.2.4.1.7.3.8.5.3.3.5.7.8 1.2l.8 1.5-2.1.5-.9-1.7c-.4-.5-.5-.9-.7-1.1-.1-.1-.3-.3-.5-.3-.1 0-.5 0-.9.1l-.4.1-.7 3.8-1.7.4 1.5-9 3.7-.8zm-1.2 4c.8-.3 1.3-.4 1.6-.5.3-.1.4-.3.5-.5.1-.3.3-.4.3-.7 0-.3 0-.5-.1-.7s-.4-.3-.7-.1c-.1 0-.5.1-1.3.3l-1.3.4-.4 2.3 1.4-.5zm7.8-5.7l1.5 3.1 2.7-4 2-.5-4.2 6-.7 3.8-1.7.4.7-3.8-2.4-4.4 2.1-.6zm3.3-5.6c-.8-1.1-1.7-1.7-2.8-2.3 7.4-4.2 12.7-9.1 16-14.9.7.4 1.9 1.2 3.6 2.4-5 5.8-10.5 10.9-16.5 15-.2.2-.3.1-.3-.2zm5.4-11.7c-1.2-.9-2.4-1.6-3.6-2 3.9-2.8 8-7.1 12.2-12.7 2 1.3 3.2 2.1 3.4 2.5l-.3.3c-.3.3-1.3 1.3-3.1 3.4-2.5 2.6-5.3 5.6-8.6 8.5zM77 16.6l-4 1.1-.1 1.5 3.5-.9-1.6 8.7-1.7.4.1-.8-7.9 2-.1.8-1.8.6 1.5-8.8 3.4-.9.3-1.5-3.8.9.3-1.6 12.5-3.2-.6 1.7zm-10.6 5.7l-.5 3.1c1.2-1.1 1.9-2.1 2-3.5l-1.5.4zm3.6-4l-.3 1.5 1.2-.3.3-1.5-1.2.3zm.5 4.7l.3-1.9-1.2.3c-.3 1.9-1.2 3.5-2.5 4.7-.4-.3-.8-.5-1.2-.7l-.3 1.6 7.9-2 .3-1.3-1.9.5c-1.1.2-1.5-.1-1.4-1.2zm1.8-1.2c0 .4.1.5.5.4l1.1-.3.3-1.7-1.7.4-.2 1.2zm-12.6-.4L58.5 29l3.6-.9-.3 1.7-9.1 2.4.3-1.7 3.6-.9 1.2-7.6-2.8.7.3-1.7 7.9-2.1-.3 1.7-3.2.8zm-8.4.9l1.3-1.5c.8.4 1.5.8 2 1.2l-1.5 1.6c-.4-.3-1.1-.7-1.8-1.3zm2.5 3.3l-1.5 1.7c-.5-.4-1.2-.9-2-1.3l1.3-1.6c.8.4 1.5.8 2.2 1.2zm-.6 2.5c-.5 1.3-1.3 3.1-2.1 5.1l-1.7-.1c.9-2 1.6-3.8 2.1-5.2.7.2 1.2.2 1.7.2z"/></svg>