<svg id="图层_1" xmlns="http://www.w3.org/2000/svg" viewBox="11 7.1 107.7 70.9"><style>.st0{fill:#fff}</style><path class="st0" d="M24 35.4l.5 1.9 2-.3-1.9 2v2.2l-1.7-.6-2 1.6.8-2.4-1.2-1.2 2.1-.9zm15.3-4.9l.4 1.9 2-.3-1.7 2-.2 2.3-1.6-.7-1.9 1.6.8-2.4-1.2-1.2 2.1-.9zm15.9-4.7l.4 1.8 1.9-.1-1.7 1.8-.1 2.3-1.6-.7-2 1.6.8-2.4-1.2-1.2 2.1-.7zM32.6 36.2c-.3 1.1-1.2 2-2.1 2.1s-1.5-.4-1.2-1.5 1.2-2 2.1-2.1c.9-.2 1.4.5 1.2 1.5zm15.2-4.9c-.3 1.1-1.2 2-2.1 2.1-.9.1-1.5-.4-1.2-1.5.3-1.1 1.2-2 2.1-2.1s1.4.6 1.2 1.5zM114.3 19l-19.8 5.7-2.9 11.4c1.1-.9 2.4-1.9 3.8-2.8 1.5-.8 3.2-1.6 4.9-2.1 4.6-1.5 7.9-.9 10 1.5 2 2.4 2.6 6.3 1.7 12-.8 5-2.8 9.7-6.1 13.9S98 65.7 92 67.5c-4.8 1.3-8.6 1.2-11.8-.4-3-1.6-4.2-4.6-3.4-9l.1-.3 11.4-4c-.3 1.9 0 3.2.9 3.8.9.8 2.4.8 4.1.3 2.1-.7 3.7-1.7 4.8-3.3s1.9-3.8 2.2-6.5c.4-2.9.3-5-.4-6.3s-2.1-1.7-4.2-1.2c-1.6.4-2.8 1.2-3.8 2.1-1.1.9-1.9 2-2.4 3.2l-10.4 2.3 7.4-30.4 29.2-8.5-1.4 9.7zM75.9 32.9l-3.6 22.9c.1 2.5-2 4.2-6.3 5.3-.1-1.6-.3-2.8-.7-3.7l1.7-.5c.8-.1 1.2-.5 1.2-1.1l4-25.1 1.5-.4c2.1-.7 3-.7 2.9-.4 0 .1-.1.4-.3.5-.1.8-.4 1.6-.4 2.5zM69 38.7l-2.4 15.7-3.8 1.1 2.9-19.3 1.6-.5c1.7-.5 2.6-.5 2.5-.3 0 .1-.1.4-.3.7-.2 1-.3 1.8-.5 2.6zm-10.8.8c-.4 1.3-.9 2.6-1.5 3.8l6.5-1.9h.3c-.7 3.3-1.3 6.1-2.1 8.6-1.6 5.2-6.1 10.6-13.6 16.4-.6-.7-1.5-1.5-2.5-2.2 3.8-2.6 6.9-5.4 9.3-8.5-1.1-1.1-2-1.9-2.8-2.6-1.6 2.4-2.4 3.4-2.5 3.3-1.1-.5-2-.9-2.8-1.3 3-3.4 5.7-8.3 7.7-14.4l-5 1.5.5-3.7L65 34.1l-.5 3.6-6.3 1.8zm-3.8 9.4l2.6 2.4c.7-1.1 1.2-2.6 1.7-4.9l-3.3.9c-.4.6-.6 1.1-1 1.6zm-9.9-2.4L39.3 48l-.7 4 4.6-1.3-.5 3.4-4.6 1.3-.7 4.4 5.6-1.6-.5 3.3-5.6 1.6-1.1 6.6-3.8 1.1 4.6-29.9c.8-.3 1.6-.4 2.1-.7 1.5-.4 2.1-.5 2-.3 0 .1-.1.4-.3.8-.1.5-.3 1.1-.4 1.5l-.4 2.5 5.2-1.5-.3 3.3zm-9.8-3.7c-.1.5-.3 1.1-.4 1.5l-4.2 27.1-3.8 1.1 1.1-6.6-5.2 1.5.5-3.4 5.2-1.5.7-4.4-4.4 1.1v-.4l-2.1 1.9-1.6 10c-.1 2.5-2.2 4.2-6.1 5.2 0-1.5-.1-2.6-.4-3.7 1.9-.1 2.8-.8 2.9-1.7l1.1-6.7c-.7.5-1.2.9-1.5 1.3-1.1.9-1.5 1.3-1.5 1.2-.1-.5-.1-1.5-.1-2.9 0-1.1 0-1.7.1-1.9.3-.1.8-.5 1.5-.9s1.5-.9 2.2-1.6l.8-5.3-3.4 1.2.5-3.4 3.3-.9.8-5.3c1.9-.5 2.9-.8 3-.8.3-.1.5-.1.7 0 0 .1 0 .3-.1.5-.1.7-.3 1.3-.4 1.9l-.4 2.5 1.9-.5-.4 3.3-1.9.5-.5 3.8 2.8-2-.1 1.3 3.7-1.1.7-4-3.6 1.1.5-3.3 3.6-1.1.7-4.6c.7-.1 1.2-.4 1.6-.5 1.7-.5 2.5-.7 2.4-.3-.1.2-.1.4-.2.8z"/></svg>