<svg id="图层_1" xmlns="http://www.w3.org/2000/svg" viewBox="15 7.1 116.2 70.9"><style>.st0{fill:#fff}</style><path class="st0" d="M41.6 29.4l-1.4 6.4 2.8-.9-7.1 36.4 15.2-4.2 7.8-43.9zm-1.8-10.7l-17.2 6.1-1.4 6.4 2.8-.8-7.1 36.4L32 62.6zm27.1 18.7l-6.9 2-1.7 8.5 7.1-2zm17 28.3l.9-4.5-23.4 6.6 3.5-18.6-7.2 2.1-4.3 23.1z"/><path class="st0" d="M128.3 14.2l-29.5 8.4c-.1 0-.3.1-.4.4l-5.9 22.6c-.1.4.3.8.6.6l9.4-2.6c.5-.8 1.2-1.5 1.9-2.2 1-.9 2.3-1.7 3.7-2.1 2.1-.6 3.3-.3 4.1 1 .6 1.3.8 3.3.3 6-.4 2.4-1.2 4.5-2.3 6-.3.4-.5.6-.8.9l-.3.3c-1.9 1.4-3.7 2.1-5.3 1.8-.5-.1-1-.3-1.5-.5-.3-.1-.5-.4-.6-.8-1.2-1.8-.4-4.8-.3-5.4l-19.1 5.5.9-4.5 4-1.2.8-4.2-6.9 2.1 1-5.3 6.9-2.1.8-3.7-7.3 2.3.9-4.8-5.7 1.7-.9 4.8-4 1.2.9-4.8-5 1.4-1.5 8.5 9-2.6-1 5.3-9 2.6-.8 4.2 3.7-1.2-1 5.7-3.6 1-.8 4.1 9-2.6 1.8-9.8 4.2-1.3-1.8 9.8L89 57.5c.4-.1.6.1.6.5 0 2.8 1.2 4.8 3.6 6 3 1.5 6.7 1.7 11.1.5 5.8-1.7 10.3-4.4 13.4-8.1 3.1-3.7 5.1-8.1 6-13.1.9-5.3.4-9.1-1.5-11.3s-5-2.7-9.5-1.3c-1.7.5-3.2 1.2-4.6 1.9-.9.5-1.7 1-2.4 1.5-.4.3-.9-.1-.8-.5l1.3-4.4c0-.1.1-.3.4-.4l21.1-5.9c.1 0 .4-.3.4-.4l1.3-7.7c-.3-.3-.8-.6-1.1-.6zm-33-3.4l-.4 2.1-9.1 2.7c-.8 1.2-1.5 2.3-2.6 3.6l3.3-1 .4-2.2 2.3-.6-.4 2.1 5-1.5-.4 2.1-5 1.5-.6 3.6c-.1.8-.4 1.4-.8 1.9s-.9.9-1.5 1.2c-.6.3-1.5.6-3 1 0-.5 0-1.3-.1-2.2.8-.1 1.5-.4 2.1-.5.6-.1.9-.5 1-1.2l.5-3.1-6 1.8.4-2.2c.9-1.2 1.8-2.3 2.6-3.5l-3.1.9.4-2.1 4.2-1.3c.5-.8.9-1.5 1.3-2.2l2.4-.5c-.4.6-.8 1.3-1.2 1.9l8.3-2.3zM74.2 29.5l.3-1.2-11.2 3.4 1.8-10.9 2.3-.6-1.4 8.9 3.3-1 2-11.9 2.3-.6-1.9 11.8 3.3-1 1.4-8.9 2.3-.6-2.1 12.2-2.4.4zm9.7-7.2c-1.5 1.8-3 3.5-4.5 5-.4-.4-.9-.8-1.3-1.2 1.4-1.4 2.8-3 4.2-4.6 1.1.6 1.6.8 1.6.8zm10-1.1L92 23.4c-.9-.8-1.9-1.4-3.1-2.2l1.7-1.9 3.3 1.9z"/></svg>