<svg id="图层_1" xmlns="http://www.w3.org/2000/svg" viewBox="15 7.1 116.2 70.9"><style>.st0{fill:#fff}</style><path class="st0" d="M118.5 24.9c-.1 0-.1 0-.3-.1-1.1-.5-2-1.1-3.1-1.3 4.2-3.6 7.7-7.9 10.3-13.2.9.3 2.3.8 4.2 1.6-4 5.2-7.6 9.5-11.1 13zm-20.8-5.3c8.5-2.4 14.5-5 17.7-7.4.3-.1.4-.3.4-.3 1.6 1.7 2.6 3.1 2.8 4-7.5 3-14 5.4-19.6 7.5-.3-1.4-.7-2.6-1.3-3.8zM99.3 30c-.5-2.1-1.1-3.6-1.3-4.6 1.3-.8 2.7-1.6 3.9-2.4.8 2.3 1.3 4 1.6 5.2-1.3.8-2.7 1.6-3.9 2.3-.2-.2-.3-.3-.3-.5zm9.5-9.4c.1 2 .3 3.9.3 5.5-.5.1-1.3.4-2.1.7-.9.4-1.6.7-2.1.7.1-2.4.1-4.3-.1-5.5l4-1.4zm4.4-1.9c1.7.1 3.1.4 4 .4 0 .1-.4.7-.9 1.7-1.3 2.3-2.7 4.3-3.9 6.4-1.1-.1-2.1-.1-3.2-.1.1-.4.4-.9.7-1.5 1.7-3.4 2.8-5.6 3.3-6.9zM104 28.8c1.5-.3 2.7-.5 3.5-.8.8-.1 1.2-.1 1.3-.1 0 .3-.1.4-.3.7-.1.3-.3.7-.3.9l7.1-2-.7 3.9-7.3 2.1-.4 2.7 2.7-2.3c1.2 1.3 2.7 2.8 4.3 4.7-1.3 1.1-2.7 2.3-4 3.8-.9-1.3-2-2.7-3.4-4l-1.6 10.5-4.4 1.2 1.5-9.4c-2 3-4.4 5.5-7 7.8-1.1-.8-2-1.3-2.8-1.9 4.2-3.9 7.1-7.7 9.1-11.6l-6.7 1.9.7-3.9 8.3-2.3.4-1.9zm-13.1 2.6l-4.4 1.2-3 18.3c-.1 2.7-3.1 4.8-8.7 6.6-.1-2-.4-3.5-.5-4.4 3.1-.8 4.6-1.6 4.7-2.6L81.7 34l-10.2 2.8-3 18.3-4.6 1.3.4-2.1-4.6 1.3-.4 2.4-4.3 1.2 4.4-27.7L73 27.7l-.9 4.7 10.2-2.8 1.2-7.9 2-.5c1.3-.4 2.1-.5 2.3-.5.4-.1.7-.1.8-.1 0 .1-.1.3-.3.5-.4.9-.5 2-.8 3l-.7 4.3 4.5-1.3-.4 4.3zM60.3 51.7l4.4-1.2 1.2-7.3-4.4 1.2-1.2 7.3zm2.8-17.4l-.9 6.2 4.6-1.3.9-6.2-4.6 1.3zm-5.5 30.9l-1.2 7.5 4.4-1.1-.3 1.5-6.2 1.7 1.5-9 1.8-.6zm-9.5-21.9l-3 18.3c-.1 2.7-3.1 4.8-8.7 6.6-.1-2-.4-3.5-.5-4.4 3.1-.8 4.6-1.6 4.7-2.6l2.7-16.5-10.2 2.8-3 18.1-4.6 1.3.4-2.1-4.6 1.4-.4 2.4-4.3 1.2 4.5-27.7 13.6-3.8-.9 4.8L44 40.3l1.2-7.9 2-.5c1.3-.4 2.1-.5 2.3-.5.4-.1.7-.1.8-.1 0 .1-.1.3-.3.5-.4.9-.5 2-.8 3l-.7 4.3 4.4-1.2-.7 4.4-4.1 1zM22 62.3l4.4-1.2 1.2-7.3-4.4 1.2-1.2 7.3zm2.7-17.2l-.9 6.2 4.6-1.3.9-6.2-4.6 1.3zm14 2.7c.8 2.3 1.5 4.6 2 7-.8.5-1.6 1.1-2.7 1.9-1.7 1.2-2.4 1.6-2.3 1.3-.4-2.6-.9-5-1.6-7.4l4.6-2.8zm24.6 18.1c.3-.5.7-.9 1.1-1.5.4-.4.8-.8 1.3-1.1.5-.4 1.2-.7 2-.8 1.3-.3 2.3-.1 3 .4.7.7.8 1.7.7 3.1-.3 1.5-.8 2.7-1.7 3.8-.9 1.1-2 1.7-3.4 2-1.3.3-2.3.1-3-.4-.7-.7-.8-1.6-.7-3.1 0-.8.3-1.6.7-2.4zm1.3 4.2c.4.4.9.5 1.6.4s1.3-.5 1.9-1.2c.5-.7.9-1.5 1.1-2.6.1-1.1.1-1.7-.3-2.1s-.9-.5-1.6-.3c-.8.1-1.3.5-1.9 1.2-.5.7-.9 1.5-1.1 2.6-.1.8-.1 1.4.3 2zM79 44c-.8.5-1.6 1.1-2.7 1.9-1.7 1.2-2.4 1.6-2.3 1.3-.4-2.6-.9-5-1.6-7.4l4.7-3c.8 2.5 1.5 4.8 1.9 7.2zm-6.3 17.5l7.1-1.7-.3 1.5-2.7.7-1.2 7.5-1.7.4 1.2-7.5-2.7.7.3-1.6zm7.8-2l7.1-1.7-.3 1.5-2.7.7-1.2 7.5-1.7.4 1.2-7.5-2.7.7.3-1.6zm14.9-3.8l-.3 1.5-4.8 1.2-.3 2.1 4.4-1.1-.3 1.5-4.3 1.1-.4 2.4 5-1.2-.3 1.5-6.7 1.7 1.5-9 6.5-1.7zm5.6-1.3c.9-.3 1.6-.3 2-.3s.7.3.9.7c.1.4.3.8.1 1.3-.1.7-.4 1.3-.8 1.9s-1.1.9-1.9 1.2c.4.1.7.3.8.5.3.3.5.7.8 1.2l.8 1.5-2.1.5-.9-1.7c-.4-.5-.5-.9-.7-1.1s-.3-.3-.5-.3c-.1 0-.5 0-.9.1l-.4.1-.7 3.8-1.7.4 1.5-9 3.7-.8zm-1.2 4c.8-.3 1.3-.4 1.6-.5.3-.1.4-.3.5-.5.1-.3.3-.4.3-.7s0-.5-.1-.7c-.1-.1-.4-.3-.7-.1-.1 0-.5.1-1.3.3l-1.3.4-.4 2.3 1.4-.5zm7.8-5.7l1.5 3.1 2.7-4 2-.5-4.2 6-.7 3.8-1.7.4.7-3.8-2.4-4.4 2.1-.6zm3.4-5.6c-.8-1.1-1.7-1.7-2.8-2.3 7.4-4.2 12.8-9.1 16-14.9.7.4 1.9 1.2 3.6 2.4-5 5.8-10.5 10.9-16.5 15-.2.2-.3.1-.3-.2zm5.3-11.7c-1.2-.9-2.4-1.6-3.6-2 3.9-2.8 8.1-7.1 12.2-12.8 2 1.3 3.2 2.1 3.4 2.6l-.3.3c-.3.3-1.3 1.3-3.1 3.4-2.4 2.6-5.2 5.6-8.6 8.5zM50.6 17.7l.8-.1-.3 1.2-.7.3-.3 2-3.4.9-.1.8 3.4-.9-.4 1.3-3.3.9-.1.8 4.2-1.1-.3 1.3-4.2 1-.3 1.9-1.7.4.3-1.7-3.8.9.3-1.2 3.8-.9.1-.8-3.2.8.3-1.2 3.2-.8.1-.8-2.8.8.1-1.2 2.8-.8.1-.8-3.6.7.3-1.2 3.6-.9.1-.8-2.8.8.1-1.5 2.8-.8.1-1.1 1.7-.4-.1 1.1 3.4-.9-.2 2zm-3.7 3.1l1.7-.4.1-.8-1.7.3-.1.9zm.5-3.1l-.1.8 1.7-.4.1-.8-1.7.4zm-7.8 1.2l1.2-1.5c.7.4 1.3.7 1.9 1.1l-1.3 1.6c-.7-.5-1.3-.9-1.8-1.2zm2 3.1l-1.3 1.6c-.7-.5-1.2-.9-1.6-1.2l1.2-1.5c.5.3 1.1.7 1.7 1.1zm-.5 2.7c-.7 1.7-1.3 3.4-1.9 5.1-.7 0-1.2-.1-1.6-.1.5-1.3 1.2-3.1 2-5.2l1.5.2zm-8.5-3c-.1.8-.3 1.6-.5 2.4l5.4-1.5-.3 1.7-4.8 1.3c.5 1.9 2 2.8 4.3 3-.4.5-.9 1.2-1.7 2.1-2-.4-3.5-1.6-4-3.6-1.1 2.1-3 4.2-5.5 6.2-.3-.4-.7-.8-1.2-1.2 3-1.9 4.7-3.8 5.5-5.6l-4.6 1.2.3-1.7 5-1.3c.3-.7.4-1.5.5-2.4l-4.4 1.2.3-1.7L37.8 19l-.5 1.6-4.7 1.1z"/></svg>