<svg id="图层_1" xmlns="http://www.w3.org/2000/svg" viewBox="15 7.1 116.2 70.9"><style>.st0{fill:#fff}</style><path class="st0" d="M118.5 24.9c-.1 0-.1 0-.3-.1-1.1-.5-2-1.1-3.1-1.3 4.2-3.6 7.7-7.9 10.4-13.2.9.3 2.3.8 4.2 1.6-4.1 5.2-7.7 9.6-11.2 13zm-20.9-5.3c8.5-2.4 14.5-5 17.8-7.4.3-.1.4-.3.4-.3 1.6 1.7 2.6 3.1 2.8 4-7.5 3-14 5.4-19.6 7.5-.3-1.4-.7-2.6-1.4-3.8zm1.7 10.5c-.5-2.2-1.1-3.6-1.3-4.6 1.3-.8 2.7-1.6 3.9-2.4.8 2.3 1.3 4 1.6 5.2-1.3.8-2.7 1.6-3.9 2.3-.2-.3-.3-.4-.3-.5zm9.5-9.5c.1 2 .3 3.9.3 5.5-.5.1-1.3.4-2.2.7-.9.4-1.6.7-2.2.7.1-2.4.1-4.3-.1-5.5l4.2-1.4zm4.5-1.8c1.7.1 3.1.4 4 .4 0 .1-.4.7-.9 1.7-1.3 2.3-2.7 4.3-3.9 6.5-1.1-.1-2.2-.1-3.2-.1.1-.4.4-.9.7-1.5 1.6-3.5 2.7-5.8 3.3-7zM104 28.9c1.5-.3 2.7-.5 3.5-.8.8-.1 1.2-.1 1.3-.1 0 .3-.1.4-.3.7s-.3.7-.3.9l7.1-2-.7 3.9-7.3 2.2-.4 2.7 2.7-2.3c1.2 1.3 2.7 2.8 4.3 4.7-1.3 1.1-2.7 2.3-4 3.8-.9-1.3-2-2.7-3.4-4l-1.6 10.5-4.4 1.2 1.5-9.4c-2 3-4.4 5.5-7 7.8-1.1-.8-2-1.3-2.8-1.9 4.2-3.9 7.1-7.7 9.1-11.6l-6.7 1.9.7-3.9 8.3-2.3.4-2zm-13.1 2.5l-4.4 1.2-3 18.3c-.1 2.7-3.1 4.8-8.7 6.6-.1-2-.4-3.5-.5-4.4 3.1-.8 4.6-1.6 4.7-2.6L81.7 34l-10.2 2.8-3 18.3-4.6 1.3.4-2.2-4.6 1.3-.4 2.4-4.3 1.2 4.4-27.7L73 27.6l-.9 4.7 10.2-2.8 1.2-7.9 2-.5c1.3-.4 2.2-.5 2.3-.5.4-.1.7-.1.8-.1 0 .1-.1.3-.3.5-.4.9-.5 2-.8 3l-.7 4.3 4.4-1.2-.3 4.3zM60.3 51.7l4.4-1.2 1.2-7.3-4.4 1.2-1.2 7.3zm2.8-17.3l-.9 6.2 4.6-1.3.9-6.2-4.6 1.3zm-5.5 30.9l-1.2 7.5 4.4-1.1-.3 1.5-6.3 1.7 1.5-9 1.9-.6zM48 43.4l-3 18.3c-.1 2.7-3.1 4.8-8.7 6.6-.1-2-.4-3.5-.5-4.4 3.1-.8 4.6-1.6 4.7-2.6l2.7-16.6L33 47.5l-3 18.2-4.6 1.3.4-2.2-4.6 1.4-.4 2.4-4.3 1.2L21 42.2l13.6-3.8-1 4.8 10.2-2.8 1.2-7.9 2-.5c1.3-.4 2.2-.5 2.3-.5.4-.1.7-.1.8-.1 0 .1-.1.3-.3.5-.4.9-.5 2-.8 3l-.7 4.3 4.4-1.2-.5 4.3-4.2 1.1zM21.9 62.3l4.4-1.2 1.2-7.3-4.4 1.2-1.2 7.3zm2.7-17.2l-.9 6.2 4.6-1.3.9-6.2-4.6 1.3zm14 2.7c.8 2.3 1.5 4.6 2 7-.8.5-1.6 1.1-2.7 1.9-1.7 1.2-2.4 1.6-2.3 1.3-.4-2.6-.9-5-1.6-7.4l4.6-2.8zM63.2 66c.3-.5.7-.9 1.1-1.5.4-.4.8-.8 1.3-1.1.5-.4 1.2-.7 2-.8 1.3-.3 2.3-.1 3 .4.7.7.8 1.7.7 3.1-.3 1.5-.8 2.7-1.7 3.8-.9 1.1-2 1.7-3.4 2s-2.3.1-3-.4c-.7-.7-.8-1.6-.7-3.1 0-.8.3-1.6.7-2.4zm1.4 4.1c.4.4.9.5 1.6.4s1.3-.5 1.9-1.2c.5-.7.9-1.5 1.1-2.6.1-1.1.1-1.7-.3-2.2-.4-.4-.9-.5-1.6-.3-.8.1-1.3.5-1.9 1.2-.5.7-.9 1.5-1.1 2.6-.1.9-.1 1.6.3 2.1zm14.3-26c-.8.5-1.6 1.1-2.7 1.9-1.7 1.2-2.4 1.6-2.3 1.3-.4-2.6-.9-5-1.6-7.4l4.7-3c.9 2.4 1.5 4.7 1.9 7.2zm-6.3 17.4l7.1-1.7-.3 1.5-2.7.7-1.2 7.5-1.7.4 1.2-7.5-2.7.7.3-1.6zm7.8-2l7.1-1.7-.3 1.5-2.7.7-1.2 7.5-1.7.4 1.2-7.5-2.7.7.3-1.6zm15-3.7l-.3 1.5-4.8 1.2-.3 2.2 4.4-1.1-.3 1.5-4.3 1.1-.4 2.4 5-1.2-.3 1.5-6.7 1.7 1.5-9 6.5-1.8zm5.6-1.4c.9-.3 1.6-.3 2-.3s.7.3.9.7c.1.4.3.8.1 1.3-.1.7-.4 1.3-.8 1.9-.4.5-1.1.9-1.9 1.2.4.1.7.3.8.5.3.3.5.7.8 1.2l.8 1.5-2.2.5-.9-1.7c-.4-.5-.5-.9-.7-1.1-.1-.1-.3-.3-.5-.3-.1 0-.5 0-.9.1l-.3.3-.7 3.8-1.7.4 1.5-9 3.7-1zm-1.2 4c.8-.3 1.3-.4 1.6-.5.3-.1.4-.3.5-.5.1-.3.3-.4.3-.7s0-.5-.1-.7c-.1-.1-.4-.3-.7-.1-.1 0-.5.1-1.3.3l-1.3.4-.4 2.3 1.4-.5zm7.8-5.6l1.5 3.1 2.7-4 2-.5-4.2 6.1-.7 3.8-1.7.4.7-3.8-2.4-4.4 2.1-.7zm3.4-5.7c-.8-1.1-1.7-1.7-2.8-2.3 7.4-4.2 12.8-9.1 16-14.9.7.4 1.9 1.2 3.6 2.4-5 5.8-10.5 10.9-16.5 15.1-.2.1-.3 0-.3-.3zm5.3-11.7c-1.2-.9-2.4-1.6-3.6-2 3.9-2.8 8.1-7.1 12.2-12.8 2 1.3 3.2 2.2 3.4 2.6l-.3.3c-.3.3-1.3 1.3-3.1 3.4-2.4 2.6-5.2 5.6-8.6 8.5zM51.9 15.3l-7.8 2 .1-1.1 7.8-2-.1 1.1zm-11.2 5.2l-.3.9 2.8-.7-.7 3.4-.5 2.6c-.1.5-.3 1.1-.5 1.3-.3.4-.5.5-.9.7-.3.1-1.1.4-2 .7 0-.4 0-.9-.1-1.5.5-.1 1.1-.3 1.3-.3.5-.1.8-.5.9-1.2l.7-4-3 .8.8-3.8 2.4-.7.1-.9-2.6.7.3-1.3 4.2-1.1-.4 3.6-2.5.8zm-1.4 2.8l1.3-.4-.1.8.7-.1-.1 1.2-.9.1-.1.8.7-.3c-.1.7-.3 1.1-.3 1.3l-2.7 1.2.1-1.3.9-.4.1-.9-.7.2.1-1.2.8-.1.2-.9zm-5.4-.8l3.9-1.1-.3 1.8-.9.3-1.1 6.9-1.7.4 1.1-6.9-1.2.3-.1.8c-.4 2.8-1.3 5-2.8 6.9-.5-.4-.9-.7-1.5-.9.5-.5 1.1-1.2 1.5-2l-1.6.9c-.1-.7-.4-1.2-.7-1.6l1.3-.9c.3.4.5.8.8 1.5.5-.9.8-2 1.1-3.2l.9-5.9c2-.7 3.6-1.5 5-2.3L38 19c-1.2.7-2.6 1.2-4 1.7l-.1 1.8zM30 22c.3 0 .7.1 1.3.3-.1.3-.4.7-.8 1.2l1.3-.4-.3 1.5-2.5.6-.1.8 2.3-.5-.3 1.5-2.3.5-.5 3.2c0 .4-.3.8-.4 1.1-.3.3-.5.5-.8.7-.3.1-.9.3-1.7.5v-1.3l-.4.7c-.3-.1-.7-.3-1.3-.3.5-.9 1.1-2 1.6-3.2h1.3c-.4.8-.8 1.7-1.2 2.6.3 0 .4-.1.7-.1.3-.1.5-.3.5-.7l.4-2.4-2.4.7.3-1.5 2.4-.7.1-.8-2.7.7.3-1.5 1.3-.4c-.1-.3-.3-.5-.4-.8l1.5-.9c.3.5.4.9.7 1.3l.5-.1c.5-.8.9-1.5 1.2-1.9l-4.2.8.3-1.5L28 21c0-.3-.1-.5-.1-.8l1.9-.8c.1.3.1.7.1 1.1l2.2-.5-.3 1.5-1.8.5zm20.6 3.1l-.2 1.1-8.2 2.1.1-1.1 8.3-2.1zm-7.7 1.6l.5-3.6 7.4-1.9-.5 3.6-7.4 1.9zm1.6-1.3L46 25l.1-.5-1.5.4-.1.5zm.4-1.8l-.1.5 1.5-.4.1-.5-1.5.4zm2.3 1.1l1.5-.4.1-.5-1.5.4-.1.5zm.4-1.9l-.1.5 1.5-.4.1-.5-1.5.4zm-3.9-1.6l.5-3.6 7.4-1.9-.5 3.6-7.4 1.9zm1.8-1.4l1.5-.4.1-.5-1.5.4-.1.5zm.2-1.7l-.1.5 1.5-.4.1-.5-1.5.4zm2.4 1.1l1.5-.4.1-.5-1.5.4-.1.5zm.3-1.8l-.1.5 1.5-.4.1-.5-1.5.4zm-5 4.3l7.9-2.2-.1 1.1-7.9 2.2.1-1.1z"/></svg>