<?xml version="1.0" encoding="utf-8"?>
<!-- Generator: Adobe Illustrator 19.1.0, SVG Export Plug-In . SVG Version: 6.00 Build 0)  -->
<svg version="1.1" id="图层_1" xmlns="http://www.w3.org/2000/svg" xmlns:xlink="http://www.w3.org/1999/xlink" x="0px" y="0px"
	 viewBox="0 0 85 85" style="enable-background:new 0 0 85 85;" xml:space="preserve">
<g>
	<g>
		<g>
			<defs>
				<path id="SVGID_1_" d="M50.7,41.5l13.7-12.9c0.4,0.4,0.6,0.9,0.6,1.5V56c0,0.5-0.2,1-0.6,1.4L50.7,41.5L50.7,41.5z M20.7,28.6
					c0.4-0.3,0.9-0.5,1.4-0.5h40.8c0.5,0,1,0.2,1.4,0.5L42.5,45.1L20.7,28.6L20.7,28.6z M20.6,57.4C20.2,57,20,56.5,20,56V30.1
					c0-0.6,0.2-1.1,0.6-1.5l13.7,12.9L20.6,57.4L20.6,57.4z M42.5,49.2l5.7-5.4l16.1,13.7C64,57.8,63.5,58,62.9,58H22.1
					c-0.6,0-1.1-0.2-1.4-0.6l16.1-13.7L42.5,49.2L42.5,49.2z"/>
			</defs>
			<use xlink:href="#SVGID_1_"  style="overflow:visible;fill:#5168C6;enable-background:new    ;"/>
			<clipPath id="SVGID_2_">
				<use xlink:href="#SVGID_1_"  style="overflow:visible;enable-background:new    ;"/>
			</clipPath>
		</g>
	</g>
</g>
</svg>
