<?xml version="1.0" encoding="utf-8"?>
<!-- Generator: Adobe Illustrator 19.0.0, SVG Export Plug-In . SVG Version: 6.00 Build 0)  -->
<svg version="1.1" id="图层_1" xmlns="http://www.w3.org/2000/svg" xmlns:xlink="http://www.w3.org/1999/xlink" x="0px" y="0px"
	 viewBox="214 -92.1 1024 1024" style="enable-background:new 214 -92.1 1024 1024;" xml:space="preserve">
<path d="M1159.7-56.9c-18.7-18.7-49.1-18.7-67.9,0L889.7,145.2C837.8,129.5,782.8,121,725.9,121C502.6,121,309.1,251,214,440.9
	c41.1,82.1,100.6,153,173,207L228.1,806.9c-18.7,18.7-18.7,49.1,0,67.9c9.4,9.4,21.6,14.1,33.9,14.1c12.3,0,24.6-4.7,33.9-14.1
	L1159.7,11C1178.4-7.8,1178.4-38.1,1159.7-56.9z M629.9,249c42.2,0,78.1,27.3,90.9,65.2L599.1,435.8c-37.9-12.8-65.2-48.7-65.2-90.9
	C533.9,291.9,576.9,249,629.9,249z M324.1,440.9c38.3-60.5,89.2-111.9,149.4-150.3c3.9-2.5,7.9-4.9,11.9-7.3
	c-10,27.3-15.4,56.8-15.4,87.6c0,54.9,17.3,105.7,46.7,147.4l-60.9,60.9C403.3,542.4,358.5,495.4,324.1,440.9z"/>
<path d="M981.8,370.9c0-27.2-4.3-53.3-12.1-77.9L648,614.8c24.6,7.8,50.7,12.1,77.9,12.1C867.2,626.9,981.8,512.3,981.8,370.9
	L981.8,370.9z"/>
<path d="M1043.8,219l-69.3,69.3c1.3,0.8,2.5,1.6,3.8,2.4c60.1,38.4,111.1,89.7,149.4,150.3c-38.3,60.5-89.2,111.9-149.4,150.3
	c-75.6,48.2-162.8,73.7-252.4,73.7c-38.7,0-76.9-4.8-113.9-14L535,727.7c59.7,21.5,123.9,33.1,190.8,33.1
	c223.2,0,416.8-130,511.9-319.9C1192.7,351,1125.6,274.6,1043.8,219z"/>
</svg>
