<?xml version="1.0" encoding="utf-8"?>
<!-- Generator: Adobe Illustrator 19.1.0, SVG Export Plug-In . SVG Version: 6.00 Build 0)  -->
<svg version="1.1" id="图层_1" xmlns="http://www.w3.org/2000/svg" xmlns:xlink="http://www.w3.org/1999/xlink" x="0px" y="0px"
	 viewBox="0 0 85 85" style="enable-background:new 0 0 85 85;" xml:space="preserve">
<style type="text/css">
	.st0{enable-background:new    ;}
</style>
<g class="st0">
	<g>
		<g>
			<defs>
				<path id="SVGID_1_" d="M45.7,27.1c-2.9,0.6-5.5,2-7.6,3.8H21c0,0-2-1.2-2-2.4c0-1.3,2-2.5,2-2.5h24.7V27.1L45.7,27.1z M33.3,38
					H21c0,0-2-1.2-2-2.4s2-2.5,2-2.5h15C34.9,34.5,33.9,36.2,33.3,38L33.3,38z M32.3,43.6c0,0.5,0,0.9,0.1,1.4H21c0,0-2-1.1-2-2.3
					c0-1.3,2-2.7,2-2.7h11.7C32.5,41.2,32.3,42.4,32.3,43.6L32.3,43.6z M34.6,52.1H21c0,0-2-1.3-2-2.5s2-2.4,2-2.4h11.7
					C33.1,48.9,33.7,50.5,34.6,52.1L34.6,52.1z M42.4,59.1H21c0,0-2-1.3-2-2.5s2-2.4,2-2.4h15C37.7,56.3,39.9,58,42.4,59.1
					L42.4,59.1z M35.1,43.6c0-8.5,6.9-15.5,15.4-15.5S65.9,35,65.9,43.6c0,8.5-6.9,15.5-15.4,15.5S35.1,52.2,35.1,43.6L35.1,43.6z
					 M50.5,55.1C56.9,55.1,62,50,62,43.6s-5.1-11.5-11.5-11.5S39,37.2,39,43.6C39,49.9,44.2,55.1,50.5,55.1L50.5,55.1z M50.6,33.8
					c5.4,0,9.8,4.4,9.8,9.8s-4.4,9.8-9.8,9.8s-9.8-4.4-9.8-9.8C40.7,38.2,45.1,33.8,50.6,33.8L50.6,33.8z M45.7,42.2v1.4h3.5v2.1
					h-3.5v1.4h3.5v3.5H52v-3.5h4.2v-1.4H52v-2.1h4.2v-1.4H52l3.5-3.5L52.7,38l-2.1,3.5L48.5,38l-2.8,0.7l3.5,3.5H45.7L45.7,42.2z"/>
			</defs>
			<use xlink:href="#SVGID_1_"  style="overflow:visible;fill:#F29333;"/>
			<clipPath id="SVGID_2_">
				<use xlink:href="#SVGID_1_"  style="overflow:visible;"/>
			</clipPath>
		</g>
	</g>
</g>
</svg>
