<?xml version="1.0" encoding="utf-8"?>
<!-- Generator: Adobe Illustrator 19.0.0, SVG Export Plug-In . SVG Version: 6.00 Build 0)  -->
<svg version="1.1" id="图形" xmlns="http://www.w3.org/2000/svg" xmlns:xlink="http://www.w3.org/1999/xlink" x="0px" y="0px"
	 viewBox="214 -92.1 1024 1024" style="enable-background:new 214 -92.1 1024 1024;" xml:space="preserve">
<style type="text/css">
	.st0{fill:#FFFFFF;}
</style>
<path class="st0" d="M726-85.9c-282.8,0-512,229.2-512,512s229.2,512,512,512s512-229.2,512-512S1008.8-85.9,726-85.9z M470,170.1
	h512c9.1,0,18,2,26.1,5.7L726,504.9L443.9,175.7C452,172.1,460.9,170.1,470,170.1L470,170.1z M406,618.1v-384c0-1.3,0.1-2.7,0.1-4
	L593.8,449L408.2,634.6C406.8,629.3,406,623.7,406,618.1L406,618.1z M982,682.1H470c-5.7,0-11.2-0.8-16.5-2.2l182.1-182.1L726,603.3
	l90.4-105.5l182.1,182.1C993.2,681.3,987.7,682.1,982,682.1L982,682.1z M1046,618.1c0,5.7-0.8,11.2-2.2,16.5L858.2,449l187.7-218.9
	c0.1,1.3,0.1,2.7,0.1,4V618.1L1046,618.1z"/>
</svg>
