<?xml version="1.0" encoding="utf-8"?>
<!-- Generator: Adobe Illustrator 19.0.0, SVG Export Plug-In . SVG Version: 6.00 Build 0)  -->
<svg version="1.1" id="图层_1" xmlns="http://www.w3.org/2000/svg" xmlns:xlink="http://www.w3.org/1999/xlink" x="0px" y="0px"
	 viewBox="214 -92.1 1024 1024" style="enable-background:new 214 -92.1 1024 1024;" xml:space="preserve">
<style type="text/css">
	.st0{fill:#FFFFFF;}
</style>
<g>
	<path class="st0" d="M1144.7,518.1c-53.7-93.1-21.4-212.3,72.2-266.5L1116.3,77.4c-28.8,16.9-62.2,26.5-97.8,26.5
		c-107.5,0-194.7-87.7-194.7-196H622.4c0.3,33.4-8.1,67.3-26,98.3c-53.7,93.1-173.2,124.7-266.9,70.8L229,251.2
		c29,16.5,54.1,40.6,71.9,71.5c53.6,92.9,21.5,211.9-71.7,266.2l100.6,174.3c28.7-16.7,61.9-26.3,97.4-26.3
		c107.2,0,194.1,87.2,194.7,195h201.3c-0.1-33.1,8.3-66.6,26-97.2c53.6-92.9,172.8-124.6,266.4-71l100.6-174.3
		C1187.4,572.9,1162.5,548.9,1144.7,518.1L1144.7,518.1z M722.9,627.2c-114.5,0-207.3-92.8-207.3-207.3
		c0-114.5,92.8-207.3,207.3-207.3s207.3,92.8,207.3,207.3C930.3,534.4,837.4,627.2,722.9,627.2z"/>
</g>
</svg>
