<?xml version="1.0" encoding="utf-8"?>
<!-- Generator: Adobe Illustrator 19.1.0, SVG Export Plug-In . SVG Version: 6.00 Build 0)  -->
<svg version="1.1" id="图层_1" xmlns="http://www.w3.org/2000/svg" xmlns:xlink="http://www.w3.org/1999/xlink" x="0px" y="0px"
	 viewBox="0 0 85 85" style="enable-background:new 0 0 85 85;" xml:space="preserve">
<g>
	<g>
		<g>
			<g>
				<defs>
					<path id="SVGID_1_" d="M55.6,62l-2.5-2.5c3.9-4.4,6.3-10.2,6.3-16.5S57,30.9,53.1,26.5l2.5-2.5c4.6,5.1,7.4,11.7,7.4,19
						S60.2,57,55.6,62L55.6,62z M51.7,55.3l-2.5-2.5c2.2-2.7,3.5-6.1,3.5-9.8s-1.3-7.1-3.5-9.8l2.5-2.5c2.8,3.3,4.5,7.6,4.5,12.2
						C56.2,47.7,54.5,52,51.7,55.3L51.7,55.3z M44.2,56.9c-0.6,0-1.1-0.2-1.6-0.5l0,0L33.5,50h-8.9c-1.5,0-2.7-1.2-2.7-2.6v-8.7
						c0-1.4,1.2-2.6,2.7-2.6l0,0h8.8l9-7.2l0,0c0.5-0.4,1-0.6,1.7-0.6c1.5,0,2.7,1.2,2.7,2.6v7.8v6.1v2.6V50v4.3
						C46.8,55.8,45.6,56.9,44.2,56.9L44.2,56.9z"/>
				</defs>
				<use xlink:href="#SVGID_1_"  style="overflow:visible;fill:#18A95C;"/>
				<clipPath id="SVGID_2_">
					<use xlink:href="#SVGID_1_"  style="overflow:visible;"/>
				</clipPath>
			</g>
		</g>
	</g>
</g>
</svg>
