<?xml version="1.0" encoding="utf-8"?>
<!-- Generator: Adobe Illustrator 19.1.0, SVG Export Plug-In . SVG Version: 6.00 Build 0)  -->
<svg version="1.1" id="图层_1" xmlns="http://www.w3.org/2000/svg" xmlns:xlink="http://www.w3.org/1999/xlink" x="0px" y="0px"
	 viewBox="0 0 85 85" style="enable-background:new 0 0 85 85;" xml:space="preserve">
<style type="text/css">
	.st0{fill:none;}
	.st1{fill:#488DC9;}
</style>
<g>
	<rect x="36.3" y="36.8" class="st0" width="3.4" height="5.7"/>
	<circle class="st0" cx="38" cy="54.5" r="2.5"/>
	<path class="st1" d="M52.1,32.7H31.3c-0.5,0-0.9,0.4-0.9,0.9V35c0,0.5,0.4,0.9,0.9,0.9h1.6v21.7c0,1.1,0.9,2.1,2.1,2.1h8.9V35.9
		h3.5v23.7h1.2c1.1,0,2.1-0.9,2.1-2.1V35.9h1.6c0.5,0,0.9-0.4,0.9-0.9v-1.3C53.1,33.1,52.6,32.7,52.1,32.7z M36.3,36.8h3.4v5.7h-3.4
		V36.8z M38,56.9c-1.4,0-2.5-1.1-2.5-2.5S36.6,52,38,52s2.5,1.1,2.5,2.5S39.4,56.9,38,56.9z"/>
</g>
<g>
	<path class="st1" d="M55.5,23.5H27.9c-2.1,0-3.9,1.7-3.9,3.9v15.8c0,2.1,1.7,3.9,3.9,3.9h3.9v-3h-3.7c-0.6,0-1.1-0.5-1.1-1.1V27.7
		c0-0.6,0.5-1.1,1.1-1.1h27c0.6,0,1.1,0.5,1.1,1.1v15.2c0,0.6-0.5,1.1-1.1,1.1h-3.6v3h3.9c2.1,0,3.9-1.7,3.9-3.9V27.3
		C59.3,25.2,57.6,23.5,55.5,23.5z"/>
</g>
</svg>
