<?xml version="1.0" encoding="utf-8"?>
<!-- Generator: Adobe Illustrator 19.0.0, SVG Export Plug-In . SVG Version: 6.00 Build 0)  -->
<svg version="1.1" id="图层_1" xmlns="http://www.w3.org/2000/svg" xmlns:xlink="http://www.w3.org/1999/xlink" x="0px" y="0px"
	 viewBox="214 -92.1 1024 1024" style="enable-background:new 214 -92.1 1024 1024;" xml:space="preserve">
<path d="M726,88.4c-222.8,0-416,129.8-510.9,319.3C310,597.3,503.2,727,726,727s416-129.8,510.9-319.3
	C1142,218.1,948.8,88.4,726,88.4z M977.9,257.7c60,38.3,110.9,89.6,149.1,150c-38.2,60.4-89.1,111.7-149.1,150
	c-75.4,48.1-162.5,73.5-251.9,73.5s-176.5-25.4-251.9-73.5c-60-38.3-110.9-89.6-149.1-150c38.2-60.4,89.1-111.7,149.1-150
	c3.9-2.5,7.9-4.9,11.8-7.3c-9.9,27.3-15.4,56.7-15.4,87.4c0,141.1,114.4,255.5,255.5,255.5s255.5-114.4,255.5-255.5
	c0-30.7-5.4-60.1-15.4-87.4C970,252.8,974,255.2,977.9,257.7L977.9,257.7L977.9,257.7z M726,311.9c0,52.9-42.9,95.8-95.8,95.8
	s-95.8-42.9-95.8-95.8s42.9-95.8,95.8-95.8S726,259,726,311.9z"/>
</svg>
