<?xml version="1.0" encoding="utf-8"?>
<!-- Generator: Adobe Illustrator 19.1.0, SVG Export Plug-In . SVG Version: 6.00 Build 0)  -->
<svg version="1.1" id="图层_1" xmlns="http://www.w3.org/2000/svg" xmlns:xlink="http://www.w3.org/1999/xlink" x="0px" y="0px"
	 viewBox="0 0 85 85" style="enable-background:new 0 0 85 85;" xml:space="preserve">
<style type="text/css">
	.st0{enable-background:new    ;}
</style>
<g class="st0">
	<g>
		<g>
			<defs>
				<path id="SVGID_1_" d="M60.3,66H23.7c-0.9,0-1.7-0.7-1.7-1.6v-25c0-0.9,0.7-1.6,1.7-1.6h5V32c0-6.7,5.8-12.1,12.9-12.1h0.8
					c7.1,0,12.9,5.4,12.9,12.1v5.8h5c0.9,0,1.7,0.7,1.7,1.6v25C62,65.3,61.3,66,60.3,66L60.3,66z M36,51v2h4v2h-4v2h4v4h4v-4h4v-2
					h-4v-2h4v-2h-4l4-6h-4l-2,4l-2-4h-4l4,6H36L36,51z M48.7,31.8c0-3.5-2.2-6.2-5.8-6.2H42c-3.7,0-6.7,2.8-6.7,6.2V38h13.3v-6.2
					H48.7z"/>
			</defs>
			<use xlink:href="#SVGID_1_"  style="overflow:visible;fill:#EC5F64;"/>
			<clipPath id="SVGID_2_">
				<use xlink:href="#SVGID_1_"  style="overflow:visible;"/>
			</clipPath>
		</g>
	</g>
</g>
</svg>
