<?xml version="1.0" encoding="utf-8"?>
<!DOCTYPE svg PUBLIC "-//W3C//DTD SVG 1.1//EN" "http://www.w3.org/Graphics/SVG/1.1/DTD/svg11.dtd">
<svg style="width:308px;height:308px;" version="1.1" id="图形" xmlns="http://www.w3.org/2000/svg" xmlns:xlink="http://www.w3.org/1999/xlink" x="0px" y="0px" width="1024px" height="1024px" viewBox="0 0 1024 1024" enable-background="new 0 0 1024 1024" xml:space="preserve">
  <path class="svgpath" data-index="path_0" fill="#ffffff" d="M753.1682 194.19998c28.205389 20.058848 53.28253 42.782386 75.221192 68.168566 21.937638 25.38618 40.74089 52.806693 56.411801 82.267679 15.669888 29.462009 27.583219 60.649312 35.729759 93.554746 8.146541 32.908504 12.221346 66.284659 12.221346 100.136651 0 58.294684-11.123338 112.981191-33.375132 164.072823-22.251793 51.083445-52.341089 95.589079-90.26277 133.505643-37.926798 37.926798-82.431408 68.012-133.5169 90.264816-51.081399 22.254863-105.776092 33.379225-164.06259 33.379225-57.671491 0-112.048959-11.124362-163.134451-33.379225-51.090609-22.252817-95.746668-52.338019-133.983527-90.264816-38.239929-37.922704-68.325132-82.426291-90.26277-133.505643-21.941732-51.091632-32.908504-105.778138-32.908504-164.078962 0-33.217543 3.913123-65.812915 11.749602-97.781 7.837502-31.968086 18.961864-62.36642 33.376155-91.204212 14.424524-28.829606 32.286334-55.784514 53.597709-80.852446 21.309328-25.077142 45.130873-47.642067 71.458495-67.701938 13.792121-10.030447 28.67611-13.791098 44.661176-11.285021 15.98302 2.511193 28.991288 10.343579 39.020712 23.508413 10.029424 13.166881 13.790074 27.89635 11.285021 44.194548-2.512217 16.298198-10.343579 29.456892-23.509437 39.491433-39.49041 28.829606-69.735248 64.24521-90.732467 106.241696-20.996197 41.99751-31.492248 87.13043-31.492248 135.38955 0 41.370223 7.831362 80.395028 23.503297 117.062136 15.669888 36.671201 37.136805 68.635193 64.401776 95.903234 27.269064 27.269064 59.236126 48.894593 95.909373 64.877613 36.666084 15.98302 75.68168 23.974018 117.061113 23.974018 41.36613 0 80.385818-7.990998 117.052926-23.974018 36.671201-15.98302 68.638263-37.608549 95.90835-64.877613 27.26497-27.267017 48.888454-59.232033 64.87352-95.903234 15.98302-36.667108 23.974018-75.692936 23.974018-117.062136 0-48.88743-11.280928-95.118358-33.846876-138.680503-22.565948-43.561122-54.218856-79.449493-94.961792-107.654882-13.788028-9.401114-22.095227-22.25077-24.915459-38.548968s0.465604-31.339776 9.868765-45.131897c9.406231-13.162788 22.255887-21.157879 38.554084-23.972994C724.333478 181.512007 739.370962 184.798866 753.1682 194.19998L753.1682 194.19998 753.1682 194.19998zM511.534907 541.147854c-16.302291 0-30.252001-5.796006-41.845037-17.392112-11.596106-11.599176-17.395182-25.548886-17.395182-41.84606L452.294688 124.624369c0-16.298198 5.799076-30.404474 17.395182-42.312688 11.593036-11.909238 25.542746-17.86181 41.845037-17.86181 16.921391 0 31.179117 5.952572 42.778292 17.86181 11.594059 11.908214 17.391089 26.01449 17.391089 42.312688l0 357.285313c0 16.297175-5.79703 30.246885-17.391089 41.84606C542.714024 535.350824 528.456299 541.147854 511.534907 541.147854L511.534907 541.147854 511.534907 541.147854zM511.534907 541.147854" />

</svg>
