<?xml version="1.0" encoding="utf-8"?>
<!-- Generator: Adobe Illustrator 19.1.0, SVG Export Plug-In . SVG Version: 6.00 Build 0)  -->
<svg version="1.1" id="图层_1" xmlns="http://www.w3.org/2000/svg" xmlns:xlink="http://www.w3.org/1999/xlink" x="0px" y="0px"
	 viewBox="0 0 85 85" style="enable-background:new 0 0 85 85;" xml:space="preserve">
<style type="text/css">
	.st0{fill:#EC6066;}
</style>
<g>
	<path class="st0" d="M46.6,31.3c-0.7-0.5-1.7-0.4-2.2,0.3l-4.3,5.7l-4.3-5.7c-0.5-0.7-1.5-0.8-2.2-0.3c-0.7,0.5-0.8,1.5-0.3,2.2
		l3.8,5h-1.9c-0.9,0-1.6,0.7-1.6,1.6c0,0.9,0.7,1.6,1.6,1.6h3.4v0.9h-3.4c-0.9,0-1.6,0.7-1.6,1.6s0.7,1.6,1.6,1.6h3.4v2.5
		c0,0.9,0.7,1.6,1.6,1.6c0.9,0,1.6-0.7,1.6-1.6v-2.5H45c0.9,0,1.6-0.7,1.6-1.6s-0.7-1.6-1.6-1.6h-3.4v-0.9H45c0.9,0,1.6-0.7,1.6-1.6
		c0-0.9-0.7-1.6-1.6-1.6h-1.9l3.8-5C47.4,32.8,47.3,31.8,46.6,31.3z"/>
</g>
<g>
	<path class="st0" d="M40.2,55.6c-5,0-9.5-2.4-12.4-6.1l3.1-3.1h-9.6v9.8l3.6-3.6c3.6,4.5,9.1,7.3,15.3,7.3c9.9,0,18-7.2,19.5-16.6
		h-4.3C54,50.2,47.7,55.6,40.2,55.6z"/>
	<g>
		<path class="st0" d="M58.9,24.3l-3.3,3.4c-3.6-4.5-9.2-7.4-15.4-7.4c-9.9,0-18.1,7.3-19.5,16.9h4.2c1.3-7.2,7.7-12.7,15.3-12.7
			c5.1,0,9.6,2.4,12.5,6.2l-3.4,3.4h9.7L58.9,24.3L58.9,24.3z"/>
	</g>
</g>
</svg>
