<?xml version="1.0" encoding="utf-8"?>
<!-- Generator: Adobe Illustrator 19.1.0, SVG Export Plug-In . SVG Version: 6.00 Build 0)  -->
<svg version="1.1" id="图层_1" xmlns="http://www.w3.org/2000/svg" xmlns:xlink="http://www.w3.org/1999/xlink" x="0px" y="0px"
	 viewBox="0 0 85 85" style="enable-background:new 0 0 85 85;" xml:space="preserve">
<style type="text/css">
	.st0{enable-background:new    ;}
</style>
<g class="st0">
	<g>
		<g>
			<defs>
				<path id="SVGID_1_" d="M67,30.7V31l0,0v8l0,0v16.5c0,1.4-1.3,2.5-2.8,2.5H20.8c-1.5,0-2.8-1.1-2.8-2.5V36v-5.4v-1.1
					c0-1.4,1.3-2.5,2.8-2.5h43.4c1.5,0,2.8,1.1,2.8,2.5V30l0,0V30.7L67,30.7z M24,52h22v-3H24V52L24,52z M46,45v-3h-4v3H46L46,45z
					 M24,45h15v-3H24V45L24,45z M20,31v5h45v-5H20L20,31z"/>
			</defs>
			<use xlink:href="#SVGID_1_"  style="overflow:visible;fill:#00B45D;"/>
			<clipPath id="SVGID_2_">
				<use xlink:href="#SVGID_1_"  style="overflow:visible;"/>
			</clipPath>
		</g>
	</g>
</g>
</svg>
