<?xml version="1.0" standalone="no"?><!DOCTYPE svg PUBLIC "-//W3C//DTD SVG 1.1//EN" "http://www.w3.org/Graphics/SVG/1.1/DTD/svg11.dtd"><svg t="1487347375879" class="icon" style="" viewBox="0 0 1024 1024" version="1.1" xmlns="http://www.w3.org/2000/svg" p-id="2665" xmlns:xlink="http://www.w3.org/1999/xlink" width="150" height="150"><defs><style type="text/css"></style></defs><path d="M476.960117 508.913948l31.100314 31.089321c11.846168 11.846168 16.965098 10.33939 27.306886-0.002398l0.72331-0.72331L761.58694 344.47144l0.426711 153.344632 1.875528 0.003598c10.735122 0.020186 19.440419-8.691707 19.411839-19.426829l-0.41272-155.341678c-0.028381-10.69275-8.690308-19.353478-19.383058-19.38006l-163.592884-0.409123c-10.698946-0.026782-19.38006 8.651334-19.357076 19.350281l0.008594 3.986097 166.63782 0.436704L535.393899 508.152465c-15.155724 15.155724-14.865521 10.329397-27.357652 0.0004l-29.448034-29.447834-0.589201-0.5894c-13.795846-13.795846-16.295751-11.295741-27.5815-0.010193l-0.600393 0.599394-133.571239 115.234471c-8.002374 6.903719-9.02588 18.934962-2.304837 27.091232l2.285251 2.77332 134.296347-115.860646C461.924911 496.541337 463.787048 495.74088 476.960117 508.913948zM259.115416 187.846632 259.115416 187.846632c-10.726727 0-19.422232 14.835542-19.422232 25.562069l0 575.115272 0 0.931568c0 10.714536 8.685911 19.400446 19.400446 19.400446l0.932368 0 544.774443 0c10.724329 0 24.534566-8.693706 24.534566-19.418035l0-7.054017L282.535337 782.383936c-19.369068 0-19.43962 0-19.43962-19.43962L263.095717 191.826933C263.095717 189.628624 261.313725 187.846632 259.115416 187.846632z" p-id="2666"></path><path d="M391.767662 626.485451l69.455885-63.102177c2.772136-2.518357 7.024997-2.442632 9.706059 0.170892l43.409672 42.330084c6.39464 6.569626 7.758708 5.54632 13.473873 0.00307l104.343463-101.645005c3.432169-3.343141 3.353374-8.883321-0.172939-12.127202l0 0-104.847953 102.797247c-5.720282 6.284123-5.720282 6.284123-12.101619-0.021489l-44.165896-43.61638c-2.638083-2.605338-6.857175-2.681062-9.586332-0.170892l-69.400626 63.813375C388.510478 618.017592 388.458289 623.320365 391.767662 626.485451L391.767662 626.485451z" p-id="2667"></path></svg>