<?xml version="1.0" standalone="no"?><!DOCTYPE svg PUBLIC "-//W3C//DTD SVG 1.1//EN" "http://www.w3.org/Graphics/SVG/1.1/DTD/svg11.dtd"><svg t="1487346611849" class="icon" style="" viewBox="0 0 1024 1024" version="1.1" xmlns="http://www.w3.org/2000/svg" p-id="2479" xmlns:xlink="http://www.w3.org/1999/xlink" width="150" height="150"><defs><style type="text/css"></style></defs><path d="M511.998977 128.591727c-213.059514 0-385.77825 171.655522-385.77825 383.406227s172.717713 383.41032 385.77825 383.41032 385.779274-171.659615 385.779274-383.41032S725.05849 128.591727 511.998977 128.591727zM511.998977 165.106362c192.769398 0 349.038488 155.309228 349.038488 346.891592 0 79.750345-27.096125 153.199171-72.611761 211.791637-27.357068-75.801407-85.243453-137.122007-158.967548-169.189354 29.594015-29.691229 47.877427-70.53752 47.877427-115.632577 0-90.749864-74.023924-164.317393-165.334559-164.317393s-165.333536 73.566506-165.333536 164.317393c0 45.094034 18.282389 85.941348 47.876404 115.632577-73.724095 32.066323-131.61048 93.386924-158.967548 169.18833-45.51666-58.592466-72.612785-132.042315-72.612785-211.791637C162.962535 320.41559 319.231625 165.106362 511.998977 165.106362zM379.731534 438.966637c0-72.599482 59.219753-131.452891 132.267443-131.452891 73.049736 0 132.267443 58.852386 132.267443 131.452891s-59.21873 131.453914-132.267443 131.453914C438.951287 570.421574 379.731534 511.567141 379.731534 438.966637zM511.998977 858.890568c-97.080036 0-184.889941-39.402405-248.157893-102.978373 22.203698-82.074274 84.464717-147.70197 164.682713-175.087691 24.50102 14.272052 53.023634 22.463618 83.47518 22.463618 30.451546 0 58.97416-8.190543 83.476203-22.463618 80.216973 27.38572 142.480039 93.013417 164.683736 175.087691C696.890964 819.488163 609.080036 858.890568 511.998977 858.890568z" p-id="2480"></path></svg>