<?xml version="1.0" encoding="utf-8"?>
<!-- Generator: Adobe Illustrator 19.0.0, SVG Export Plug-In . SVG Version: 6.00 Build 0)  -->
<svg version="1.1" id="图层_1" xmlns="http://www.w3.org/2000/svg" xmlns:xlink="http://www.w3.org/1999/xlink" x="0px" y="0px"
	 viewBox="214 -92.1 1024 1024" style="enable-background:new 214 -92.1 1024 1024;" xml:space="preserve">
<style type="text/css">
	.st0{fill:none;stroke:#898989;stroke-width:20;stroke-miterlimit:10;}
</style>
<g>
	<circle class="st0" cx="725.8" cy="419.6" r="329.8"/>
</g>
<g>
	<g>
		<path class="st0" d="M632.9,484.4H593c-2.1,0-3.8-1.7-3.8-3.8v-95.3c0-2.1,1.7-3.8,3.8-3.8h39.9c2.1,0,3.8,1.7,3.8,3.8v95.4
			C636.7,482.7,635,484.4,632.9,484.4z"/>
		<path class="st0" d="M744.7,484.4h-39.9c-2.1,0-3.8-1.7-3.8-3.8v-95.3c0-2.1,1.7-3.8,3.8-3.8h39.9c2.1,0,3.8,1.7,3.8,3.8v95.4
			C748.6,482.7,746.9,484.4,744.7,484.4z"/>
		<path class="st0" d="M860.7,484.4h-39.9c-2.1,0-3.8-1.7-3.8-3.8v-95.3c0-2.1,1.7-3.8,3.8-3.8h39.9c2.1,0,3.8,1.7,3.8,3.8v95.4
			C864.5,482.7,862.7,484.4,860.7,484.4z"/>
	</g>
	<path class="st0" d="M892.6,569.9H558.1c-2.3,0-4.1-1.8-4.1-4.1v-42.3c0-2.3,1.8-4.1,4.1-4.1h334.5c2.3,0,4.1,1.8,4.1,4.1v42.3
		C896.6,568.1,894.8,569.9,892.6,569.9z"/>
	<path class="st0" d="M887.5,321.6l-162.7-52.3l-162.7,52.3c-5.5,2-8.1,5.5-8.1,10.5s4.1,9.2,9.2,9.2h161.7h161.7
		c5,0,9.2-4.1,9.2-9.2C895.6,327.1,893,323.6,887.5,321.6z"/>
</g>
</svg>
